<svg width="600" height="400" viewBox="0 0 600 400" fill="none" xmlns="http://www.w3.org/2000/svg">
<path d="M416.055 218.713C416.055 222.132 416.055 225.552 416.055 228.971C416.055 229.294 416.046 229.627 416.038 229.955C416.028 230.071 415.975 230.18 415.887 230.258C415.8 230.336 415.686 230.378 415.568 230.375C415.285 230.383 415.002 230.39 414.72 230.39H408.772C408.348 230.39 407.922 230.39 407.498 230.403C407.16 230.411 407.024 230.587 407.054 230.959C407.067 231.334 407.126 231.705 407.23 232.066C407.261 232.159 407.447 232.327 407.533 232.33C407.815 232.34 408.096 232.365 408.379 232.366C410.554 232.366 412.721 232.366 414.893 232.366C415.174 232.366 415.458 232.337 415.737 232.41C415.818 232.43 416.021 232.608 416.026 232.684C416.033 232.824 416.047 232.964 416.046 233.105C416.046 237.977 416.042 242.848 416.032 247.719C416.032 247.859 416.016 248 416.008 248.14C416.002 248.248 415.853 248.428 415.751 248.435C415.516 248.452 415.282 248.477 415.047 248.479C413.442 248.479 411.837 248.479 410.232 248.479C409.949 248.479 409.667 248.495 409.384 248.506C409.257 248.506 409.108 248.66 409.122 248.77C409.178 249.234 409.237 249.696 409.294 250.159C409.313 250.224 409.349 250.283 409.399 250.33C409.449 250.377 409.51 250.41 409.576 250.426C409.859 250.434 410.142 250.448 410.425 250.448C412.029 250.448 413.634 250.448 415.239 250.448C415.428 250.447 415.615 250.469 415.798 250.512C415.842 250.528 415.882 250.554 415.914 250.588C415.946 250.622 415.969 250.663 415.982 250.707C416.015 250.986 416.03 251.266 416.029 251.547C416.029 253.889 416.027 256.231 416.023 258.573C416.023 261.43 416.019 264.288 416.01 267.145C416.01 267.379 416 267.613 415.991 267.847C415.991 267.987 415.764 268.188 415.607 268.198C415.56 268.198 415.515 268.211 415.468 268.211C414.193 268.211 412.919 268.211 411.645 268.211C411.551 268.211 411.459 268.184 411.365 268.175C411.272 268.166 411.065 268.007 411.053 267.925C410.95 267.23 410.836 266.536 410.747 265.84C410.675 265.235 410.591 264.633 410.496 264.031C410.343 263.013 410.233 261.988 410.093 260.968C409.96 259.997 409.812 259.026 409.669 258.049C409.56 257.307 409.496 256.562 409.371 255.821C409.207 254.85 409.111 253.871 408.979 252.897C408.911 252.387 408.833 251.878 408.748 251.37C408.722 251.232 408.679 251.099 408.618 250.973C408.541 250.801 408.49 250.62 408.467 250.433C408.25 248.714 408.05 246.993 407.821 245.276C407.617 243.745 407.41 242.213 407.23 240.679C407.109 239.656 406.943 238.639 406.81 237.617C406.672 236.549 406.556 235.478 406.419 234.41C406.282 233.342 406.129 232.276 405.984 231.209C405.875 230.373 405.788 229.535 405.664 228.701C405.505 227.635 405.406 226.562 405.268 225.494C405.13 224.426 404.971 223.361 404.833 222.293C404.73 221.504 404.655 220.713 404.535 219.92C404.373 218.856 404.276 217.782 404.139 216.714C404.002 215.646 403.843 214.581 403.705 213.513C403.571 212.491 403.453 211.463 403.325 210.446C403.266 209.981 403.185 209.519 403.138 209.054C403.113 208.806 403.152 208.65 403.486 208.521C404.059 208.304 404.648 208.131 405.247 208.004C406.584 207.712 407.928 207.465 409.298 207.378C409.439 207.368 409.581 207.357 409.721 207.339C411.646 207.086 413.582 207.117 415.517 207.114C415.611 207.121 415.704 207.133 415.797 207.15C415.86 207.177 415.915 207.219 415.959 207.271C416.002 207.324 416.033 207.386 416.047 207.452C416.057 207.873 416.072 208.295 416.072 208.715C416.072 212.041 416.072 215.366 416.072 218.692L416.055 218.713Z" fill="white"/>
<path d="M304.745 281.597C293.274 281.597 281.804 281.597 270.333 281.597C269.815 281.597 269.293 281.641 268.78 281.546C268.697 281.531 268.624 281.446 268.562 281.38C268.536 281.341 268.522 281.294 268.523 281.247C268.505 281.062 268.479 280.876 268.478 280.689C268.478 279.003 268.478 277.317 268.478 275.631C268.478 275.444 268.495 275.258 268.505 275.071C268.511 274.979 268.549 274.891 268.611 274.822C268.672 274.753 268.756 274.706 268.847 274.688C268.989 274.678 269.13 274.659 269.27 274.657C269.648 274.652 270.031 274.657 270.403 274.657C293.391 274.657 316.379 274.657 339.368 274.657C339.886 274.657 340.405 274.605 340.921 274.705C340.986 274.729 341.044 274.767 341.093 274.816C341.141 274.865 341.178 274.924 341.2 274.989C341.207 275.036 341.224 275.081 341.227 275.127C341.236 275.266 341.246 275.407 341.246 275.547C341.246 277.233 341.246 278.919 341.246 280.606C341.246 280.793 341.224 280.979 341.211 281.165C341.195 281.256 341.153 281.341 341.091 281.409C341.028 281.477 340.947 281.526 340.857 281.55C340.716 281.565 340.576 281.594 340.436 281.596C340.011 281.602 339.587 281.596 339.161 281.596L304.745 281.597Z" fill="white"/>
<path d="M391.129 305.332V313.474C391.129 313.709 391.119 313.942 391.116 314.176C391.116 314.369 390.957 314.559 390.789 314.567C390.696 314.573 390.603 314.597 390.51 314.597C388.859 314.597 387.209 314.596 385.559 314.592C385.297 314.592 385.155 314.437 385.142 314.148C385.132 313.915 385.129 313.68 385.121 313.446C385.121 313.4 385.129 313.33 385.102 313.312C385.031 313.262 384.951 313.225 384.866 313.204C384.819 313.2 384.772 313.214 384.735 313.245C384.508 313.411 384.29 313.589 384.06 313.751C382.827 314.631 381.354 315.12 379.835 315.153C379.509 315.162 379.175 315.162 378.846 315.153C376.337 315.093 373.528 313.705 372.442 310.298C372.154 309.397 372.068 308.465 372.017 307.534C372.004 307.301 372.01 307.065 372.01 306.831C372.01 303.603 372.01 300.374 372.01 297.145C372.01 296.864 372.017 296.583 372.041 296.304C372.053 296.211 372.098 296.126 372.168 296.063C372.241 296.003 372.332 295.969 372.426 295.966C374.124 295.96 375.822 295.96 377.519 295.966C377.565 295.972 377.611 295.98 377.656 295.992C377.756 296.001 377.95 296.166 377.954 296.254C377.968 296.577 377.991 296.906 377.992 297.233C377.992 299.806 377.992 302.379 377.992 304.954C377.992 305.328 377.981 305.703 377.999 306.077C378.011 306.451 378.047 306.823 378.107 307.193C378.225 307.891 378.574 308.531 379.098 309.011C379.608 309.51 380.293 309.793 381.008 309.801C381.198 309.801 381.387 309.809 381.575 309.801C382.741 309.737 383.641 309.212 384.272 308.242C384.58 307.769 384.791 307.239 384.893 306.684C385.042 305.951 385.122 305.204 385.132 304.456C385.121 302.116 385.132 299.776 385.132 297.436C385.132 297.016 385.099 296.592 385.182 296.177C385.196 296.104 385.304 296.03 385.385 295.995C385.475 295.966 385.57 295.956 385.664 295.963C387.268 295.963 388.871 295.963 390.474 295.963C390.615 295.961 390.756 295.981 390.891 296.023C390.934 296.039 390.973 296.065 391.005 296.099C391.037 296.133 391.061 296.173 391.075 296.217C391.106 296.495 391.121 296.775 391.119 297.055C391.119 299.629 391.119 302.203 391.119 304.777L391.129 305.332Z" fill="white"/>
<path d="M210.126 305.231C210.126 302.518 210.126 299.805 210.126 297.09C210.126 296.809 210.143 296.529 210.153 296.248C210.153 296.159 210.345 295.989 210.441 295.983C210.538 295.976 210.628 295.957 210.722 295.957C212.373 295.957 214.023 295.959 215.673 295.963C215.942 295.963 216.091 296.114 216.108 296.389C216.115 296.576 216.114 296.764 216.121 296.95C216.119 297.044 216.13 297.138 216.152 297.229C216.171 297.27 216.202 297.305 216.241 297.33C216.279 297.355 216.324 297.368 216.37 297.368C216.417 297.367 216.463 297.35 216.499 297.319C216.688 297.182 216.873 297.038 217.06 296.899C218.023 296.186 219.109 295.757 220.276 295.513C220.461 295.477 220.648 295.452 220.836 295.439C221.447 295.393 222.061 295.385 222.673 295.416C223.38 295.459 224.075 295.614 224.733 295.875C226.211 296.411 227.439 297.467 228.184 298.843C228.72 299.783 229.047 300.826 229.142 301.902C229.177 302.321 229.201 302.742 229.201 303.163C229.205 306.766 229.205 310.37 229.201 313.973C229.208 314.113 229.192 314.253 229.155 314.388C229.111 314.471 229.038 314.535 228.949 314.567C228.859 314.595 228.764 314.606 228.67 314.598C227.067 314.598 225.463 314.598 223.86 314.598C223.719 314.598 223.58 314.572 223.449 314.521C223.406 314.501 223.369 314.473 223.339 314.438C223.309 314.402 223.287 314.361 223.276 314.316C223.249 314.037 223.236 313.757 223.239 313.476C223.239 310.716 223.239 307.956 223.239 305.195C223.239 304.773 223.232 304.352 223.218 303.931C223.196 303.463 223.079 303.003 222.876 302.58C222.699 302.169 222.434 301.802 222.097 301.505C221.761 301.209 221.363 300.99 220.931 300.864C220.797 300.821 220.657 300.795 220.516 300.786C220.234 300.764 219.951 300.759 219.669 300.769C218.505 300.834 217.603 301.361 216.971 302.329C216.738 302.683 216.565 303.071 216.457 303.479C216.29 304.113 216.141 304.752 216.131 305.414C216.131 305.928 216.119 306.443 216.119 306.957C216.119 309.203 216.119 311.449 216.119 313.695C216.12 313.927 216.101 314.159 216.062 314.387C216.05 314.457 215.944 314.529 215.864 314.564C215.774 314.594 215.679 314.605 215.585 314.598C213.935 314.598 212.285 314.598 210.634 314.598C210.54 314.605 210.445 314.589 210.358 314.553C210.279 314.513 210.18 314.43 210.172 314.357C210.144 314.078 210.132 313.798 210.135 313.517C210.128 310.755 210.125 307.993 210.126 305.231Z" fill="white"/>
<path d="M278.28 268.107C275.407 268.107 272.532 268.107 269.656 268.107C269.423 268.107 269.19 268.087 268.96 268.049C268.874 268.017 268.804 267.953 268.763 267.871C268.718 267.789 268.693 267.697 268.691 267.604C268.679 267.323 268.678 267.043 268.678 266.762C268.678 261.759 268.678 256.755 268.678 251.751C268.678 251.427 268.703 251.097 268.714 250.771C268.714 250.684 268.897 250.478 268.975 250.476C269.209 250.467 269.445 250.454 269.68 250.453C271.142 250.453 272.602 250.453 274.064 250.453C274.248 250.453 274.433 250.421 274.618 250.404C274.643 250.317 274.703 250.223 274.685 250.147C274.633 249.914 274.454 249.746 274.327 249.55C274.122 249.236 273.904 248.932 273.697 248.619C273.57 248.427 273.633 248.296 273.884 248.213C273.929 248.199 273.974 248.187 274.019 248.172C274.105 248.134 274.202 248.126 274.294 248.148C274.385 248.171 274.466 248.224 274.525 248.298C274.727 248.555 274.914 248.824 275.099 249.095C278.085 253.467 281.072 257.84 284.058 262.214C285.273 263.994 286.488 265.775 287.702 267.555C287.746 267.61 287.777 267.673 287.793 267.74C287.81 267.807 287.813 267.877 287.8 267.945C287.791 267.989 287.77 268.066 287.747 268.069C287.561 268.097 287.374 268.113 287.186 268.117C284.736 268.117 282.286 268.117 279.834 268.117H278.279L278.28 268.107Z" fill="white"/>
<path d="M349.085 315.153C347.84 315.215 346.547 314.966 345.302 314.499C343.257 313.729 341.605 312.462 340.429 310.61C339.559 309.263 339.06 307.713 338.981 306.115C338.947 305.554 338.947 304.992 338.981 304.431C339.183 301.675 340.354 299.404 342.514 297.651C343.738 296.657 345.141 296.033 346.682 295.663C348.035 295.339 349.392 295.367 350.76 295.475C353.066 295.851 355.076 296.796 356.668 298.523C357.601 299.524 358.284 300.728 358.661 302.04C358.748 302.344 358.713 302.593 358.35 302.687C357.618 302.864 356.886 303.042 356.153 303.214C355.283 303.42 354.413 303.622 353.543 303.825C353.475 303.84 353.404 303.834 353.339 303.808C353.274 303.782 353.219 303.737 353.18 303.679C353.071 303.422 352.962 303.161 352.854 302.905C352.628 302.387 352.295 301.924 351.875 301.544C351.456 301.163 350.946 300.894 350.394 300.761C350.164 300.706 349.933 300.662 349.7 300.624C349.56 300.6 349.419 300.589 349.277 300.59C347.497 300.621 345.912 301.387 345.129 303.217C344.884 303.776 344.745 304.375 344.72 304.985C344.685 305.641 344.766 306.298 344.959 306.926C345.177 307.647 345.578 308.3 346.124 308.822C346.638 309.309 347.274 309.651 347.967 309.811C348.151 309.853 348.334 309.9 348.519 309.931C349.363 310.067 350.228 309.955 351.007 309.607C351.824 309.263 352.398 308.655 352.818 307.898C352.999 307.575 353.133 307.221 353.302 306.888C353.329 306.85 353.367 306.82 353.41 306.801C353.453 306.782 353.5 306.775 353.547 306.78C353.835 306.772 354.099 306.888 354.374 306.947C355.759 307.226 357.143 307.516 358.517 307.849C358.583 307.869 358.641 307.91 358.681 307.966C358.722 308.022 358.742 308.09 358.74 308.158C358.139 310.727 356.623 312.618 354.341 313.904C352.944 314.703 351.366 315.137 349.753 315.163C349.559 315.157 349.37 315.153 349.085 315.153Z" fill="white"/>
<path d="M216.747 249.637C218.002 249.615 219.274 249.591 220.553 249.57C220.788 249.57 221.024 249.57 221.26 249.588C221.496 249.604 221.72 249.697 221.899 249.851C222.195 250.091 222.389 250.432 222.443 250.808C222.471 250.993 222.483 251.18 222.48 251.366C222.48 253.753 222.48 256.139 222.48 258.525C222.483 258.713 222.471 258.9 222.444 259.085C222.394 259.46 222.205 259.804 221.914 260.049C221.736 260.203 221.514 260.3 221.279 260.325C221.092 260.341 220.904 260.352 220.716 260.359L214.072 260.606C213.789 260.617 213.506 260.627 213.225 260.66C212.288 260.768 211.347 260.826 210.405 260.883C210.079 260.902 209.753 260.942 209.42 260.977C209.233 260.998 209.047 261.037 208.859 261.051C207.354 261.159 205.861 261.374 204.363 261.546C204.175 261.565 203.985 261.546 203.804 261.49C203.619 261.448 203.45 261.357 203.312 261.228C203.175 261.099 203.075 260.936 203.022 260.755C202.966 260.577 202.928 260.394 202.908 260.208C202.886 259.976 202.895 259.741 202.894 259.507C202.883 257.447 202.872 255.388 202.862 253.33C202.862 253.097 202.862 252.863 202.862 252.629C202.87 252.347 202.937 252.07 203.059 251.815C203.141 251.621 203.262 251.444 203.415 251.297C203.568 251.15 203.749 251.036 203.948 250.96C204.212 250.861 204.489 250.795 204.771 250.766C206.127 250.598 207.483 250.426 208.839 250.258C209.026 250.234 209.213 250.218 209.401 250.201C209.542 250.188 209.683 250.183 209.824 250.17C210.763 250.084 211.701 249.987 212.64 249.912C213.579 249.838 214.521 249.783 215.467 249.72L216.747 249.637Z" fill="white"/>
<path d="M243.73 256.679C243.72 257.758 243.71 258.834 243.7 259.907C243.7 260.14 243.691 260.374 243.678 260.607C243.67 260.7 243.653 260.793 243.629 260.883C243.485 261.489 243.053 261.787 242.517 261.768C241.906 261.74 241.296 261.677 240.692 261.581C240.225 261.51 239.76 261.445 239.291 261.402C238.965 261.37 238.639 261.323 238.312 261.285C237.892 261.236 237.471 261.184 237.05 261.141C235.55 260.988 234.049 260.858 232.545 260.742C231.605 260.669 230.666 260.6 229.724 260.564C228.453 260.514 227.181 260.46 225.91 260.402C225.723 260.394 225.535 260.374 225.349 260.352C224.821 260.29 224.37 259.83 224.261 259.373C224.224 259.238 224.195 259.101 224.174 258.963C224.159 258.823 224.153 258.682 224.156 258.542C224.156 256.205 224.156 253.867 224.156 251.53C224.155 251.296 224.169 251.063 224.199 250.832C224.225 250.621 224.297 250.419 224.409 250.239C224.522 250.059 224.673 249.906 224.852 249.79C224.965 249.706 225.097 249.651 225.237 249.629C225.424 249.604 225.612 249.594 225.801 249.599C227.215 249.621 228.628 249.63 230.036 249.778C230.458 249.822 230.882 249.841 231.306 249.863C232.2 249.909 233.094 249.948 233.982 250.079C234.309 250.127 234.635 250.141 234.968 250.164C235.486 250.19 236.002 250.246 236.513 250.332C236.698 250.367 236.886 250.387 237.073 250.405C238.433 250.533 239.785 250.728 241.133 250.944C241.505 251.004 241.883 251.029 242.252 251.1C242.579 251.157 242.884 251.301 243.134 251.517C243.511 251.847 243.678 252.272 243.736 252.75C243.757 252.983 243.764 253.216 243.756 253.45C243.756 254.529 243.756 255.604 243.756 256.677L243.73 256.679Z" fill="white"/>
<path d="M218.951 262.28H225.139C225.375 262.28 225.611 262.287 225.844 262.304C226.177 262.336 226.485 262.49 226.709 262.736C226.846 262.865 226.956 263.019 227.033 263.191C227.11 263.362 227.151 263.547 227.156 263.734C227.162 264.015 227.168 264.295 227.168 264.576C227.168 266.726 227.165 268.876 227.16 271.026C227.16 271.307 227.16 271.587 227.14 271.868C227.107 272.196 226.959 272.502 226.722 272.733C226.485 272.964 226.173 273.104 225.841 273.13C225.606 273.145 225.37 273.143 225.136 273.137C221.743 273.063 218.351 273.137 214.963 273.27C213.082 273.343 211.202 273.486 209.325 273.641C209.185 273.654 209.044 273.66 208.903 273.658C208.296 273.645 207.697 273.109 207.646 272.531C207.63 272.344 207.619 272.158 207.619 271.971C207.612 269.587 207.606 267.203 207.602 264.819C207.602 264.678 207.602 264.538 207.614 264.399C207.65 263.664 208.308 262.97 209.051 262.889C209.332 262.857 209.614 262.849 209.896 262.825C210.506 262.773 211.116 262.717 211.726 262.668C212.289 262.624 212.853 262.586 213.417 262.553C214.452 262.493 215.483 262.435 216.521 262.385C217.366 262.339 218.213 262.309 218.951 262.28Z" fill="white"/>
<path d="M248.067 269.941C248.067 271.206 248.067 272.471 248.067 273.736C248.061 274.019 247.962 274.293 247.784 274.514C247.69 274.649 247.563 274.76 247.415 274.835C247.268 274.91 247.104 274.948 246.938 274.946C246.466 274.936 245.995 274.888 245.531 274.803C244.413 274.626 243.294 274.457 242.169 274.336C241.843 274.301 241.516 274.254 241.19 274.214C240.815 274.168 240.441 274.12 240.066 274.077C239.504 274.012 238.941 273.951 238.378 273.887C238.331 273.887 238.286 273.871 238.238 273.868C236.824 273.749 235.417 273.622 234.006 273.516C232.641 273.415 231.274 273.337 229.91 273.247C229.503 273.22 229.2 272.999 228.964 272.695C228.756 272.437 228.633 272.121 228.612 271.791C228.603 271.604 228.602 271.416 228.602 271.229C228.602 268.934 228.604 266.638 228.609 264.342C228.604 264.155 228.61 263.968 228.628 263.781C228.669 263.405 228.845 263.057 229.124 262.798C229.296 262.637 229.517 262.536 229.753 262.513C229.847 262.5 229.941 262.495 230.036 262.496C231.167 262.54 232.301 262.548 233.427 262.692C233.848 262.746 234.272 262.775 234.696 262.799C235.403 262.844 236.11 262.888 236.809 263.001C237.135 263.054 237.462 263.063 237.795 263.098C238.264 263.15 238.733 263.206 239.2 263.266C239.387 263.288 239.574 263.321 239.761 263.339C241.077 263.466 242.383 263.663 243.686 263.878C244.523 264.016 245.363 264.136 246.204 264.259C246.533 264.296 246.853 264.389 247.151 264.532C247.382 264.652 247.583 264.821 247.74 265.027C247.897 265.234 248.006 265.472 248.058 265.725C248.093 265.909 248.106 266.097 248.097 266.284C248.097 267.034 248.097 267.784 248.097 268.533C248.097 269.002 248.097 269.47 248.097 269.936L248.067 269.941Z" fill="white"/>
<path d="M206.112 268.691C206.112 269.908 206.112 271.126 206.112 272.344C206.112 272.674 206.025 272.999 205.861 273.285C205.619 273.717 205.259 274.01 204.755 274.075C203.865 274.19 202.969 274.258 202.085 274.398C201.107 274.559 200.12 274.645 199.143 274.817C198.401 274.946 197.652 275.052 196.906 275.162C195.086 275.432 193.282 275.792 191.469 276.124C190.402 276.32 189.349 276.575 188.288 276.8C188.149 276.825 188.008 276.839 187.867 276.841C187.422 276.858 186.916 276.437 186.863 276.006C186.837 275.821 186.821 275.634 186.816 275.447C186.798 273.151 186.783 270.855 186.77 268.559C186.771 268.372 186.783 268.185 186.804 267.999C186.842 267.623 187.005 267.27 187.268 266.996C187.482 266.744 187.768 266.562 188.089 266.474C188.776 266.303 189.456 266.111 190.147 265.96C191.851 265.586 193.553 265.205 195.266 264.881C196.562 264.635 197.858 264.371 199.167 264.193C200.055 264.073 200.935 263.896 201.82 263.762C202.613 263.641 203.409 263.536 204.203 263.438C204.438 263.412 204.673 263.401 204.909 263.407C205.323 263.407 205.621 263.631 205.837 263.962C205.966 264.16 206.045 264.386 206.066 264.62C206.089 264.853 206.088 265.088 206.088 265.323C206.088 266.447 206.088 267.571 206.088 268.696L206.112 268.691Z" fill="white"/>
<path d="M201.178 256.698C201.178 257.777 201.178 258.856 201.178 259.926C201.178 260.206 201.169 260.487 201.148 260.766C201.108 261.117 200.958 261.446 200.718 261.707C200.478 261.967 200.161 262.146 199.812 262.216C198.745 262.399 197.679 262.594 196.613 262.788C194.946 263.092 193.287 263.435 191.633 263.809C189.613 264.261 187.6 264.748 185.605 265.303C185.468 265.338 185.326 265.347 185.186 265.329C185.068 265.315 185.009 265.28 185 265.159C184.994 265.067 184.96 264.977 184.96 264.885C184.96 261.844 184.96 258.803 184.96 255.763C184.96 255.669 184.975 255.576 184.978 255.483C184.978 255.325 185.087 255.233 185.204 255.151C185.28 255.096 185.365 255.055 185.456 255.028C187.623 254.394 189.798 253.785 191.993 253.249C193.913 252.78 195.845 252.359 197.781 251.955C198.38 251.831 198.977 251.721 199.584 251.611C199.724 251.589 199.866 251.58 200.007 251.581C200.173 251.577 200.337 251.612 200.486 251.683C200.636 251.754 200.766 251.859 200.866 251.99C200.994 252.129 201.076 252.303 201.102 252.49C201.13 252.768 201.151 253.049 201.153 253.329C201.153 254.451 201.153 255.574 201.153 256.697L201.178 256.698Z" fill="white"/>
<path d="M367.931 301.268C367.931 305.244 367.931 309.221 367.931 313.199C367.931 313.573 367.917 313.947 367.907 314.321C367.907 314.401 367.701 314.573 367.609 314.577C367.469 314.583 367.327 314.605 367.187 314.605C365.537 314.598 363.887 314.588 362.237 314.577C362.136 314.577 361.972 314.402 361.965 314.3C361.959 314.197 361.947 314.113 361.946 314.019C361.946 313.695 361.946 313.364 361.946 313.037C361.946 305.176 361.946 297.315 361.946 289.455C361.946 288.988 361.906 288.519 361.993 288.053C362.007 287.979 362.112 287.903 362.193 287.867C362.282 287.838 362.377 287.827 362.471 287.835C364.121 287.835 365.771 287.835 367.422 287.835C367.516 287.828 367.611 287.842 367.699 287.876C367.786 287.914 367.853 287.985 367.887 288.073C367.921 288.257 367.935 288.444 367.931 288.631C367.931 289.94 367.931 291.25 367.931 292.561V301.268Z" fill="white"/>
<path d="M257.459 305.314C257.459 302.553 257.459 299.792 257.459 297.031C257.458 296.752 257.475 296.473 257.51 296.196C257.52 296.125 257.619 296.047 257.702 296.008C257.789 295.972 257.883 295.955 257.978 295.96C259.675 295.96 261.372 295.963 263.07 295.968C263.162 295.973 263.25 296.011 263.316 296.075C263.382 296.139 263.422 296.225 263.429 296.317C263.435 296.597 263.446 296.877 263.449 297.157C263.449 297.673 263.457 298.187 263.449 298.702C263.443 298.747 263.45 298.792 263.469 298.833C263.488 298.873 263.519 298.907 263.558 298.931C263.675 299.005 263.776 298.976 263.911 298.823C264.183 298.499 264.445 298.169 264.734 297.861C265.375 297.17 266.157 296.623 267.028 296.255C267.804 295.91 268.642 295.722 269.493 295.702C270.01 295.702 270.533 295.645 271.038 295.797C271.082 295.814 271.122 295.839 271.155 295.872C271.188 295.905 271.214 295.945 271.231 295.988C271.273 296.121 271.292 296.261 271.286 296.401C271.27 297.009 271.248 297.618 271.218 298.225C271.17 299.207 271.118 300.188 271.061 301.168C271.056 301.308 271.03 301.446 270.982 301.577C270.962 301.619 270.934 301.656 270.9 301.686C270.865 301.716 270.824 301.739 270.779 301.752C270.595 301.788 270.408 301.805 270.221 301.804C269.654 301.803 269.089 301.832 268.525 301.889C267.87 301.967 267.231 302.149 266.633 302.428C265.638 302.877 264.825 303.647 264.327 304.613C264.036 305.15 263.831 305.728 263.717 306.327C263.547 307.153 263.458 307.993 263.449 308.835C263.466 310.379 263.449 311.924 263.449 313.469C263.449 313.748 263.434 314.028 263.424 314.309C263.405 314.374 263.369 314.433 263.319 314.48C263.27 314.528 263.209 314.562 263.143 314.579C263.001 314.586 262.861 314.601 262.72 314.601C261.211 314.601 259.702 314.601 258.193 314.601C258.053 314.601 257.913 314.575 257.771 314.566C257.68 314.56 257.483 314.382 257.482 314.299C257.473 313.976 257.459 313.646 257.459 313.318C257.458 310.65 257.458 307.982 257.459 305.314Z" fill="white"/>
<path d="M260.68 260.553C260.68 262.049 260.68 263.545 260.68 265.042C260.686 265.136 260.679 265.23 260.66 265.321C260.642 265.412 260.597 265.495 260.531 265.56C260.456 265.613 260.362 265.635 260.27 265.619C259.768 265.496 259.269 265.36 258.77 265.224C256.317 264.556 253.333 263.839 250.949 263.343C249.613 263.065 248.273 262.804 246.933 262.549C246.389 262.441 246 262.136 245.719 261.67C245.621 261.51 245.559 261.331 245.539 261.144C245.515 260.912 245.504 260.679 245.505 260.445C245.511 258.107 245.52 255.769 245.53 253.433C245.531 253.246 245.542 253.06 245.566 252.874C245.631 252.363 246.173 251.847 246.775 251.927C247.287 251.994 247.794 252.109 248.297 252.22C252.212 253.067 256.079 254.06 259.9 255.24C260.081 255.291 260.256 255.363 260.419 255.456C260.481 255.49 260.534 255.537 260.575 255.595C260.615 255.652 260.642 255.718 260.653 255.787C260.677 256.019 260.686 256.253 260.679 256.486C260.679 257.843 260.679 259.199 260.679 260.555L260.68 260.553Z" fill="white"/>
<path d="M227.14 281.689C224.267 281.689 221.395 281.689 218.523 281.689C218.241 281.689 217.959 281.674 217.677 281.665C217.581 281.665 217.415 281.487 217.409 281.385C217.4 281.246 217.373 281.107 217.372 280.967C217.364 279.52 217.358 278.071 217.356 276.622C217.355 276.389 217.372 276.156 217.407 275.925C217.435 275.692 217.521 275.469 217.655 275.276C217.79 275.083 217.971 274.925 218.181 274.817C218.344 274.722 218.526 274.667 218.715 274.655C219.041 274.643 219.374 274.634 219.703 274.634C221.681 274.634 223.659 274.634 225.636 274.64C227.143 274.65 228.649 274.684 230.153 274.807C230.715 274.854 231.28 274.881 231.845 274.892C233.071 274.915 234.287 275.05 235.506 275.162C235.962 275.203 236.295 275.434 236.561 275.788C236.675 275.937 236.753 276.111 236.788 276.295C236.829 276.477 236.853 276.663 236.859 276.85C236.852 278.345 236.838 279.839 236.826 281.334C236.818 281.425 236.776 281.51 236.709 281.573C236.642 281.635 236.554 281.671 236.462 281.674C236.18 281.674 235.897 281.689 235.615 281.689C232.79 281.69 229.965 281.69 227.14 281.689Z" fill="white"/>
<path d="M407.018 281.596C404.709 281.596 402.401 281.596 400.093 281.596C399.669 281.596 399.245 281.59 398.822 281.589C398.342 281.589 398.269 281.32 398.249 280.961C398.249 280.915 398.243 280.868 398.243 280.821C398.243 279.045 398.243 277.269 398.243 275.492C398.243 275.352 398.261 275.212 398.269 275.073C398.281 274.892 398.45 274.7 398.612 274.69C398.847 274.675 399.08 274.652 399.315 274.652C404.498 274.652 409.681 274.652 414.865 274.652C415.1 274.652 415.333 274.677 415.568 274.692C415.636 274.708 415.699 274.739 415.751 274.785C415.803 274.83 415.844 274.887 415.868 274.951C415.898 275.04 415.92 275.13 415.937 275.222C415.959 275.407 415.971 275.594 415.973 275.781C415.973 277.418 415.973 279.054 415.973 280.689C415.973 280.828 415.955 280.969 415.946 281.108C415.928 281.333 415.706 281.571 415.5 281.576C415.124 281.586 414.746 281.595 414.37 281.596C411.918 281.598 409.468 281.598 407.018 281.596Z" fill="white"/>
<path d="M206.229 281.69C203.356 281.69 200.482 281.69 197.608 281.69C197.326 281.69 197.039 281.716 196.766 281.633C196.723 281.614 196.685 281.587 196.654 281.551C196.623 281.516 196.601 281.475 196.588 281.43C196.56 281.245 196.549 281.058 196.553 280.871C196.553 279.983 196.553 279.095 196.548 278.206C196.546 277.949 196.601 277.693 196.709 277.459C196.816 277.224 196.974 277.015 197.171 276.847C197.308 276.718 197.474 276.622 197.655 276.569C198.017 276.465 198.386 276.388 198.76 276.34C199.973 276.18 201.184 276.008 202.398 275.845C202.677 275.807 202.959 275.787 203.241 275.755L204.503 275.611C204.924 275.564 205.346 275.517 205.767 275.475C207.266 275.326 208.769 275.212 210.27 275.074C211.683 274.944 213.09 274.906 214.5 274.837C214.595 274.835 214.689 274.839 214.783 274.849C214.996 274.861 215.202 274.929 215.378 275.048C215.554 275.168 215.694 275.332 215.783 275.525C215.918 275.773 215.992 276.049 216 276.332C216.008 276.845 216.009 277.36 216.008 277.874C216.008 278.995 216.004 280.117 215.998 281.239C215.997 281.354 215.952 281.465 215.871 281.548C215.789 281.63 215.679 281.679 215.563 281.682C215.422 281.682 215.28 281.689 215.14 281.69H206.229V281.69Z" fill="white"/>
<path d="M296.652 305.13C296.652 302.461 296.652 299.791 296.652 297.121C296.652 296.84 296.67 296.559 296.68 296.278C296.68 296.195 296.873 296.008 296.958 295.997C297.002 295.982 297.048 295.97 297.094 295.961C298.793 295.961 300.492 295.961 302.191 295.961C302.286 295.96 302.379 295.983 302.462 296.028C302.541 296.076 302.604 296.146 302.644 296.229C302.675 296.316 302.689 296.409 302.685 296.503C302.685 296.826 302.692 297.157 302.692 297.485C302.692 302.779 302.692 308.071 302.692 313.364C302.692 313.688 302.736 314.02 302.635 314.335C302.598 314.418 302.532 314.486 302.45 314.527C302.367 314.571 302.274 314.594 302.179 314.593C300.481 314.593 298.782 314.593 297.083 314.593C296.851 314.593 296.671 314.377 296.664 314.122C296.664 313.982 296.655 313.842 296.653 313.702C296.653 313.378 296.653 313.046 296.653 312.718V305.13H296.652Z" fill="white"/>
<path d="M260.681 272.694C260.681 274.141 260.681 275.59 260.681 277.038C260.681 277.177 260.663 277.317 260.653 277.457C260.653 277.542 260.436 277.696 260.342 277.683C260.203 277.664 260.062 277.657 259.927 277.625C257.97 277.139 255.995 276.69 254.013 276.295C252.998 276.093 251.988 275.875 250.968 275.699C250.687 275.656 250.421 275.543 250.195 275.371C249.969 275.199 249.79 274.974 249.674 274.716C249.588 274.551 249.534 274.37 249.515 274.185C249.506 274.044 249.498 273.904 249.499 273.765C249.504 271.382 249.511 268.999 249.52 266.618C249.523 266.431 249.536 266.245 249.56 266.06C249.61 265.642 250.067 265.207 250.515 265.148C250.607 265.129 250.702 265.126 250.795 265.138C251.665 265.319 252.544 265.501 253.416 265.694C254.69 265.975 258.789 267.008 260.114 267.377C260.206 267.4 260.294 267.437 260.375 267.485C260.439 267.516 260.495 267.56 260.54 267.614C260.584 267.668 260.616 267.731 260.634 267.799C260.662 267.982 260.678 268.167 260.681 268.353C260.681 269.801 260.681 271.249 260.681 272.697V272.694Z" fill="white"/>
<path d="M247.891 281.69C245.011 281.69 242.132 281.69 239.253 281.69C239.018 281.69 238.781 281.715 238.551 281.636C238.506 281.624 238.465 281.601 238.431 281.569C238.397 281.538 238.371 281.498 238.357 281.454C238.323 281.369 238.303 281.279 238.297 281.187C238.297 279.785 238.297 278.376 238.315 276.972C238.327 276.785 238.361 276.6 238.416 276.421C238.571 275.819 239.211 275.481 239.705 275.531C240.127 275.575 240.544 275.665 240.967 275.693C242.055 275.764 243.119 275.967 244.199 276.084C245.089 276.18 245.97 276.349 246.857 276.486C247.602 276.602 248.348 276.716 249.091 276.842C250.997 277.166 252.897 277.51 254.789 277.921C255.297 278.029 255.811 278.102 256.311 278.252C256.585 278.328 256.835 278.47 257.04 278.665C257.245 278.861 257.398 279.104 257.485 279.372C257.54 279.502 257.579 279.638 257.599 279.777C257.657 280.336 257.647 280.899 257.571 281.455C257.559 281.526 257.453 281.607 257.374 281.637C257.15 281.723 256.91 281.697 256.674 281.697H247.893L247.891 281.69Z" fill="white"/>
<path d="M361.853 275.906C361.853 277.402 361.853 278.898 361.853 280.395C361.853 280.629 361.838 280.862 361.828 281.095C361.807 281.16 361.771 281.219 361.723 281.269C361.675 281.318 361.616 281.355 361.551 281.378C360.942 281.434 360.33 281.439 359.72 281.393C359.578 281.38 359.447 281.311 359.356 281.203C359.066 280.894 358.782 280.582 358.504 280.266C357.23 278.828 355.956 277.386 354.684 275.94C354.499 275.731 354.334 275.498 354.089 275.348C354.053 275.325 354.01 275.315 353.968 275.319C353.921 275.322 353.877 275.342 353.845 275.376C353.814 275.411 353.797 275.456 353.798 275.502C353.791 276.531 353.787 277.559 353.779 278.589C353.779 279.43 353.765 280.272 353.758 281.113C353.739 281.178 353.703 281.237 353.655 281.285C353.607 281.333 353.547 281.368 353.481 281.387C352.777 281.432 352.07 281.434 351.365 281.393C351.272 281.386 351.185 281.347 351.117 281.283C351.05 281.218 351.008 281.133 350.997 281.041C350.997 280.994 350.988 280.948 350.987 280.902C350.987 280.761 350.981 280.621 350.981 280.481C350.981 277.347 350.981 274.213 350.981 271.08C350.981 270.848 350.951 270.61 351.052 270.393C351.097 270.314 351.166 270.251 351.25 270.215C351.338 270.181 351.431 270.165 351.525 270.168C351.997 270.168 352.468 270.168 352.939 270.168C353.056 270.165 353.173 270.19 353.279 270.24C353.385 270.29 353.478 270.364 353.551 270.456C354.618 271.704 355.687 272.95 356.757 274.195C357.369 274.907 357.981 275.618 358.593 276.329C358.656 276.403 358.728 276.478 358.824 276.473C358.909 276.454 358.99 276.421 359.064 276.376C359.071 276.143 359.082 275.909 359.082 275.675C359.082 274.179 359.082 272.682 359.082 271.185C359.082 270.953 359.105 270.72 359.115 270.487C359.115 270.393 359.292 270.191 359.372 270.187C360.077 270.146 360.785 270.146 361.49 270.187C361.581 270.206 361.663 270.254 361.723 270.324C361.784 270.394 361.819 270.482 361.823 270.574C361.834 270.854 361.849 271.134 361.849 271.415C361.855 272.912 361.853 274.408 361.853 275.906Z" fill="white"/>
<path d="M368.488 281.654C367.755 281.7 367.02 281.602 366.326 281.365C365.692 281.176 365.107 280.851 364.615 280.412C364.079 279.945 363.711 279.318 363.565 278.626C363.534 278.471 363.59 278.315 363.708 278.278C363.886 278.214 364.067 278.159 364.251 278.114C364.851 277.995 365.453 277.887 366.054 277.776C366.124 277.779 366.193 277.796 366.256 277.826C366.319 277.856 366.375 277.898 366.422 277.95C366.486 278.076 366.531 278.209 366.604 278.33C366.729 278.557 366.899 278.756 367.103 278.916C367.307 279.076 367.541 279.194 367.792 279.262C368.452 279.45 369.097 279.445 369.709 279.104C369.83 279.031 369.94 278.941 370.035 278.836C370.3 278.558 370.314 277.945 370.063 277.667C370.004 277.593 369.93 277.532 369.846 277.487C369.638 277.377 369.419 277.289 369.194 277.224C368.65 277.093 368.088 276.996 367.536 276.875C367.122 276.784 366.709 276.691 366.301 276.577C365.939 276.473 365.592 276.323 365.269 276.129C364.941 275.942 364.652 275.695 364.417 275.401C364.176 275.111 364.009 274.767 363.93 274.4C363.894 274.217 363.853 274.033 363.821 273.849C363.776 273.571 363.782 273.288 363.837 273.012C363.912 272.645 363.977 272.281 364.163 271.942C364.427 271.442 364.817 271.019 365.293 270.712C365.724 270.423 366.206 270.219 366.714 270.111C367.316 269.992 367.916 269.863 368.535 269.909C369.29 269.966 370.031 270.094 370.726 270.41C371.813 270.906 372.556 271.704 372.892 272.855C372.914 272.92 372.912 272.99 372.886 273.053C372.859 273.116 372.81 273.167 372.748 273.196C372.028 273.427 371.28 273.526 370.541 273.663C370.471 273.673 370.4 273.66 370.338 273.626C370.276 273.592 370.227 273.539 370.198 273.474C370.105 273.312 370.015 273.151 369.908 272.992C369.697 272.678 369.388 272.442 369.027 272.322C368.895 272.273 368.76 272.231 368.623 272.195C368.079 272.076 367.596 272.213 367.155 272.524C366.803 272.772 366.684 273.211 366.828 273.652C366.871 273.789 366.963 273.904 367.087 273.976C367.288 274.097 367.504 274.191 367.729 274.258C368.273 274.397 368.833 274.5 369.383 274.626C369.796 274.719 370.21 274.81 370.616 274.93C371.023 275.049 371.41 275.229 371.763 275.464C372.241 275.769 372.619 276.206 372.85 276.721C372.872 276.762 372.891 276.805 372.908 276.849C373.257 278.09 373.186 279.256 372.281 280.269C371.998 280.585 371.659 280.846 371.279 281.037C370.612 281.39 369.876 281.6 369.122 281.653C368.885 281.665 368.649 281.654 368.488 281.654Z" fill="white"/>
<path d="M390.336 270.163C391.797 270.163 393.258 270.163 394.72 270.163C394.86 270.162 394.998 270.186 395.13 270.233C395.172 270.251 395.209 270.279 395.239 270.314C395.269 270.349 395.291 270.39 395.303 270.434C395.377 271.037 395.384 271.646 395.324 272.25C395.328 272.297 395.316 272.344 395.292 272.385C395.23 272.452 395.158 272.544 395.074 272.556C394.842 272.59 394.607 272.607 394.372 272.609C393.572 272.623 392.77 272.629 391.97 272.64C391.904 272.659 391.844 272.695 391.797 272.744C391.75 272.794 391.716 272.855 391.7 272.921C391.692 273.06 391.677 273.201 391.676 273.341C391.676 273.715 391.676 274.089 391.676 274.464C391.676 276.38 391.676 278.298 391.676 280.217C391.676 280.498 391.665 280.778 391.658 281.058C391.658 281.218 391.458 281.382 391.273 281.396C391.226 281.396 391.179 281.409 391.133 281.409C390.52 281.409 389.908 281.409 389.296 281.397C389.036 281.397 388.897 281.233 388.894 280.94C388.888 280.519 388.886 280.097 388.885 279.677C388.885 277.712 388.885 275.747 388.885 273.782C388.885 273.503 388.871 273.222 388.861 272.942C388.847 272.875 388.816 272.813 388.77 272.762C388.724 272.711 388.666 272.673 388.6 272.652C388.224 272.637 387.848 272.622 387.471 272.611C386.813 272.594 386.151 272.65 385.495 272.568C385.415 272.559 385.34 272.468 385.277 272.402C385.252 272.362 385.24 272.315 385.243 272.268C385.186 271.664 385.186 271.055 385.243 270.451C385.265 270.386 385.303 270.328 385.353 270.281C385.403 270.235 385.464 270.202 385.53 270.184C385.765 270.174 386.001 270.158 386.236 270.157C387.603 270.157 388.97 270.157 390.337 270.157L390.336 270.163Z" fill="white"/>
<path d="M190.148 281.691C188.735 281.691 187.321 281.691 185.908 281.691C185.673 281.691 185.438 281.667 185.204 281.646C185.165 281.646 185.127 281.6 185.095 281.572C185.064 281.544 185.004 281.509 185 281.472C184.925 280.73 184.921 279.983 184.988 279.24C185.008 279.174 185.042 279.114 185.088 279.062C185.133 279.01 185.189 278.968 185.252 278.939C185.296 278.925 185.339 278.899 185.385 278.889C186.21 278.701 187.032 278.5 187.862 278.33C189.704 277.951 191.55 277.587 193.395 277.222C193.672 277.164 193.956 277.148 194.238 277.174C194.694 277.221 195.064 277.688 195.122 277.981C195.153 278.118 195.171 278.257 195.176 278.396C195.176 279.377 195.176 280.359 195.176 281.339C195.167 281.43 195.125 281.514 195.058 281.576C194.991 281.639 194.904 281.675 194.812 281.678C194.486 281.683 194.152 281.692 193.823 281.692C192.598 281.692 191.374 281.692 190.149 281.692L190.148 281.691Z" fill="white"/>
<path d="M299.666 293.742C298.688 293.742 297.818 293.436 297.123 292.726C296.585 292.19 296.269 291.473 296.238 290.717C296.23 290.578 296.238 290.438 296.238 290.298C296.231 288.895 297.289 287.601 298.521 287.234C298.877 287.112 299.25 287.043 299.626 287.031C300.781 287.041 301.733 287.477 302.453 288.372C302.845 288.846 303.077 289.43 303.118 290.041C303.137 290.274 303.14 290.508 303.126 290.741C303.024 292.025 302.348 292.915 301.182 293.438C300.589 293.704 300.297 293.739 299.666 293.742Z" fill="white"/>
<path d="M349.002 275.883C349.002 277.515 349.002 279.148 349.002 280.78C349.008 280.919 348.995 281.059 348.96 281.194C348.937 281.27 348.838 281.375 348.766 281.379C348.018 281.445 347.266 281.443 346.518 281.372C346.455 281.346 346.398 281.308 346.349 281.26C346.301 281.213 346.263 281.156 346.237 281.093C346.229 280.953 346.215 280.814 346.215 280.674C346.215 277.456 346.215 274.238 346.215 271.018C346.215 270.832 346.241 270.646 346.256 270.461C346.263 270.381 346.463 270.203 346.548 270.194C347.25 270.124 347.955 270.159 348.658 270.179C348.82 270.179 348.984 270.371 348.984 270.566C348.993 270.846 349.003 271.125 349.004 271.405C349.004 272.896 349.004 274.389 349.004 275.883H349.002Z" fill="white"/>
<path d="M184.895 272.235C184.906 270.791 184.919 269.348 184.933 267.905C184.928 267.861 184.939 267.817 184.964 267.78C184.989 267.744 185.026 267.717 185.069 267.705C185.112 267.689 185.16 267.686 185.205 267.696C185.251 267.707 185.293 267.73 185.325 267.763C185.359 267.796 185.409 267.818 185.426 267.857C185.493 267.98 185.543 268.11 185.576 268.245C185.618 268.474 185.641 268.706 185.645 268.939C185.665 271.174 185.679 273.411 185.697 275.647C185.704 276.02 185.63 276.391 185.48 276.733C185.427 276.863 185.33 276.971 185.204 277.035C185.113 277.079 184.987 277.035 184.972 276.979C184.933 276.798 184.913 276.613 184.911 276.427C184.911 275.03 184.911 273.633 184.911 272.235H184.895Z" fill="white"/>
<path d="M260.706 280.486C260.687 280.81 260.678 281.134 260.639 281.457C260.626 281.501 260.602 281.541 260.569 281.573C260.537 281.606 260.497 281.63 260.453 281.644C260.038 281.719 259.612 281.719 259.197 281.644C259.134 281.619 259.078 281.578 259.035 281.526C258.991 281.474 258.962 281.412 258.948 281.346C258.948 280.974 258.935 280.602 258.948 280.231C258.961 280.092 258.995 279.956 259.049 279.827C259.243 279.288 259.754 278.98 260.409 279.191C260.491 279.231 260.559 279.297 260.6 279.378C260.647 279.459 260.674 279.55 260.678 279.643C260.688 279.921 260.678 280.2 260.678 280.48L260.706 280.486Z" fill="white"/>
<path d="M325.171 230.007C325.23 229.999 325.29 229.999 325.349 230.007C325.39 230.077 325.648 230.007 325.586 230.065C325.661 230.267 326.295 229.889 325.349 230.241C326.235 230.065 325.113 230.359 320.88 231.833L320.586 231.57" fill="white"/>
<path d="M415.717 197.308C415.531 196.343 415.341 195.379 415.098 194.424C414.472 192.022 413.721 189.653 412.848 187.328C411.057 182.49 409.027 177.751 406.758 173.112C404.769 169.019 402.547 165.041 400.104 161.197C393.72 151.15 385.756 142.181 376.514 134.632C371.402 130.47 365.95 126.738 360.213 123.474C359.846 123.265 359.484 123.043 359.138 122.799C358.945 122.664 358.776 122.498 358.638 122.309C358.535 122.18 358.463 122.03 358.428 121.869C358.393 121.709 358.395 121.542 358.434 121.382C358.558 120.93 358.747 120.497 358.996 120.099C359.639 119.007 360.281 117.914 360.922 116.821C362.799 113.625 364.675 110.428 366.552 107.231C368.445 103.989 370.321 100.738 372.211 97.4936C373.769 94.8168 375.332 92.1432 376.901 89.4728C377.191 88.9895 377.447 88.4874 377.669 87.9701C377.864 87.466 377.937 86.9234 377.882 86.3862C377.827 85.8489 377.646 85.332 377.352 84.8772C377.222 84.6819 377.102 84.4791 376.958 84.2946C376.588 83.8056 376.117 83.4009 375.576 83.1079C375.327 82.9719 375.053 82.8872 374.771 82.8587C374.536 82.8381 374.3 82.8309 374.064 82.8372C373.589 82.8435 373.124 82.9749 372.717 83.218C372.473 83.3602 372.242 83.5241 372.028 83.7077C371.428 84.2398 370.922 84.8677 370.531 85.5654C368.719 88.6918 366.902 91.8149 365.08 94.9347C363.001 98.502 360.917 102.067 358.831 105.631C356.933 108.867 355.062 112.122 353.218 115.395C352.988 115.803 352.753 116.211 352.496 116.603C352.315 116.877 352.113 117.137 351.894 117.381C351.697 117.617 351.449 117.805 351.168 117.931C350.888 118.058 350.582 118.119 350.273 118.112C349.802 118.12 349.334 118.039 348.893 117.874C348.542 117.732 348.186 117.608 347.84 117.458C345.593 116.485 343.311 115.591 340.996 114.777C338.06 113.744 335.088 112.83 332.079 112.038C329.889 111.463 327.682 110.966 325.466 110.505C324.405 110.284 323.338 110.082 322.267 109.916C321.428 109.785 320.599 109.592 319.75 109.528C319.109 109.347 318.437 109.371 317.792 109.244C317.148 109.117 316.48 109.094 315.828 108.998C314.752 108.839 313.671 108.756 312.588 108.674C312.494 108.667 312.4 108.654 312.308 108.637C311.797 108.529 311.277 108.52 310.758 108.491C310.005 108.448 309.251 108.398 308.498 108.35C307.98 108.315 307.462 108.259 306.945 108.242C302.885 108.109 298.826 108.109 294.766 108.242C294.436 108.241 294.105 108.258 293.777 108.292C292.798 108.433 291.8 108.435 290.81 108.508C290.434 108.534 290.049 108.538 289.683 108.6C289.122 108.693 288.557 108.727 287.993 108.771C287.667 108.797 287.331 108.804 287.007 108.859C286.497 108.958 285.98 109.022 285.461 109.052C284.892 109.072 284.345 109.237 283.781 109.291C282.276 109.436 280.793 109.723 279.307 109.977C277.588 110.271 275.878 110.625 274.176 111.009C271.37 111.644 268.586 112.364 265.832 113.194C262.398 114.228 259.019 115.415 255.696 116.754C254.826 117.106 253.947 117.459 253.086 117.833C252.698 118.006 252.296 118.143 251.883 118.243C251.185 118.407 250.578 118.237 250.094 117.686C249.941 117.51 249.801 117.32 249.678 117.121C249.531 116.882 249.408 116.627 249.282 116.376C248.862 115.537 248.408 114.717 247.921 113.914C247.095 112.548 246.265 111.187 245.464 109.805C243.23 105.948 240.964 102.109 238.723 98.2617C236.457 94.3695 234.196 90.4732 231.941 86.573C231.681 86.1264 231.411 85.6863 231.152 85.2396C230.819 84.6716 230.397 84.1599 229.901 83.7239C229.281 83.1748 228.569 82.8458 227.719 82.8609C227.673 82.8609 227.625 82.8609 227.578 82.8609C226.881 82.8372 226.282 83.1015 225.752 83.5179C225.009 84.1053 224.441 84.8831 224.11 85.7672C224.075 85.8538 224.05 85.9443 224.035 86.0369C223.956 86.6464 223.947 87.2505 224.172 87.8384C224.363 88.3176 224.593 88.7805 224.86 89.2225C226.183 91.4923 227.504 93.7643 228.822 96.0384C230.119 98.2679 231.417 100.497 232.717 102.727C233.566 104.188 234.408 105.653 235.258 107.112C236.391 109.059 237.526 111.004 238.664 112.948C240.041 115.296 241.421 117.642 242.803 119.986C242.947 120.23 243.076 120.482 243.19 120.742C243.261 120.915 243.31 121.096 243.336 121.281C243.432 121.879 243.306 122.401 242.78 122.772C242.549 122.935 242.324 123.105 242.087 123.258C241.889 123.387 241.678 123.494 241.474 123.61C237.778 125.691 234.203 127.977 230.766 130.456C226.719 133.381 222.881 136.579 219.279 140.029C210.692 148.299 203.398 157.794 197.638 168.202C193.568 175.61 190.349 183.448 188.042 191.569C186.996 195.266 186.1 198.997 185.424 202.782C185.26 203.702 185.142 204.633 184.907 205.542C184.881 205.68 184.868 205.82 184.867 205.961C184.85 206.125 184.89 206.29 184.98 206.429C185.07 206.568 185.204 206.673 185.362 206.726C185.534 206.808 185.73 206.825 185.913 206.772C186.226 206.664 186.538 206.556 186.844 206.44C188.116 205.936 189.409 205.496 190.713 205.083C192.242 204.597 193.785 204.165 195.335 203.759C196.977 203.328 198.633 202.958 200.296 202.611C201.542 202.351 202.797 202.14 204.049 201.91C204.791 201.773 205.538 201.652 206.287 201.57C207.413 201.448 208.526 201.222 209.658 201.182C209.752 201.178 209.846 201.166 209.938 201.144C210.493 201.015 211.062 201.009 211.626 200.969C212.191 200.929 212.759 200.915 213.32 200.841C213.882 200.767 214.448 200.733 215.013 200.716C219.309 200.541 223.604 200.562 227.899 200.73C228.135 200.729 228.371 200.74 228.606 200.764C229.683 200.921 230.77 200.945 231.853 201.014C232.088 201.021 232.323 201.044 232.556 201.083C233.115 201.175 233.68 201.235 234.246 201.26C234.67 201.282 235.092 201.329 235.511 201.401C235.789 201.452 236.071 201.484 236.354 201.496C237.487 201.557 238.598 201.811 239.725 201.878C241.163 202.143 242.614 202.318 244.051 202.595C245.791 202.932 247.796 203.358 249.43 203.807C252.115 204.542 254.73 205.508 257.246 206.694C258.313 207.198 259.344 207.773 260.356 208.37C261.082 208.808 261.779 209.293 262.441 209.823C263.218 210.435 263.925 211.13 264.55 211.895C265.793 213.441 266.637 215.265 267.009 217.207C267.226 218.261 267.383 219.329 267.361 220.415C267.35 220.929 267.361 221.445 267.361 221.961C267.34 224.678 267.317 227.395 267.294 230.112H267.324C267.324 233.392 267.324 236.672 267.324 239.952C267.324 240.275 267.324 240.607 267.339 240.935C267.345 241.076 267.364 241.215 267.395 241.352C267.437 241.535 267.529 241.703 267.661 241.838C267.709 241.89 267.768 241.93 267.834 241.955C267.899 241.98 267.97 241.99 268.041 241.984C268.181 241.967 268.318 241.931 268.448 241.876C270.167 241.229 271.896 240.6 273.604 239.918C277.543 238.347 281.503 236.826 285.482 235.356C289.771 233.768 294.079 232.236 298.407 230.76C302.063 229.508 305.745 228.33 309.399 227.069C315.503 224.961 321.621 222.889 327.768 220.908C328.04 220.828 328.3 220.713 328.541 220.566C328.699 220.461 328.881 220.4 329.071 220.389C329.399 220.358 329.722 220.286 330.032 220.173C332.68 219.322 335.327 218.47 337.981 217.636C341.895 216.404 345.816 215.202 349.744 214.027C355.211 212.4 360.688 210.808 366.2 209.332C366.659 209.221 367.11 209.082 367.551 208.916C367.901 208.776 368.266 208.675 368.638 208.615C369.338 208.497 370.017 208.302 370.704 208.126C372.714 207.61 374.728 207.094 376.735 206.589C380.074 205.752 383.425 204.971 386.787 204.226C389.227 203.687 391.68 203.196 394.126 202.701C395.558 202.412 396.999 202.161 398.438 201.9C399.134 201.775 399.831 201.651 400.532 201.561C401.375 201.453 402.209 201.293 403.049 201.175C404.311 200.998 405.569 200.81 406.833 200.654C407.812 200.534 408.798 200.407 409.787 200.331C409.881 200.324 409.975 200.31 410.067 200.29C410.532 200.206 411.002 200.158 411.474 200.146C412.181 200.105 412.888 200.077 413.594 200.002C414.11 199.947 414.627 199.905 415.145 199.882C415.287 199.875 415.426 199.851 415.566 199.834C415.631 199.81 415.689 199.772 415.735 199.721C415.782 199.671 415.817 199.611 415.836 199.545C415.836 199.499 415.861 199.454 415.862 199.407C415.888 198.704 415.839 198.001 415.717 197.308V197.308ZM257.203 171.154C257.203 171.294 257.203 171.434 257.203 171.574C257.205 172.419 257.063 173.258 256.781 174.056C255.874 176.77 254.133 178.775 251.508 179.989C250.656 180.395 249.744 180.664 248.806 180.786C248.338 180.842 247.879 180.947 247.403 180.948C243.901 180.948 240.895 179.263 239.098 176.633C238.336 175.5 237.808 174.229 237.545 172.893C237.353 171.974 237.305 171.032 237.402 170.099C237.52 168.836 237.88 167.607 238.462 166.477C239.49 164.501 241.001 163.001 243.029 162.027C243.755 161.689 244.518 161.436 245.303 161.272C246.274 161.066 247.271 161.01 248.259 161.104C249.155 161.18 250.035 161.389 250.869 161.723C253.196 162.645 254.955 164.195 256.107 166.417C256.565 167.29 256.891 168.226 257.075 169.193C257.145 169.658 257.189 170.126 257.208 170.596C257.222 170.783 257.208 170.97 257.208 171.158L257.203 171.154ZM360.745 179.206C359.532 180.027 358.15 180.571 356.7 180.799C356.143 180.9 355.579 180.951 355.013 180.952C353.081 180.904 351.289 180.397 349.668 179.341C347.867 178.168 346.634 176.544 345.907 174.548C345.372 173.088 345.176 171.528 345.332 169.983C345.482 168.294 346.059 166.669 347.01 165.26C348.018 163.772 349.436 162.604 351.096 161.894C352.005 161.499 352.969 161.24 353.955 161.127C354.934 161.019 355.934 160.988 356.911 161.247C358.827 161.584 360.473 162.461 361.886 163.764C363.32 165.073 364.349 166.76 364.853 168.628C365.064 169.438 365.16 170.273 365.138 171.109C365.215 173.953 363.648 177.277 360.745 179.206Z" fill="white"/>
<path d="M404.55 267.72C404.497 267.067 404.455 266.411 404.363 265.763C404.285 265.205 404.218 264.648 404.165 264.088C404.14 263.809 404.102 263.53 404.069 263.251C403.931 262.136 403.786 261.021 403.656 259.907C403.519 258.744 403.412 257.578 403.262 256.417C403.07 254.93 402.892 253.443 402.726 251.954C402.705 251.767 402.676 251.583 402.651 251.397C402.514 250.376 402.37 249.356 402.241 248.335C402.105 247.266 402.009 246.192 401.843 245.129C401.712 244.295 401.641 243.454 401.524 242.62C401.369 241.507 401.223 240.393 401.081 239.276C400.95 238.254 400.858 237.226 400.693 236.21C400.565 235.423 400.509 234.629 400.396 233.837C400.245 232.771 400.1 231.704 399.961 230.635C399.824 229.567 399.726 228.494 399.56 227.43C399.445 226.688 399.382 225.941 399.281 225.199C399.137 224.132 398.982 223.066 398.846 221.998C398.71 220.93 398.613 219.856 398.449 218.792C398.32 217.958 398.246 217.119 398.132 216.284C397.987 215.216 397.842 214.149 397.697 213.082C397.579 212.201 397.469 211.317 397.347 210.437C397.329 210.344 397.277 210.261 397.2 210.206C397.117 210.161 397.022 210.143 396.928 210.155C396.035 210.252 395.16 210.453 394.282 210.631C392.251 211.044 390.221 211.467 388.193 211.916C385.984 212.405 383.78 212.913 381.581 213.44C378.374 214.213 375.177 215.021 371.988 215.864C371.668 215.948 371.354 216.042 371.044 216.156C370.978 216.18 370.919 216.221 370.873 216.274C370.827 216.327 370.796 216.391 370.782 216.46C370.673 216.916 370.579 217.374 370.485 217.833C370.232 219.071 369.981 220.31 369.732 221.549C369.408 223.156 369.087 224.763 368.767 226.369C368.447 227.976 368.125 229.583 367.801 231.189C367.467 232.844 367.132 234.495 366.796 236.144C366.451 237.842 366.107 239.539 365.764 241.237C365.441 242.844 365.12 244.451 364.8 246.057C364.481 247.664 364.158 249.27 363.832 250.876C363.5 252.529 363.16 254.18 362.828 255.831C362.502 257.439 362.192 259.046 361.867 260.652C361.448 262.717 361.019 264.78 360.603 266.845C360.523 267.162 360.483 267.488 360.483 267.816C360.493 267.883 360.524 267.946 360.572 267.996C360.62 268.045 360.682 268.078 360.75 268.09C361.126 268.1 361.502 268.117 361.88 268.117H382.411H402.803C403.18 268.117 403.558 268.117 403.936 268.117C404.03 268.122 404.125 268.116 404.218 268.098C404.31 268.08 404.394 268.036 404.462 267.972C404.52 267.901 404.551 267.811 404.55 267.72ZM368.525 231.94C368.524 231.801 368.534 231.661 368.555 231.523C368.622 231.199 368.705 230.886 368.783 230.568C368.809 230.478 368.864 230.399 368.941 230.345C369.018 230.291 369.111 230.264 369.205 230.27C369.629 230.262 370.054 230.254 370.479 230.254H383.923C388.499 230.254 393.075 230.254 397.651 230.254C398.027 230.254 398.405 230.272 398.781 230.283C398.847 230.304 398.907 230.341 398.957 230.389C399.006 230.438 399.042 230.498 399.064 230.564C399.122 231.071 399.248 231.571 399.218 232.086C399.211 232.187 399.133 232.246 399.044 232.294C398.963 232.34 398.871 232.364 398.778 232.364C396.418 232.364 394.059 232.364 391.701 232.364C391.56 232.371 391.418 232.359 391.28 232.331C390.722 232.188 390.155 232.223 389.59 232.223C383.128 232.223 376.665 232.223 370.201 232.223C369.731 232.223 369.26 232.214 368.788 232.196C368.696 232.177 368.611 232.133 368.542 232.069C368.516 232.056 368.522 231.987 368.525 231.94ZM400.963 250.441C400.822 250.446 400.68 250.457 400.539 250.458C400.162 250.458 399.784 250.458 399.406 250.458H382.978V250.449C377.407 250.449 371.837 250.449 366.267 250.449C365.89 250.449 365.514 250.428 365.137 250.414C365.103 250.409 365.07 250.398 365.04 250.381C365.01 250.364 364.984 250.34 364.964 250.313C364.943 250.285 364.929 250.253 364.921 250.22C364.914 250.186 364.913 250.152 364.92 250.118C364.996 249.704 365.073 249.29 365.15 248.876C365.197 248.632 365.383 248.491 365.658 248.484C365.8 248.484 365.941 248.484 366.083 248.484H399.222C399.647 248.484 400.073 248.484 400.498 248.484C401.082 248.484 401.11 248.591 401.209 249.131C401.268 249.455 401.282 249.778 401.31 250.102C401.331 250.286 401.176 250.432 400.963 250.441Z" fill="white"/>
<path d="M352.116 267.768C352.019 267.444 351.817 267.184 351.652 266.905C349.327 262.941 346.998 258.979 344.666 255.017L329.838 229.789C329.671 229.505 329.5 229.226 329.329 228.944C329.224 228.851 329.088 228.797 328.947 228.792C328.808 228.814 328.671 228.844 328.535 228.882C327.417 229.25 326.3 229.621 325.184 229.995C325.143 230.055 325.127 230.129 325.139 230.201L325.152 230.18C325.521 230.27 325.897 230.253 326.272 230.254C327.116 230.254 327.961 230.254 328.805 230.262C328.923 230.261 329.039 230.292 329.14 230.352C329.241 230.412 329.324 230.499 329.379 230.602C329.639 231.042 329.888 231.491 330.14 231.937C330.105 232.015 330.09 232.141 330.031 232.163C329.899 232.21 329.759 232.232 329.619 232.228C326.852 232.228 324.085 232.228 321.317 232.228C321.177 232.219 321.038 232.201 320.901 232.173C320.876 232.149 320.857 232.12 320.845 232.088C320.832 232.056 320.826 232.023 320.827 231.988C320.827 231.92 320.838 231.881 320.851 231.881L320.877 231.833L320.993 231.793C320.989 231.763 320.984 231.732 320.977 231.703C320.882 231.554 320.766 231.464 320.583 231.57C320.443 231.591 320.304 231.62 320.168 231.658C315.535 233.246 310.903 234.836 306.271 236.427C306.094 236.488 305.922 236.566 305.748 236.642C305.659 236.674 305.58 236.728 305.518 236.799C305.457 236.869 305.415 236.955 305.397 237.047C305.368 237.185 305.351 237.324 305.332 237.463C305.196 238.39 305.063 239.317 304.925 240.242C304.772 241.261 304.612 242.278 304.456 243.296C304.324 244.176 304.195 245.056 304.061 245.935C303.92 246.861 303.77 247.785 303.627 248.711C303.495 249.59 303.38 250.473 303.245 251.352C303.011 252.878 302.764 254.404 302.528 255.93C302.413 256.67 302.311 257.412 302.202 258.154C302.074 259.034 301.951 259.914 301.816 260.793C301.582 262.321 301.339 263.846 301.103 265.373C301.002 266.02 300.906 266.667 300.813 267.315C300.771 267.498 300.771 267.688 300.813 267.871C300.825 267.915 300.847 267.956 300.879 267.989C300.911 268.022 300.951 268.046 300.995 268.059C301.177 268.108 301.365 268.125 301.553 268.111C302.874 268.111 304.195 268.111 305.517 268.111L351.392 268.118C351.579 268.118 351.767 268.099 351.955 268.091C352.081 268.088 352.155 267.899 352.116 267.768ZM340.448 250.436C340.259 250.436 340.071 250.45 339.883 250.45C339.316 250.45 338.751 250.45 338.184 250.45H322.62C317.055 250.45 311.489 250.45 305.923 250.45C305.499 250.45 305.076 250.433 304.653 250.422C304.544 250.422 304.413 250.247 304.413 250.133C304.424 249.712 304.47 249.293 304.551 248.88C304.569 248.79 304.613 248.707 304.678 248.641C304.744 248.575 304.826 248.529 304.917 248.509C305.058 248.499 305.198 248.481 305.338 248.479C305.664 248.473 305.999 248.479 306.329 248.479C316.941 248.479 327.554 248.479 338.166 248.479C338.638 248.479 339.109 248.491 339.58 248.503C339.649 248.508 339.717 248.531 339.776 248.569C339.835 248.606 339.883 248.658 339.918 248.718C340.208 249.144 340.467 249.59 340.694 250.052C340.713 250.093 340.722 250.138 340.719 250.183C340.715 250.228 340.701 250.272 340.677 250.31C340.652 250.348 340.619 250.38 340.579 250.402C340.539 250.424 340.494 250.435 340.448 250.436V250.436Z" fill="white"/>
<path d="M320.854 231.881C320.87 231.977 320.888 232.073 320.904 232.168C320.801 232.189 320.717 232.154 320.698 232.052C320.68 231.951 320.746 231.889 320.854 231.881Z" fill="white"/>
<path d="M364.162 218.101C363.926 218.04 363.694 218.12 363.47 218.184C360.122 219.155 356.771 220.102 353.429 221.097C348.645 222.517 343.877 223.99 339.113 225.481C337.856 225.874 336.602 226.283 335.347 226.686C335.151 226.75 335.041 226.983 335.123 227.125C335.312 227.449 335.488 227.78 335.678 228.103C342.021 238.895 348.364 249.687 354.707 260.478C354.896 260.802 355.092 261.126 355.293 261.436C355.32 261.475 355.358 261.505 355.402 261.523C355.445 261.541 355.493 261.546 355.54 261.537C355.579 261.531 355.649 261.517 355.649 261.498C355.871 260.445 356.089 259.391 356.301 258.337C356.533 257.191 356.758 256.042 356.989 254.896C357.323 253.245 357.663 251.596 357.994 249.944C358.32 248.338 358.63 246.73 358.955 245.125C359.307 243.383 359.667 241.642 360.023 239.899H360.008C360.036 239.762 360.064 239.624 360.092 239.486C360.429 237.837 360.769 236.186 361.102 234.536C361.428 232.93 361.736 231.322 362.06 229.717C362.394 228.065 362.738 226.417 363.074 224.766C363.429 223.024 363.781 221.281 364.13 219.537C364.212 219.125 364.268 218.706 364.337 218.291C364.287 218.221 364.235 218.12 364.162 218.101ZM357.117 249.006C357.022 249.415 356.93 249.825 356.83 250.233C356.816 250.277 356.79 250.316 356.754 250.346C356.718 250.376 356.675 250.395 356.628 250.4C356.538 250.424 356.446 250.439 356.352 250.443C354.375 250.443 352.399 250.443 350.422 250.443C350.328 250.449 350.233 250.432 350.148 250.392C350.062 250.352 349.989 250.291 349.934 250.215C349.614 249.753 349.337 249.265 349.103 248.755C349.139 248.677 349.156 248.552 349.211 248.531C349.345 248.489 349.485 248.47 349.626 248.475C350.802 248.475 351.979 248.475 353.155 248.475V248.465C354.38 248.475 355.603 248.481 356.826 248.497C356.921 248.499 357.012 248.538 357.078 248.605C357.117 248.687 357.135 248.778 357.129 248.868C357.132 248.915 357.128 248.961 357.117 249.006ZM360.705 230.584C360.633 230.998 360.56 231.412 360.488 231.826C360.465 231.941 360.402 232.044 360.31 232.118C360.218 232.191 360.102 232.229 359.984 232.226C359.658 232.226 359.324 232.232 358.994 232.232H340.878C340.552 232.232 340.218 232.232 339.887 232.232C339.793 232.233 339.699 232.221 339.609 232.196C339.519 232.177 339.437 232.131 339.373 232.066C339.039 231.614 338.754 231.128 338.525 230.615C338.476 230.507 338.574 230.292 338.679 230.292C339.055 230.282 339.433 230.265 339.809 230.265C343.065 230.265 346.32 230.265 349.575 230.265C352.878 230.265 356.181 230.265 359.483 230.265C359.809 230.265 360.142 230.282 360.47 230.294C360.535 230.311 360.594 230.349 360.636 230.401C360.679 230.453 360.705 230.517 360.709 230.584H360.705Z" fill="white"/>
<path d="M253.128 289.317C253.128 288.943 253.114 288.57 253.103 288.195C253.09 288.103 253.045 288.019 252.976 287.956C252.908 287.893 252.819 287.856 252.725 287.851C252.679 287.851 252.632 287.836 252.585 287.836H247.631C247.584 287.836 247.537 287.845 247.49 287.846C247.397 287.857 247.311 287.899 247.245 287.965C247.18 288.031 247.138 288.117 247.129 288.209C247.117 288.582 247.101 288.957 247.101 289.331C247.101 291.625 247.101 293.92 247.101 296.216C247.101 296.448 247.129 296.684 247.048 296.911C247.032 296.954 247.021 297.019 246.993 297.033C246.907 297.057 246.793 297.097 246.726 297.063C246.517 296.955 246.327 296.815 246.128 296.69C244.846 295.883 243.366 295.44 241.848 295.409C241.522 295.399 241.188 295.402 240.858 295.409C239.722 295.43 238.603 295.69 237.576 296.171C235.659 297.034 234.233 298.417 233.26 300.264C232.68 301.391 232.306 302.611 232.156 303.868C231.949 305.452 232.082 307.061 232.546 308.591C233.021 310.271 233.973 311.779 235.289 312.937C236.863 314.317 238.696 315.095 240.81 315.156C241.281 315.171 241.754 315.156 242.223 315.141C242.985 315.122 243.716 314.925 244.433 314.69C245.105 314.469 245.743 314.154 246.326 313.755C246.477 313.647 246.612 313.519 246.81 313.486C246.927 313.468 246.998 313.486 247.027 313.607C247.055 313.695 247.076 313.784 247.092 313.875C247.111 314.013 247.116 314.154 247.132 314.293C247.144 314.361 247.177 314.424 247.226 314.474C247.275 314.523 247.338 314.557 247.406 314.571C248.017 314.644 248.631 314.603 249.244 314.606C250.331 314.614 251.418 314.606 252.499 314.606C252.64 314.606 252.78 314.581 252.911 314.531C252.954 314.512 252.992 314.485 253.022 314.45C253.053 314.415 253.075 314.374 253.086 314.329C253.117 314.005 253.129 313.682 253.129 313.35C253.129 309.323 253.129 305.295 253.129 301.268C253.129 297.281 253.128 293.298 253.128 289.317ZM247.074 305.641C247.049 306.204 246.927 306.758 246.713 307.279C246.117 308.664 245.082 309.544 243.646 309.976C243.51 310.015 243.371 310.041 243.23 310.056C242.715 310.12 242.193 310.118 241.678 310.05C240.975 309.944 240.311 309.663 239.746 309.235C239.181 308.807 238.733 308.245 238.445 307.6C237.75 306.006 237.758 304.411 238.513 302.846C239.099 301.634 240.105 300.904 241.406 300.562C241.777 300.483 242.157 300.45 242.537 300.462C244.403 300.528 245.743 301.425 246.597 303.051C247.022 303.859 247.132 304.742 247.074 305.641V305.641Z" fill="white"/>
<path d="M416.064 302.093C415.559 300.399 414.694 298.913 413.368 297.72C411.737 296.251 409.823 295.443 407.605 295.401C407.229 295.394 406.851 295.401 406.474 295.416C405.673 295.455 404.881 295.612 404.126 295.881C403.413 296.127 402.737 296.469 402.118 296.898C402.009 296.976 401.901 297.084 401.749 297.09C401.66 297.09 401.538 297.072 401.515 296.982C401.471 296.803 401.45 296.62 401.454 296.436C401.454 294.236 401.454 292.036 401.454 289.837C401.454 289.416 401.454 288.995 401.454 288.574C401.454 288.434 401.433 288.294 401.423 288.155C401.406 288.065 401.357 287.984 401.286 287.926C401.215 287.868 401.126 287.837 401.034 287.837C399.383 287.832 397.733 287.83 396.083 287.828C395.99 287.828 395.896 287.849 395.803 287.855C395.712 287.874 395.631 287.922 395.572 287.991C395.513 288.061 395.479 288.149 395.476 288.24C395.47 288.615 395.46 288.989 395.46 289.362C395.46 293.293 395.46 297.224 395.46 301.156V309.72C395.46 311.077 395.46 312.434 395.46 313.791C395.458 313.977 395.477 314.161 395.514 314.343C395.531 314.385 395.556 314.424 395.588 314.456C395.62 314.488 395.659 314.513 395.701 314.529C395.836 314.572 395.976 314.594 396.117 314.593C397.721 314.593 399.325 314.593 400.927 314.593C401.02 314.584 401.112 314.569 401.202 314.55C401.311 314.537 401.357 314.472 401.396 314.371C401.485 314.145 401.445 313.909 401.473 313.679C401.482 313.635 401.502 313.593 401.531 313.557C401.56 313.522 401.597 313.494 401.64 313.477C401.682 313.459 401.728 313.452 401.774 313.457C401.819 313.461 401.863 313.476 401.902 313.501C402.059 313.602 402.21 313.717 402.368 313.817C403.679 314.666 405.207 315.127 406.772 315.148C407.243 315.156 407.715 315.148 408.186 315.13C408.421 315.125 408.656 315.1 408.888 315.057C410.05 314.846 411.16 314.415 412.158 313.788C413.882 312.682 415.065 311.148 415.807 309.265C416.209 308.213 416.439 307.105 416.487 305.981C416.571 304.671 416.428 303.355 416.064 302.093ZM410.627 305.463C410.57 306.218 410.44 306.95 410.11 307.636C409.527 308.851 408.567 309.623 407.267 309.98C406.899 310.067 406.521 310.103 406.144 310.088H406.002C404.358 310.065 403.12 309.323 402.227 307.981C401.83 307.385 401.642 306.715 401.523 306.012C401.386 305.128 401.492 304.224 401.83 303.395C402.391 301.937 403.461 301.022 404.958 300.583C405.139 300.53 405.326 300.498 405.514 300.487C405.796 300.465 406.079 300.46 406.362 300.469C407.776 300.528 408.895 301.139 409.718 302.272C410.08 302.766 410.331 303.332 410.452 303.931C410.555 304.439 410.668 304.942 410.629 305.463H410.627Z" fill="white"/>
<path d="M327.121 289.438C327.121 289.017 327.107 288.597 327.096 288.176C327.096 288.01 326.906 287.852 326.71 287.852C326.569 287.852 326.427 287.836 326.286 287.836C324.918 287.836 323.55 287.836 322.182 287.836C321.946 287.836 321.712 287.848 321.476 287.855C321.383 287.868 321.299 287.914 321.239 287.984C321.179 288.054 321.147 288.144 321.149 288.236C321.142 288.611 321.132 288.985 321.132 289.359C321.132 291.606 321.132 293.853 321.132 296.101C321.132 296.381 321.116 296.662 321.107 296.942C321.107 297.04 320.862 297.141 320.768 297.082C320.57 296.959 320.37 296.84 320.172 296.714C318.893 295.905 317.415 295.457 315.898 295.42C315.474 295.407 315.049 295.412 314.625 295.42C313.823 295.454 313.032 295.615 312.281 295.897C310.247 296.618 308.685 297.912 307.569 299.738C306.725 301.1 306.232 302.647 306.135 304.243C306.101 304.803 306.102 305.366 306.11 305.927C306.125 306.724 306.243 307.515 306.461 308.282C306.96 310.085 307.854 311.656 309.264 312.908C310.868 314.333 312.744 315.115 314.912 315.162C315.288 315.17 315.667 315.162 316.044 315.152C317.465 315.098 318.847 314.679 320.057 313.936C320.298 313.792 320.533 313.639 320.772 313.49C320.881 313.424 321.098 313.51 321.106 313.623C321.116 313.716 321.123 313.809 321.131 313.903C321.144 314.042 321.157 314.18 321.168 314.319C321.184 314.386 321.219 314.446 321.268 314.494C321.316 314.543 321.377 314.577 321.444 314.593C323.189 314.593 324.934 314.593 326.68 314.593C326.727 314.593 326.772 314.572 326.819 314.57C326.912 314.564 327.101 314.386 327.103 314.298C327.11 313.877 327.125 313.456 327.125 313.034C327.125 309.102 327.125 305.17 327.125 301.238C327.125 297.306 327.123 293.373 327.121 289.438ZM321.12 305.438C321.058 306.487 320.783 307.47 320.125 308.313C319.2 309.499 317.976 310.1 316.461 310.097C315.893 310.109 315.327 310.012 314.797 309.81C313.816 309.439 313.011 308.717 312.541 307.786C312.309 307.325 312.147 306.833 312.059 306.325C311.899 305.494 311.931 304.637 312.155 303.819C312.599 302.149 313.661 301.046 315.354 300.573C315.491 300.537 315.631 300.514 315.772 300.504C316.007 300.485 316.243 300.474 316.478 300.47C317.892 300.443 319.04 301.019 319.958 302.06C320.459 302.626 320.804 303.311 320.96 304.048C321.056 304.507 321.148 304.965 321.12 305.438Z" fill="white"/>
<path d="M205.78 297.425C205.78 297.051 205.764 296.677 205.756 296.302C205.739 296.236 205.707 296.174 205.662 296.122C205.617 296.07 205.56 296.03 205.496 296.005C205.45 296.005 205.406 295.966 205.361 295.966C203.617 295.966 201.872 295.97 200.128 295.978C200.08 295.975 200.033 295.985 199.99 296.007C199.917 296.058 199.817 296.115 199.793 296.188C199.754 296.323 199.738 296.464 199.744 296.604C199.744 297.174 199.499 297.172 199.176 296.953C199.06 296.873 198.943 296.794 198.824 296.718C197.548 295.902 196.072 295.45 194.555 295.41C194.228 295.398 193.895 295.399 193.565 295.403C192.193 295.424 190.847 295.785 189.651 296.452C187.706 297.5 186.368 299.083 185.519 301.091C184.983 302.359 184.742 303.944 184.704 305.058C184.694 305.807 184.76 306.556 184.901 307.292C185.258 309.382 186.142 311.208 187.692 312.686C189.323 314.243 191.266 315.083 193.536 315.149C193.96 315.162 194.385 315.149 194.809 315.134C196.086 315.073 197.33 314.71 198.436 314.073C198.762 313.889 199.074 313.674 199.391 313.473C199.479 313.418 199.693 313.538 199.708 313.651C199.72 313.744 199.733 313.836 199.741 313.929C199.75 314.021 199.751 314.115 199.759 314.208C199.759 314.301 199.795 314.391 199.861 314.458C199.926 314.525 200.014 314.564 200.108 314.568C201.848 314.628 203.597 314.595 205.341 314.588C205.387 314.578 205.432 314.566 205.476 314.551C205.559 314.539 205.757 314.348 205.76 314.271C205.769 313.99 205.783 313.71 205.783 313.429C205.783 310.713 205.783 307.999 205.783 305.284C205.781 302.666 205.78 300.046 205.78 297.425ZM199.69 305.959C199.582 307.455 198.554 309.351 196.259 309.984C195.856 310.077 195.442 310.113 195.029 310.091C194.498 310.098 193.97 310.006 193.473 309.82C192.201 309.331 191.365 308.426 190.916 307.173C190.475 305.972 190.47 304.656 190.903 303.452C191.36 302.147 192.217 301.203 193.555 300.721C193.952 300.572 194.371 300.487 194.795 300.471C194.89 300.471 194.984 300.471 195.079 300.471C196.949 300.381 198.71 301.657 199.377 303.34C199.563 303.772 199.673 304.232 199.703 304.701C199.724 305.12 199.722 305.54 199.696 305.959H199.69Z" fill="white"/>
<path d="M293.177 304.147C293.113 303.401 292.949 302.667 292.692 301.963C291.931 299.806 290.54 298.143 288.574 296.967C286.949 296.001 285.096 295.478 283.201 295.449C282.354 295.432 281.506 295.506 280.674 295.67C279.047 295.968 277.513 296.644 276.2 297.643C275.108 298.466 274.216 299.523 273.59 300.734C272.875 302.111 272.5 303.637 272.495 305.186C272.477 306.498 272.72 307.801 273.211 309.02C274.107 311.244 275.666 312.875 277.802 313.956C279.365 314.759 281.105 315.163 282.865 315.131H283.263C285.111 315.115 286.92 314.611 288.506 313.67C289.879 312.882 291.03 311.764 291.852 310.417C292.675 309.071 293.142 307.541 293.211 305.969C293.234 305.361 293.223 304.753 293.177 304.147V304.147ZM286.85 307.747C286.253 308.876 285.294 309.602 284.064 309.969C283.697 310.064 283.317 310.104 282.938 310.09C281.1 310.171 279.313 308.935 278.653 307.228C278.512 306.881 278.414 306.519 278.363 306.149C278.293 305.592 278.291 305.029 278.356 304.472C278.454 303.679 278.763 302.927 279.251 302.292C279.921 301.392 280.828 300.833 281.91 300.557C282.186 300.501 282.468 300.472 282.75 300.468C284.676 300.343 286.366 301.655 287.009 303.152C287.681 304.713 287.639 306.252 286.85 307.747V307.747Z" fill="white"/>
<path d="M298.536 239.172C298.499 239.184 298.273 239.252 298.052 239.332C294.779 240.511 291.506 241.692 288.233 242.875C285.67 243.806 283.114 244.755 280.555 245.699C280.467 245.731 280.386 245.779 280.316 245.84C280.279 245.869 280.253 245.907 280.239 245.951C280.226 245.995 280.226 246.042 280.241 246.085C280.321 246.254 280.415 246.417 280.521 246.571C285.088 253.268 289.66 259.964 294.235 266.66C294.344 266.814 294.458 266.961 294.578 267.106C294.615 267.134 294.661 267.147 294.707 267.142C294.742 267.142 294.796 267.125 294.807 267.101C294.945 266.753 295.032 266.387 295.065 266.014C295.224 264.808 295.424 263.609 295.609 262.409C295.846 260.884 296.058 259.356 296.282 257.829C296.398 257.043 296.512 256.256 296.633 255.471C296.783 254.5 296.942 253.529 297.089 252.558C297.221 251.68 297.338 250.799 297.472 249.92C297.706 248.396 297.96 246.874 298.186 245.348C298.459 243.498 298.723 241.647 299.026 239.802C299.049 239.664 299.049 239.523 299.06 239.384C299.08 239.153 298.952 239.052 298.536 239.172ZM296.388 250.082C296.362 250.17 296.312 250.249 296.244 250.311C296.176 250.373 296.092 250.416 296.001 250.434C295.954 250.434 295.908 250.445 295.861 250.445C292.236 250.445 288.612 250.445 284.987 250.445C284.94 250.445 284.894 250.436 284.847 250.433C284.776 250.432 284.707 250.417 284.643 250.388C284.579 250.358 284.522 250.316 284.475 250.263C284.087 249.795 283.741 249.295 283.441 248.767C283.467 248.685 283.494 248.604 283.521 248.522C283.707 248.506 283.894 248.475 284.08 248.474C286.056 248.474 288.033 248.474 290.009 248.474H295.654C295.887 248.477 296.12 248.494 296.351 248.522C296.398 248.525 296.442 248.544 296.476 248.576C296.509 248.607 296.531 248.65 296.536 248.696C296.566 249.163 296.516 249.632 296.388 250.082V250.082Z" fill="white"/>
<path d="M385.879 281.063C385.796 280.847 385.716 280.625 385.625 280.409C384.973 278.857 384.32 277.305 383.668 275.753C382.996 274.158 382.323 272.565 381.648 270.972C381.575 270.8 381.504 270.625 381.418 270.46C381.378 270.375 381.315 270.303 381.235 270.252C381.155 270.201 381.063 270.174 380.968 270.173C380.262 270.167 379.555 270.173 378.849 270.168C378.802 270.168 378.755 270.177 378.709 270.181C378.639 270.188 378.573 270.213 378.516 270.253C378.458 270.293 378.413 270.347 378.382 270.41C378.056 270.981 377.845 271.603 377.59 272.205C376.384 275.046 375.197 277.894 374.001 280.74C373.965 280.825 373.936 280.915 373.903 281.002C373.888 281.045 373.882 281.09 373.886 281.135C373.891 281.18 373.906 281.223 373.929 281.261C373.953 281.3 373.986 281.332 374.024 281.356C374.063 281.38 374.106 281.395 374.151 281.4C374.905 281.4 375.658 281.409 376.412 281.4C376.507 281.395 376.598 281.361 376.674 281.303C376.749 281.246 376.805 281.167 376.834 281.077C376.965 280.777 377.085 280.473 377.207 280.168C377.259 280.039 377.3 279.904 377.358 279.776C377.46 279.548 377.628 279.393 377.892 279.392C379.023 279.386 380.154 279.383 381.285 279.384C381.52 279.38 381.756 279.389 381.99 279.409C382.124 279.422 382.272 279.451 382.335 279.603C382.552 280.12 382.77 280.638 382.987 281.155C383.016 281.218 383.061 281.272 383.119 281.31C383.177 281.348 383.244 281.37 383.314 281.371C383.688 281.4 384.065 281.404 384.51 281.419C384.866 281.404 385.289 281.385 385.711 281.369C385.824 281.374 385.927 281.188 385.879 281.063ZM380.959 276.955C380.588 276.97 380.216 276.983 379.867 276.995L378.866 276.964C378.752 276.964 378.602 276.779 378.629 276.676C378.653 276.541 378.684 276.408 378.724 276.276C379.02 275.498 379.323 274.724 379.625 273.949C379.641 273.906 379.666 273.867 379.698 273.834C379.761 273.767 379.835 273.71 379.916 273.665C379.975 273.638 380.044 273.71 380.086 273.813C380.41 274.63 380.734 275.447 381.057 276.263C381.107 276.389 381.139 276.524 381.182 276.654C381.213 276.751 381.067 276.951 380.959 276.955Z" fill="white"/>
<path d="M260.62 247.843C260.607 245.735 260.607 243.627 260.62 241.518C260.64 237.583 260.634 233.648 260.6 229.712C260.584 227.698 260.607 225.684 260.623 223.671C260.623 223.062 260.643 222.452 260.699 221.847C260.785 220.911 260.746 219.968 260.584 219.042C260.391 217.831 259.846 216.702 259.015 215.795C258.476 215.202 257.842 214.702 257.138 214.314C255.485 213.409 253.797 212.581 252.02 211.933C248.185 210.53 244.281 209.648 240.655 209.091C239.815 208.963 238.971 208.866 238.132 208.743C237.571 208.659 237.011 208.588 236.445 208.545C236.21 208.528 235.973 208.516 235.741 208.478C234.9 208.357 234.053 208.28 233.204 208.247C232.921 208.231 232.637 208.217 232.357 208.18C231.418 208.057 230.476 208.023 229.53 207.984C229.106 207.967 228.679 207.955 228.257 207.916C226.751 207.775 225.241 207.748 223.732 207.679C221.323 207.571 218.918 207.652 216.513 207.761C216.277 207.772 216.042 207.796 215.807 207.817L213.551 208.025C213.316 208.047 213.079 208.058 212.847 208.096C211.729 208.285 210.597 208.35 209.476 208.506C208.075 208.702 206.67 208.87 205.266 209.055C204.003 209.223 202.749 209.433 201.494 209.655C199.774 209.96 198.074 210.365 196.403 210.868C194.138 211.529 191.955 212.438 189.893 213.577C189.112 214.015 188.348 214.48 187.609 214.991C187.259 215.23 186.929 215.498 186.624 215.791C185.872 216.51 185.354 217.434 185.134 218.446C185.023 218.901 184.963 219.367 184.955 219.836C184.955 220.35 184.955 220.866 184.955 221.382C184.967 226.113 184.98 230.845 184.997 237.024C184.98 240.261 184.954 244.949 184.929 249.634C184.929 250.196 184.922 250.758 184.929 251.32C184.93 251.508 184.944 251.695 184.969 251.88C185.006 252.16 185.111 252.427 185.273 252.658C185.338 252.756 185.425 252.838 185.526 252.898C185.627 252.959 185.74 252.997 185.857 253.009C186.375 253.054 186.898 253 187.395 252.848C188.848 252.442 190.308 252.068 191.774 251.711C193.606 251.264 195.448 250.86 197.299 250.499C198.593 250.248 199.893 250.017 201.198 249.807C203.482 249.441 204.65 249.258 206.943 249.003C207.178 248.977 207.41 248.937 207.644 248.908C207.97 248.867 208.296 248.821 208.623 248.794C210.269 248.66 211.909 248.452 213.561 248.395C213.703 248.395 213.843 248.367 213.984 248.358C214.691 248.314 215.398 248.25 216.104 248.232C219.975 248.097 223.845 248.124 227.716 248.183C230.079 248.223 232.429 248.449 234.784 248.543C234.925 248.55 235.065 248.57 235.207 248.584L237.462 248.8C237.697 248.823 237.934 248.83 238.167 248.87C239.283 249.061 240.422 249.086 241.538 249.302C242.48 249.369 243.399 249.607 244.34 249.693C246.052 250.025 247.773 250.313 249.478 250.687C251.851 251.207 254.724 251.942 256.995 252.662C257.533 252.834 258.073 253 258.614 253.166C258.976 253.277 259.356 253.319 259.734 253.289C259.922 253.27 260.1 253.196 260.244 253.076C260.389 252.955 260.494 252.794 260.545 252.614C260.665 252.16 260.715 251.691 260.691 251.222C260.664 250.092 260.626 248.967 260.62 247.843ZM202.641 239.8C202.641 240.189 202.641 240.582 202.603 240.968C202.507 241.905 202.014 242.559 201.132 242.919C200.99 242.983 200.845 243.038 200.697 243.085C199.03 243.54 197.365 243.999 195.695 244.435C195.351 244.515 195 244.559 194.648 244.567C194.157 244.592 193.826 244.333 193.644 243.897C193.476 243.5 193.385 243.075 193.377 242.645C193.357 241.592 193.318 240.539 193.318 239.485C193.313 234.061 193.313 228.637 193.318 223.212C193.318 223.095 193.318 222.977 193.311 222.861C193.258 221.608 193.855 220.781 195.013 220.341C196.444 219.801 197.878 219.262 199.372 218.909C199.793 218.809 200.223 218.761 200.655 218.765C201.417 218.765 201.912 219.137 202.185 219.827C202.419 220.449 202.547 221.105 202.565 221.769C202.606 222.665 202.621 223.563 202.625 224.466C202.632 226.731 202.625 228.997 202.625 231.262H202.642C202.645 234.105 202.645 236.95 202.641 239.8ZM220.256 237.765C220.274 238.273 220.227 238.78 220.116 239.276C219.886 240.182 219.329 240.678 218.394 240.786C218.159 240.809 217.922 240.816 217.686 240.805C216.82 240.788 215.954 240.829 215.094 240.929C214.351 241.026 213.6 241.041 212.854 240.975C211.651 240.847 211.176 240.422 210.964 239.249C210.885 238.747 210.849 238.24 210.855 237.732C210.841 235.545 210.845 233.357 210.84 231.171C210.833 227.538 210.826 223.906 210.818 220.275C210.808 219.806 210.83 219.338 210.884 218.872C210.993 218.117 211.406 217.578 212.15 217.325C212.406 217.227 212.673 217.158 212.945 217.119C214.512 216.967 216.079 216.827 217.647 216.7C218.197 216.652 218.75 216.71 219.278 216.871C219.486 216.93 219.676 217.041 219.829 217.193C219.981 217.346 220.091 217.535 220.148 217.743C220.296 218.2 220.286 218.666 220.286 219.135C220.286 222.259 220.286 225.383 220.286 228.506H220.247C220.249 231.593 220.252 234.679 220.256 237.765ZM237.437 239.853C237.22 240.665 236.676 241.113 235.872 241.255C235.522 241.305 235.167 241.322 234.813 241.307C233.553 241.304 232.295 241.222 231.045 241.061C230.889 241.038 230.731 241.031 230.577 241.001C229.121 240.718 228.578 240.154 228.293 238.704C228.17 237.971 228.117 237.229 228.135 236.487C228.13 232.621 228.13 228.754 228.135 224.887C228.135 223.09 228.123 221.294 228.123 219.493C228.107 219.103 228.122 218.712 228.167 218.324C228.315 217.372 228.847 216.871 229.798 216.757C230.072 216.733 230.348 216.739 230.62 216.773C231.952 216.896 233.284 217.02 234.614 217.161C235.158 217.219 235.708 217.295 236.245 217.404C236.932 217.541 237.366 217.968 237.462 218.665C237.521 219.13 237.55 219.599 237.547 220.068C237.553 223.114 237.553 226.16 237.547 229.206C237.547 232.253 237.547 235.299 237.547 238.346C237.554 238.849 237.564 239.348 237.427 239.853H237.437ZM254.885 244.365C254.649 245.001 254.328 245.253 253.668 245.275C253.314 245.293 252.959 245.245 252.622 245.132C251.289 244.665 249.951 244.211 248.621 243.73C248.292 243.6 247.973 243.446 247.668 243.268C246.592 242.681 246 241.772 245.82 240.571C245.695 239.761 245.631 238.942 245.627 238.122C245.627 235.233 245.627 232.344 245.627 229.454C245.627 226.878 245.609 224.301 245.609 221.724C245.594 221.295 245.625 220.866 245.7 220.444C245.898 219.527 246.431 219.115 247.376 219.119C247.77 219.123 248.162 219.172 248.545 219.264C249.691 219.536 250.828 219.836 251.971 220.127C252.161 220.177 252.345 220.246 252.532 220.305C253.952 220.756 254.755 221.678 254.895 223.188C254.971 224.006 255.03 224.821 255.031 225.641C255.031 228.374 255.031 231.107 255.031 233.84H255.044C255.044 236.846 255.044 239.852 255.044 242.858C255.039 243.369 255.058 243.879 254.875 244.365H254.885Z" fill="white"/>
</svg>
