<svg width="600" height="400" viewBox="0 0 600 400" fill="none" xmlns="http://www.w3.org/2000/svg">
<path d="M177.039 173.721C174.584 171.267 173.357 168.263 173.357 164.701C173.357 161.139 174.584 158.134 177.039 155.681C179.493 153.227 182.499 152 186.062 152C189.625 152 192.631 153.227 195.086 155.681C197.54 158.134 198.767 161.139 198.767 164.701C198.767 168.263 197.54 171.267 195.086 173.721C192.631 176.175 189.625 177.402 186.062 177.402C182.499 177.402 179.493 176.175 177.039 173.721Z" fill="white"/>
<path d="M168.803 177.283V229.69H153.734V203.152H126.893V229.69H111.831V162.226H126.893V190.409H153.734V162.226L168.803 177.29V177.283ZM193.3 199.666V229.69H178.824V185.195L193.3 199.666Z" fill="white"/>
<path d="M243.612 222.856C238.315 227.827 232.086 230.312 224.926 230.312C217.824 230.312 211.944 228.145 207.287 223.809C202.63 219.416 200.301 213.549 200.301 206.208C200.301 198.867 202.659 193.029 207.374 188.694C212.148 184.359 217.765 182.191 224.227 182.191C230.689 182.191 236.161 184.127 240.643 188C245.184 191.873 247.454 197.191 247.454 203.954V210.89H213.225C213.632 213.434 214.971 215.515 217.241 217.133C219.512 218.752 222.073 219.561 224.926 219.561C229.524 219.561 233.308 218.029 236.277 214.965L243.612 222.856ZM234.182 201.613C233.89 198.838 232.843 196.7 231.038 195.197C229.233 193.694 227.021 192.942 224.402 192.942C221.84 192.942 219.483 193.723 217.329 195.283C215.175 196.844 213.923 198.954 213.574 201.613H234.182Z" fill="white"/>
<path d="M271.307 230.312C265.777 230.312 260.829 227.971 256.463 223.289C252.097 218.607 249.913 212.798 249.913 205.861C249.913 198.925 252.038 193.26 256.288 188.867C260.537 184.416 265.515 182.191 271.22 182.191C276.925 182.191 281.582 184.185 285.191 188.174V165.284H298.289V229.619H285.191V223.463C281.523 228.029 276.895 230.312 271.307 230.312ZM263.099 206.382C263.099 210.139 264.234 213.231 266.504 215.659C268.775 218.029 271.423 219.214 274.45 219.214C277.478 219.214 280.039 218.029 282.135 215.659C284.289 213.231 285.365 210.139 285.365 206.382C285.365 202.567 284.289 199.416 282.135 196.931C280.039 194.388 277.448 193.116 274.363 193.116C271.278 193.116 268.629 194.388 266.417 196.931C264.205 199.474 263.099 202.624 263.099 206.382Z" fill="white"/>
<path d="M333.393 182.191C339.098 182.191 344.075 184.416 348.325 188.867C352.574 193.26 354.699 198.925 354.699 205.861C354.699 212.798 352.516 218.607 348.15 223.289C343.784 227.971 338.807 230.312 333.218 230.312C327.688 230.312 323.089 228.029 319.422 223.463V229.619H306.324V165.284H319.422V188.174C323.031 184.185 327.688 182.191 333.393 182.191ZM319.247 206.382C319.247 210.139 320.295 213.231 322.391 215.659C324.545 218.029 327.135 219.214 330.162 219.214C333.189 219.214 335.838 218.029 338.108 215.659C340.379 213.231 341.514 210.139 341.514 206.382C341.514 202.624 340.408 199.474 338.196 196.931C335.983 194.388 333.335 193.116 330.249 193.116C327.164 193.116 324.545 194.388 322.391 196.931C320.295 199.416 319.247 202.567 319.247 206.382Z" fill="white"/>
<path d="M400.805 222.856C395.508 227.827 389.279 230.312 382.119 230.312C375.017 230.312 369.137 228.145 364.48 223.809C359.823 219.416 357.495 213.549 357.495 206.208C357.495 198.867 359.852 193.029 364.568 188.694C369.341 184.359 374.959 182.191 381.42 182.191C387.882 182.191 393.354 184.127 397.837 188C402.377 191.873 404.648 197.191 404.648 203.954V210.89H370.418C370.826 213.434 372.164 215.515 374.435 217.133C376.705 218.752 379.267 219.561 382.119 219.561C386.718 219.561 390.502 218.029 393.471 214.965L400.805 222.856ZM391.375 201.613C391.084 198.838 390.036 196.7 388.231 195.197C386.427 193.694 384.215 192.942 381.595 192.942C379.034 192.942 376.676 193.723 374.522 195.283C372.368 196.844 371.117 198.954 370.767 201.613H391.375Z" fill="white"/>
<path d="M434.438 194.416C430.538 194.416 427.627 195.804 425.706 198.578C423.785 201.295 422.825 204.908 422.825 209.416V229.619H409.726V182.971H422.825V189.127C424.513 187.22 426.608 185.601 429.112 184.272C431.673 182.942 434.263 182.249 436.883 182.191L436.97 194.416H434.438Z" fill="white"/>
<path d="M474.18 205.341C474.18 201.584 473.133 198.636 471.037 196.497C468.941 194.359 466.351 193.289 463.265 193.289C460.18 193.289 457.502 194.359 455.232 196.497C453.02 198.636 451.914 201.555 451.914 205.255C451.914 208.954 452.991 211.96 455.145 214.272C457.357 216.526 460.034 217.653 463.178 217.653C466.322 217.653 468.941 216.526 471.037 214.272C473.133 212.017 474.18 209.041 474.18 205.341ZM476.014 221.728C471.881 226.295 466.729 228.578 460.558 228.578C454.446 228.578 449.265 226.526 445.015 222.422C440.824 218.26 438.728 212.74 438.728 205.861C438.728 198.925 440.882 193.26 445.19 188.867C449.556 184.416 454.533 182.191 460.122 182.191C465.71 182.191 470.338 184.474 474.006 189.041V182.885H487.104V223.549C487.104 227.711 486.376 231.41 484.921 234.647C483.465 237.884 481.515 240.428 479.07 242.277C474.239 246.092 468.534 248 461.956 248C458.463 248 454.883 247.422 451.215 246.266C447.606 245.168 444.433 243.578 441.697 241.497L446.762 231.699C451.07 234.936 455.61 236.555 460.384 236.555C465.215 236.555 469.028 235.37 471.823 233C474.617 230.63 476.014 226.873 476.014 221.728Z" fill="white"/>
</svg>
