<svg width="600" height="400" viewBox="0 0 600 400" fill="none" xmlns="http://www.w3.org/2000/svg">
<path d="M447.043 164.35C446.077 164.485 446 161.077 443.084 158.557C440.169 156.037 437.156 156.5 437.185 155.66C437.185 155.023 439.319 154.695 443.548 153.903C446.84 153.324 447.651 153.382 448.172 153.903C448.694 154.424 448.703 155.091 448.366 158.006C447.883 162.197 447.632 164.263 447.043 164.35Z" fill="white"/>
<path d="M112.214 240.33C112.214 244.887 110.012 247.166 105.61 247.166C101.361 247.166 99.2406 244.893 99.2471 240.349V177.883C99.2471 173.486 101.368 171.288 105.61 171.288C107.02 171.222 108.402 171.698 109.472 172.621C110.407 173.467 111.139 174.513 111.615 175.681C113.134 173.829 115.14 172.438 117.408 171.665C119.959 170.734 122.657 170.269 125.373 170.294C128.558 170.281 131.708 170.963 134.603 172.292C137.488 173.615 140.078 175.503 142.221 177.844C144.418 180.263 146.158 183.059 147.357 186.099C148.641 189.294 149.297 192.706 149.288 196.15C149.3 199.574 148.644 202.969 147.357 206.142C146.146 209.161 144.406 211.94 142.221 214.349C140.104 216.666 137.556 218.549 134.719 219.891C131.904 221.227 128.827 221.916 125.711 221.909C123.011 221.944 120.322 221.55 117.746 220.74C115.606 220.122 113.687 218.906 112.214 217.236V240.33ZM124.137 183.144C122.497 183.133 120.874 183.486 119.387 184.178C117.961 184.843 116.681 185.785 115.622 186.948C114.555 188.153 113.715 189.54 113.14 191.042C112.505 192.636 112.177 194.337 112.175 196.053C112.177 197.769 112.505 199.47 113.14 201.064C113.721 202.581 114.561 203.985 115.622 205.215C116.669 206.408 117.95 207.371 119.387 208.044C120.874 208.736 122.497 209.089 124.137 209.077C125.802 209.087 127.449 208.735 128.965 208.044C130.43 207.372 131.743 206.409 132.827 205.215C133.926 204.001 134.79 202.593 135.375 201.064C136.011 199.47 136.338 197.769 136.341 196.053C136.338 194.337 136.011 192.636 135.375 191.042C134.796 189.527 133.931 188.137 132.827 186.948C131.73 185.784 130.419 184.843 128.965 184.178C127.449 183.487 125.802 183.135 124.137 183.144V183.144Z" fill="white"/>
<path d="M168.48 199.239C168.659 200.739 169.17 202.18 169.976 203.458C170.723 204.619 171.711 205.607 172.873 206.354C174.062 207.11 175.367 207.667 176.735 208.005C178.137 208.354 179.577 208.529 181.021 208.527C183.029 208.606 185.027 208.223 186.863 207.407C188.263 206.731 189.584 205.902 190.802 204.935C191.922 204.037 192.964 203.216 193.93 202.463C194.91 201.717 196.116 201.325 197.348 201.353C199.022 201.323 200.656 201.872 201.972 202.908C202.614 203.428 203.123 204.093 203.459 204.848C203.794 205.603 203.947 206.427 203.903 207.252C203.85 209.361 202.977 211.366 201.47 212.842C199.757 214.65 197.765 216.172 195.571 217.351C193.212 218.642 190.702 219.635 188.098 220.306C185.78 220.952 183.389 221.302 180.983 221.348C177.517 221.378 174.076 220.749 170.845 219.495C167.819 218.321 165.049 216.574 162.687 214.348C160.347 212.115 158.476 209.436 157.184 206.47C155.812 203.302 155.125 199.881 155.166 196.429C155.13 192.977 155.787 189.553 157.097 186.359C158.342 183.282 160.19 180.486 162.532 178.133C164.893 175.791 167.683 173.926 170.749 172.64C173.974 171.276 177.443 170.586 180.944 170.612C184.042 170.587 187.119 171.117 190.029 172.176C192.751 173.161 195.251 174.674 197.386 176.627C198.469 177.651 199.473 178.754 200.389 179.929C201.468 181.278 202.437 182.711 203.285 184.216C204.115 185.681 204.832 187.208 205.429 188.783C205.964 190.11 206.259 191.522 206.298 192.953C206.33 193.78 206.185 194.605 205.872 195.371C205.558 196.137 205.085 196.827 204.483 197.395C203.075 198.616 201.246 199.239 199.385 199.132L168.48 199.239ZM192.559 189.738C192.33 188.9 191.936 188.115 191.4 187.431C190.737 186.537 189.935 185.755 189.025 185.114C187.936 184.355 186.747 183.751 185.492 183.318C184.044 182.805 182.518 182.55 180.983 182.565C179.444 182.551 177.915 182.806 176.464 183.318C175.15 183.784 173.888 184.385 172.699 185.114C171.661 185.738 170.726 186.52 169.928 187.431C169.305 188.102 168.813 188.885 168.48 189.738H192.559Z" fill="white"/>
<path d="M226.016 214.059C226.016 218.294 223.799 220.415 219.364 220.421C215.155 220.421 213.05 218.301 213.05 214.059V177.699C213.05 173.386 215.135 171.227 219.306 171.22C220.477 171.173 221.626 171.543 222.55 172.263C223.4 172.958 224.124 173.615 224.751 174.194C227.287 171.182 231.494 169.676 237.37 169.676C240.35 169.65 243.304 170.221 246.06 171.356C248.671 172.433 251.007 174.082 252.895 176.183C254.858 178.44 256.351 181.066 257.288 183.907C258.378 187.25 258.906 190.751 258.852 194.266V213.953C258.852 218.188 256.654 220.309 252.258 220.315C248.01 220.315 245.886 218.194 245.886 213.953V192.529C245.892 191.199 245.619 189.884 245.084 188.667C244.548 187.486 243.806 186.411 242.893 185.49C241.967 184.559 240.872 183.812 239.668 183.289C238.436 182.747 237.104 182.471 235.758 182.478C234.427 182.465 233.109 182.742 231.896 183.289C230.725 183.812 229.669 184.56 228.787 185.49C227.906 186.413 227.202 187.489 226.711 188.667C226.206 189.891 225.95 191.204 225.958 192.529L226.016 214.059Z" fill="white"/>
<path d="M315.514 221.346C315.553 224.817 314.896 228.261 313.583 231.474C312.334 234.523 310.5 237.297 308.186 239.642C305.845 241.989 303.067 243.856 300.008 245.136C296.752 246.507 293.249 247.197 289.716 247.163C287.473 247.135 285.239 246.864 283.054 246.352C280.707 245.836 278.436 245.021 276.296 243.929C274.334 242.942 272.568 241.607 271.082 239.99C269.73 238.546 268.984 236.638 268.997 234.66C268.958 232.997 269.513 231.375 270.561 230.084C271.604 228.796 273.322 228.153 275.717 228.153C276.893 228.11 278.051 228.449 279.019 229.118C279.897 229.755 280.805 230.46 281.732 231.223C282.726 232.019 283.793 232.72 284.918 233.318C286.423 234.031 288.081 234.363 289.745 234.284C291.434 234.287 293.107 233.959 294.669 233.318C296.201 232.699 297.595 231.784 298.772 230.624C299.946 229.442 300.884 228.046 301.534 226.511C302.234 224.88 302.589 223.121 302.576 221.346L302.49 216.258C301.032 217.738 299.283 218.899 297.353 219.666C294.789 220.632 292.059 221.085 289.32 220.999C286.156 221.025 283.024 220.366 280.139 219.068C277.287 217.772 274.716 215.932 272.569 213.651C270.372 211.309 268.631 208.579 267.433 205.599C266.129 202.403 265.473 198.981 265.502 195.529C265.475 192.022 266.131 188.542 267.433 185.285C268.63 182.271 270.371 179.503 272.569 177.117C274.711 174.818 277.292 172.97 280.158 171.682C283.05 170.382 286.189 169.723 289.359 169.751C292.023 169.712 294.677 170.084 297.228 170.851C299.614 171.631 301.739 173.054 303.368 174.964C304.289 172.493 306.2 171.257 309.103 171.257C313.377 171.257 315.517 173.339 315.524 177.504L315.514 221.346ZM290.508 182.563C288.841 182.547 287.192 182.904 285.681 183.605C284.241 184.279 282.959 185.246 281.915 186.444C280.851 187.675 280.011 189.084 279.434 190.605C278.806 192.171 278.478 193.842 278.468 195.529C278.467 197.236 278.795 198.928 279.434 200.511C280.01 201.998 280.851 203.369 281.915 204.556C282.972 205.725 284.252 206.671 285.681 207.337C287.192 208.039 288.841 208.395 290.508 208.38C292.144 208.432 293.772 208.121 295.274 207.47C296.776 206.819 298.116 205.844 299.197 204.614C301.433 202.124 302.635 198.875 302.557 195.529C302.561 193.849 302.266 192.182 301.688 190.605C301.133 189.071 300.288 187.658 299.197 186.444C298.113 185.249 296.8 184.283 295.335 183.605C293.824 182.901 292.175 182.545 290.508 182.563V182.563Z" fill="white"/>
<path d="M372.247 221.347C372.281 224.818 371.625 228.26 370.316 231.475C369.067 234.524 367.234 237.298 364.919 239.643C362.576 241.988 359.798 243.854 356.741 245.137C353.485 246.508 349.982 247.198 346.449 247.164C344.206 247.137 341.972 246.865 339.788 246.353C337.44 245.84 335.168 245.026 333.029 243.93C331.068 242.943 329.301 241.608 327.816 239.991C326.442 238.556 325.675 236.647 325.672 234.661C325.633 232.998 326.188 231.376 327.236 230.085C328.279 228.797 329.998 228.154 332.392 228.154C333.565 228.112 334.719 228.451 335.684 229.119C336.572 229.757 337.48 230.461 338.407 231.224C339.401 232.02 340.468 232.722 341.593 233.319C343.098 234.032 344.756 234.364 346.42 234.285C348.106 234.287 349.775 233.959 351.335 233.319C352.871 232.703 354.269 231.788 355.448 230.625C356.631 229.439 357.575 228.036 358.228 226.493C358.929 224.862 359.284 223.103 359.271 221.328L359.184 216.24C357.725 217.722 355.972 218.883 354.038 219.648C351.477 220.615 348.751 221.067 346.015 220.98C342.851 221.007 339.718 220.348 336.833 219.049C333.983 217.768 331.412 215.941 329.264 213.672C327.067 211.33 325.325 208.599 324.127 205.619C322.823 202.424 322.167 199.001 322.196 195.549C322.164 192.042 322.82 188.561 324.127 185.306C325.331 182.29 327.078 179.521 329.283 177.138C331.424 174.841 334 172.993 336.862 171.702C339.758 170.403 342.899 169.744 346.073 169.771C348.737 169.734 351.39 170.105 353.941 170.872C356.328 171.651 358.453 173.074 360.082 174.985C360.996 172.513 362.908 171.277 365.817 171.277C370.097 171.277 372.237 173.359 372.237 177.524L372.247 221.347ZM347.241 182.564C345.574 182.548 343.925 182.905 342.414 183.606C340.975 184.28 339.692 185.247 338.648 186.445C337.585 187.678 336.742 189.086 336.157 190.606C335.529 192.172 335.201 193.843 335.192 195.53C335.191 197.237 335.518 198.929 336.157 200.512C336.741 201.998 337.584 203.368 338.648 204.557C339.705 205.726 340.985 206.672 342.414 207.338C343.925 208.04 345.574 208.396 347.241 208.381C348.877 208.433 350.505 208.122 352.007 207.471C353.51 206.82 354.849 205.845 355.93 204.615C358.166 202.125 359.368 198.876 359.29 195.53C359.294 193.85 358.999 192.183 358.421 190.606C357.867 189.072 357.021 187.659 355.93 186.445C354.846 185.25 353.533 184.284 352.068 183.606C350.557 182.904 348.908 182.548 347.241 182.564V182.564Z" fill="white"/>
<path d="M393.312 199.122C393.301 200.453 393.578 201.77 394.123 202.984C394.641 204.161 395.36 205.239 396.247 206.17C397.123 207.093 398.182 207.823 399.356 208.313C400.579 208.823 401.893 209.079 403.218 209.067C404.534 209.088 405.84 208.843 407.059 208.345C408.277 207.847 409.381 207.107 410.305 206.17C411.246 205.256 411.989 204.157 412.488 202.943C412.986 201.728 413.229 200.425 413.201 199.112V177.804C413.201 173.414 415.322 171.216 419.564 171.21C423.966 171.21 426.168 173.408 426.168 177.804V214.164C426.168 218.329 423.966 220.411 419.564 220.411C418.422 220.436 417.296 220.135 416.32 219.542C415.477 219.035 414.805 218.289 414.389 217.399C413.024 218.85 411.337 219.961 409.465 220.643C407.119 221.532 404.625 221.964 402.118 221.917C399.051 221.953 396.011 221.341 393.196 220.121C390.57 218.98 388.221 217.284 386.313 215.149C384.345 212.893 382.849 210.267 381.91 207.425C380.834 204.192 380.305 200.801 380.346 197.394V177.824C380.346 173.434 382.447 171.236 386.651 171.229C391.092 171.229 393.312 173.427 393.312 177.824V199.122Z" fill="white"/>
<path d="M446.918 214.174C446.918 218.338 444.74 220.421 440.382 220.421C436.024 220.421 433.881 218.338 433.952 214.174V177.814C433.952 173.424 436.057 171.226 440.266 171.22C444.701 171.22 446.918 173.418 446.918 177.814V214.174Z" fill="white"/>
<path d="M467.866 214.061C467.866 218.296 465.648 220.417 461.214 220.423C457.004 220.423 454.899 218.302 454.899 214.061V177.701C454.899 173.388 456.985 171.229 461.156 171.222C462.33 171.183 463.48 171.563 464.4 172.294C465.249 172.989 465.973 173.646 466.601 174.225C469.143 171.212 473.35 169.706 479.22 169.706C482.216 169.675 485.187 170.246 487.958 171.386C490.569 172.463 492.905 174.113 494.793 176.214C496.756 178.471 498.249 181.097 499.186 183.938C500.276 187.281 500.804 190.781 500.75 194.297V213.983C500.75 218.219 498.552 220.339 494.156 220.346C489.908 220.346 487.784 218.225 487.784 213.983V192.559C487.79 191.23 487.517 189.914 486.982 188.697C486.446 187.517 485.704 186.441 484.791 185.521C483.864 184.59 482.77 183.843 481.566 183.32C480.349 182.784 479.034 182.508 477.704 182.509C476.373 182.496 475.055 182.773 473.842 183.32C472.672 183.843 471.615 184.59 470.733 185.521C469.852 186.443 469.149 187.52 468.658 188.697C468.152 189.922 467.896 191.235 467.904 192.559L467.866 214.061Z" fill="white"/>
</svg>
