<svg width="80" height="80" viewBox="0 0 80 80" fill="none" xmlns="http://www.w3.org/2000/svg">
<g id="dribbble">
<path id="Vector" d="M39.8157 76.6517C60.322 76.6517 76.9456 60.0281 76.9456 39.5218C76.9456 19.0155 60.322 2.39185 39.8157 2.39185C19.3094 2.39185 2.68579 19.0155 2.68579 39.5218C2.68579 60.0281 19.3094 76.6517 39.8157 76.6517Z" fill="#EC407A"/>
<path id="Vector_2" d="M39.8157 0.184204C17.9784 0.184204 0.210449 17.9521 0.210449 39.7895C0.210449 61.6268 17.9784 79.3947 39.8157 79.3947C61.653 79.3947 79.4209 61.6268 79.4209 39.7895C79.4209 17.9521 61.653 0.184204 39.8157 0.184204ZM74.4554 40.0865C66.2357 37.8833 57.6171 37.6156 49.2764 39.3043C48.158 36.5149 46.9494 33.7625 45.6525 31.0515C53.1363 27.5479 59.987 22.8269 65.9255 17.0808C71.4328 23.364 74.4695 31.4343 74.4703 39.7895C74.4703 39.8885 74.4554 39.9825 74.4554 40.0865ZM62.4253 13.5856C56.8855 18.9587 50.4913 23.3737 43.5039 26.6504C39.7876 19.548 35.4644 12.7801 30.5827 6.42203C33.5879 5.5767 36.6939 5.14368 39.8157 5.13486C48.1247 5.13357 56.1542 8.13477 62.4253 13.5856ZM25.6915 8.17456C30.6947 14.5429 35.1106 21.3515 38.885 28.5168C28.3872 32.5484 17.0698 33.9802 5.89875 32.6902C7.03339 27.3336 9.41765 22.3208 12.8572 18.0605C16.2968 13.8002 20.6944 10.4128 25.6915 8.17456ZM5.16111 39.7895C5.16111 39.0469 5.22546 38.3191 5.27497 37.5914C8.20576 37.9379 11.1365 38.1656 14.0574 38.1656C23.3746 38.1656 32.5283 36.3438 41.1078 33.0021C42.296 35.4774 43.4148 37.9874 44.4495 40.532C32.0354 44.2476 21.313 52.1904 14.1416 62.9833C8.36733 56.6382 5.16542 48.3686 5.16111 39.7895ZM17.7605 66.4982C24.3452 56.1595 34.4641 48.5672 46.2317 45.1362C49.3753 53.787 51.6183 62.7389 52.925 71.8499C47.1305 74.2366 40.7952 74.9995 34.5997 74.0566C28.4042 73.1137 22.5827 70.5007 17.7605 66.4982ZM57.5688 69.4934C56.2212 60.8059 54.053 52.2658 51.0933 43.9876C58.7178 42.5698 66.5671 42.9392 74.0247 45.0669C73.2428 50.0966 71.3631 54.8926 68.5191 59.1142C65.6751 63.3357 61.9365 66.8793 57.5688 69.4934Z" fill="#C2185B"/>
</g>
</svg>
