<svg width="80" height="80" viewBox="0 0 80 80" fill="none" xmlns="http://www.w3.org/2000/svg">
<g id="fb">
<path id="Vector" d="M79.6314 39.7894C79.6314 17.9161 61.8995 0.184204 40.0261 0.184204C18.1528 0.184204 0.420898 17.9161 0.420898 39.7894C0.420898 59.5575 14.904 75.9423 33.8378 78.9133V51.2378H23.7818V39.7894H33.8378V31.0639C33.8378 21.1378 39.7507 15.655 48.7973 15.655C53.1305 15.655 57.6629 16.4285 57.6629 16.4285V26.1751H52.6687C47.7488 26.1751 46.2145 29.228 46.2145 32.3601V39.7894H57.1987L55.4428 51.2378H46.2145V78.9133C65.1483 75.9423 79.6314 59.5575 79.6314 39.7894Z" fill="#1877F2"/>
<path id="Vector_2" d="M55.4427 51.2378L57.1987 39.7895H46.2144V32.3602C46.2144 29.2281 47.7487 26.1752 52.6686 26.1752H57.6628V16.4286C57.6628 16.4286 53.1304 15.655 48.7972 15.655C39.7506 15.655 33.8378 21.1379 33.8378 31.0639V39.7895H23.7817V51.2378H33.8378V78.9133C37.9383 79.5551 42.1138 79.5551 46.2144 78.9133V51.2378H55.4427Z" fill="white"/>
</g>
</svg>
