<svg width="80" height="80" viewBox="0 0 80 80" fill="none" xmlns="http://www.w3.org/2000/svg">
<g clip-path="url(#clip0_383_693)">
<rect x="0.0524902" width="79.2105" height="79.2105" rx="39.6052" fill="white"/>
<path d="M39.4947 -3C16.0294 -3 -2.99998 15.8213 -2.99998 39.0391C-3.00956 47.8507 -0.208183 56.4425 5.00825 63.6001C10.2247 70.7578 17.5924 76.1194 26.07 78.9271C28.195 79.3144 28.9706 78.0164 28.9706 76.9015C28.9706 75.9019 28.9334 73.2587 28.9122 69.752C17.0919 72.2904 14.595 64.115 14.595 64.115C12.6666 59.2579 9.87752 57.9651 9.87752 57.9651C6.01533 55.3586 10.1644 55.4109 10.1644 55.4109C14.4303 55.7093 16.6722 59.7446 16.6722 59.7446C20.4653 66.1667 26.6225 64.3139 29.045 63.2357C29.4275 60.5193 30.5272 58.6665 31.7438 57.6144C22.3088 56.5519 12.385 52.9457 12.385 36.8409C12.385 32.2507 14.0425 28.4979 16.7625 25.5565C16.3216 24.494 14.866 20.2178 17.1769 14.4343C17.1769 14.4343 20.7469 13.3038 28.8644 18.7418C32.3321 17.8082 35.9104 17.333 39.5053 17.3287C43.1004 17.3357 46.6786 17.8127 50.1462 18.7471C58.2584 13.309 61.8231 14.4395 61.8231 14.4395C64.1394 20.2283 62.6837 24.4992 62.2481 25.5617C64.9734 28.5032 66.615 32.2559 66.615 36.8461C66.615 52.9928 56.6806 56.5467 47.2137 57.5883C48.7384 58.8863 50.0984 61.4509 50.0984 65.3711C50.0984 70.9924 50.0453 75.525 50.0453 76.9015C50.0453 78.0268 50.8103 79.3353 52.9672 78.9219C61.4366 76.1075 68.7951 70.7439 74.0043 63.588C79.2135 56.432 82.0103 47.8451 82 39.0391C82 15.8213 62.9706 -3 39.4947 -3Z" fill="black"/>
</g>
<defs>
<clipPath id="clip0_383_693">
<rect x="0.0524902" width="79.2105" height="79.2105" rx="39.6052" fill="white"/>
</clipPath>
</defs>
</svg>
