<svg width="81" height="80" viewBox="0 0 81 80" fill="none" xmlns="http://www.w3.org/2000/svg">
<g clip-path="url(#clip0_234_1766)">
<rect x="0.842041" width="79.2105" height="79.2105" rx="39.6052" fill="#5EB939"/>
<path d="M55.6528 29.2406C50.2574 29.2406 46.0691 32.7405 44.3691 38.5099C41.7766 34.6169 39.8046 29.9419 38.6592 26.0021H32.8452V41.1002C32.8409 44.0837 30.4206 46.5041 27.4328 46.5084C24.4451 46.5041 22.0289 44.0816 22.0247 41.1002V26H16.2107V41.0981C16.2107 47.284 21.2491 52.3564 27.4349 52.3564C33.6251 52.3564 38.6613 47.284 38.6613 41.0981V38.5715C39.7854 40.9218 41.1731 43.306 42.8561 45.4119L39.2988 62.125H45.2424L47.8201 50.0019C50.0789 51.4448 52.6757 52.3585 55.6528 52.3585C62.0278 52.3585 67.2107 47.1522 67.2107 40.7879C67.2107 34.4171 62.0278 29.2406 55.6528 29.2406ZM55.6528 46.5211C53.3111 46.5211 51.1159 45.5288 49.1206 43.9138L49.6051 41.6315L49.6221 41.5423C50.0619 39.1134 51.4262 35.044 55.6549 35.044C58.8254 35.044 61.3988 37.6174 61.3988 40.7815C61.3967 43.9456 58.8233 46.5211 55.6528 46.5211Z" fill="white"/>
<g clip-path="url(#clip1_234_1766)">
<path d="M18.8077 82.6956C15.4813 82.6585 12.1862 82.0484 9.06698 80.8922C6.7892 80.0502 4.72837 78.7098 3.03518 76.969C1.28969 75.2792 -0.0526592 73.2179 -0.892157 70.9381C-2.04746 67.819 -2.65669 64.5241 -2.6931 61.1982C-2.94857 55.6689 -3 54.0104 -3 40C-3 25.9896 -2.94351 24.337 -2.69563 18.8035C-2.6548 15.4788 -2.04482 12.1857 -0.892157 9.06698C-0.048573 6.78882 1.29187 4.72717 3.0318 3.0318C4.72291 1.28788 6.7847 -0.053217 9.06445 -0.892157C12.1837 -2.04842 15.4788 -2.65851 18.8052 -2.69563C24.3362 -2.94857 25.9972 -3 40 -3C54.0028 -3 55.663 -2.94351 61.1965 -2.69563C64.522 -2.65509 67.816 -2.04511 70.9355 -0.892157C73.2143 -0.0521096 75.2755 1.28852 76.9673 3.03096C78.7103 4.72334 80.0515 6.78511 80.8922 9.06445C82.0487 12.1836 82.6591 15.4787 82.6965 18.8052C82.9494 24.3387 83.0008 25.9955 83.0008 40.0017C83.0008 54.0079 82.9494 55.6646 82.6965 61.1982C82.6563 64.5241 82.046 67.8185 80.8922 70.9381C80.0193 73.2004 78.6825 75.2548 76.9677 76.9692C75.2528 78.6836 73.198 80.0199 70.9355 80.8922C67.8164 82.0487 64.5212 82.6591 61.1948 82.6965C55.6663 82.9494 54.0045 83.0008 39.9983 83.0008C25.9921 83.0008 24.3354 82.9519 18.8069 82.6965" fill="url(#paint0_radial_234_1766)"/>
<path d="M18.8077 82.6956C15.4813 82.6585 12.1862 82.0484 9.06698 80.8922C6.7892 80.0502 4.72837 78.7098 3.03518 76.969C1.28969 75.2792 -0.0526592 73.2179 -0.892157 70.9381C-2.04746 67.819 -2.65669 64.5241 -2.6931 61.1982C-2.94857 55.6689 -3 54.0104 -3 40C-3 25.9896 -2.94351 24.337 -2.69563 18.8035C-2.6548 15.4788 -2.04482 12.1857 -0.892157 9.06698C-0.048573 6.78882 1.29187 4.72717 3.0318 3.0318C4.72291 1.28788 6.7847 -0.053217 9.06445 -0.892157C12.1837 -2.04842 15.4788 -2.65851 18.8052 -2.69563C24.3362 -2.94857 25.9972 -3 40 -3C54.0028 -3 55.663 -2.94351 61.1965 -2.69563C64.522 -2.65509 67.816 -2.04511 70.9355 -0.892157C73.2143 -0.0521096 75.2755 1.28852 76.9673 3.03096C78.7103 4.72334 80.0515 6.78511 80.8922 9.06445C82.0487 12.1836 82.6591 15.4787 82.6965 18.8052C82.9494 24.3387 83.0008 25.9955 83.0008 40.0017C83.0008 54.0079 82.9494 55.6646 82.6965 61.1982C82.6563 64.5241 82.046 67.8185 80.8922 70.9381C80.0193 73.2004 78.6825 75.2548 76.9677 76.9692C75.2528 78.6836 73.198 80.0199 70.9355 80.8922C67.8164 82.0487 64.5212 82.6591 61.1948 82.6965C55.6663 82.9494 54.0045 83.0008 39.9983 83.0008C25.9921 83.0008 24.3354 82.9519 18.8069 82.6965" fill="url(#paint1_radial_234_1766)"/>
<path d="M32.0011 39.9975C32.0012 38.4153 32.4705 36.8686 33.3497 35.5532C34.2289 34.2377 35.4784 33.2125 36.9403 32.6071C38.4021 32.0018 40.0107 31.8436 41.5625 32.1524C43.1143 32.4612 44.5397 33.2233 45.6584 34.3422C46.7771 35.4611 47.5388 36.8866 47.8473 38.4385C48.1558 39.9903 47.9972 41.5988 47.3915 43.0604C46.7858 44.5221 45.7602 45.7713 44.4445 46.6502C43.1287 47.529 41.5819 47.9979 39.9997 47.9977C37.8781 47.9973 35.8435 47.1543 34.3435 45.654C32.8435 44.1537 32.0009 42.119 32.0011 39.9975ZM27.6759 39.9975C27.6759 42.4348 28.3987 44.8174 29.7528 46.8439C31.107 48.8705 33.0317 50.45 35.2836 51.3827C37.5355 52.3154 40.0134 52.5595 42.4039 52.084C44.7945 51.6085 46.9904 50.4348 48.7139 48.7114C50.4375 46.9879 51.6112 44.7921 52.0867 42.4016C52.5622 40.0111 52.3182 37.5333 51.3854 35.2815C50.4526 33.0297 48.8731 31.1051 46.8464 29.751C44.8198 28.3969 42.4371 27.6741 39.9997 27.6741C38.3813 27.6741 36.7787 27.9928 35.2835 28.612C33.7882 29.2313 32.4296 30.139 31.2853 31.2834C30.1409 32.4277 29.2331 33.7863 28.6138 35.2814C27.9945 36.7766 27.6758 38.3791 27.6759 39.9975ZM49.9313 27.1858C49.9311 27.7554 50.0997 28.3123 50.416 28.786C50.7322 29.2597 51.1818 29.629 51.7079 29.8472C52.2341 30.0654 52.8131 30.1227 53.3718 30.0118C53.9304 29.9009 54.4437 29.6269 54.8467 29.2243C55.2496 28.8217 55.5241 28.3087 55.6354 27.7502C55.7468 27.1916 55.69 26.6126 55.4723 26.0863C55.2546 25.56 54.8856 25.11 54.4122 24.7934C53.9387 24.4768 53.382 24.3076 52.8124 24.3074C52.049 24.3077 51.3168 24.611 50.7769 25.1508C50.2369 25.6905 49.9332 26.4224 49.9326 27.1858M30.3049 59.5325C28.7831 59.5158 27.2754 59.2373 25.848 58.7092C24.8128 58.3102 23.8727 57.6989 23.0881 56.9146C22.3034 56.1303 21.6917 55.1905 21.2923 54.1555C20.7639 52.7283 20.4854 51.2206 20.4689 49.6988C20.3524 47.1693 20.3296 46.4093 20.3296 40.0006C20.3296 33.592 20.3549 32.8339 20.4689 30.3018C20.4874 28.7802 20.7659 27.2729 21.2923 25.8451C21.6913 24.8096 22.3028 23.8693 23.0875 23.0847C23.8721 22.3 24.8125 21.6885 25.848 21.2896C27.2753 20.7612 28.783 20.4827 30.3049 20.4662C32.8346 20.3497 33.5946 20.3269 40.0009 20.3269C46.4073 20.3269 47.168 20.3516 49.7001 20.4669C51.2218 20.4853 52.7292 20.7638 54.1571 21.2902C55.1925 21.6892 56.1329 22.3007 56.9176 23.0853C57.7022 23.87 58.3138 24.8103 58.7128 25.8457C59.2411 27.273 59.5196 28.7806 59.5361 30.3025C59.6527 32.8358 59.6755 33.592 59.6755 40.0013C59.6755 46.4106 59.652 47.168 59.5361 49.7001C59.5184 51.2218 59.2399 52.7292 58.7128 54.1568C58.3133 55.1917 57.7016 56.1316 56.917 56.9159C56.1324 57.7002 55.1922 58.3114 54.1571 58.7104C52.7297 59.2387 51.222 59.5173 49.7001 59.5338C47.1705 59.6503 46.4105 59.6731 40.0009 59.6731C33.5914 59.6731 32.8339 59.6497 30.3049 59.5338M30.1061 16.145C28.1147 16.1842 26.1444 16.5611 24.2792 17.2597C22.6847 17.8761 21.2367 18.819 20.0279 20.0277C18.8191 21.2365 17.8762 22.6845 17.2597 24.2789C16.5612 26.144 16.1843 28.1142 16.145 30.1055C16.0266 32.6642 16 33.4824 16 40C16 46.5176 16.0272 47.3352 16.145 49.8945C16.1843 51.8858 16.5612 53.856 17.2597 55.7211C17.8763 57.3155 18.8191 58.7635 20.0279 59.9722C21.2367 61.181 22.6848 62.1238 24.2792 62.7403C26.1445 63.4386 28.1147 63.8155 30.1061 63.855C32.6661 63.9715 33.4831 64 40.0009 64C46.5188 64 47.3365 63.9728 49.8958 63.855C51.8872 63.8156 53.8574 63.4387 55.7227 62.7403C57.3171 62.1238 58.7652 61.181 59.974 59.9722C61.1828 58.7635 62.1256 57.3155 62.7422 55.7211C63.4416 53.8562 63.8186 51.8859 63.8569 49.8945C63.9734 47.3339 64 46.5176 64 40C64 33.4824 63.9728 32.6648 63.8569 30.1055C63.8177 28.1142 63.4408 26.144 62.7422 24.2789C62.1257 22.6848 61.183 21.237 59.9746 20.0283C58.7662 18.8196 57.3186 17.8766 55.7246 17.2597C53.8595 16.5606 51.8892 16.1837 49.8977 16.145C47.3384 16.0279 46.5207 16 40.0041 16C33.4875 16 32.668 16.0272 30.1073 16.145" fill="white"/>
</g>
</g>
<defs>
<radialGradient id="paint0_radial_234_1766" cx="0" cy="0" r="1" gradientUnits="userSpaceOnUse" gradientTransform="translate(2.56555 81.1164) scale(109.188)">
<stop offset="0.09" stop-color="#FA8F21"/>
<stop offset="0.78" stop-color="#D82D7E"/>
</radialGradient>
<radialGradient id="paint1_radial_234_1766" cx="0" cy="0" r="1" gradientUnits="userSpaceOnUse" gradientTransform="translate(56.5693 78.3543) scale(96.0864)">
<stop offset="0.64" stop-color="#8C3AAA" stop-opacity="0"/>
<stop offset="1" stop-color="#8C3AAA"/>
</radialGradient>
<clipPath id="clip0_234_1766">
<rect x="0.842041" width="79.2105" height="79.2105" rx="39.6052" fill="white"/>
</clipPath>
<clipPath id="clip1_234_1766">
<rect width="86" height="86" fill="white" transform="translate(-3 -3)"/>
</clipPath>
</defs>
</svg>
