<svg width="80" height="80" viewBox="0 0 80 80" fill="none" xmlns="http://www.w3.org/2000/svg">
<g id="linkedin">
<path id="Vector" d="M79.2105 39.7895C79.2105 61.662 61.4778 79.3947 39.6052 79.3947C17.7325 79.3947 0 61.662 0 39.7895C0 17.9167 17.7325 0.184204 39.6052 0.184204C61.4778 0.184204 79.2105 17.9167 79.2105 39.7895Z" fill="#0A7BBA"/>
<path id="Vector_2" d="M63.2664 42.9747V59.3041H53.8003V44.0708C53.8003 40.2444 52.4352 37.6314 49.005 37.6314C46.3922 37.6314 44.8373 39.3929 44.1513 41.0959C43.8998 41.7027 43.8377 42.5472 43.8377 43.4022V59.3042H34.3682C34.3682 59.3042 34.4957 33.5017 34.3682 30.8306H43.8377V34.8668C43.8206 34.8979 43.793 34.9285 43.7756 34.9595H43.8377V34.8668C45.096 32.9298 47.34 30.1614 52.3696 30.1614C58.5989 30.1614 63.2664 34.2325 63.2664 42.9747ZM24.4678 17.1066C21.2273 17.1066 19.1108 19.2335 19.1108 22.0259C19.1108 24.7594 21.1654 26.9447 24.3438 26.9447H24.4024C27.7049 26.9447 29.7594 24.7596 29.7594 22.0259C29.6973 19.2337 27.7049 17.1066 24.4678 17.1066ZM19.6728 59.3042H29.1354V30.8306H19.6728V59.3042Z" fill="#F2F2F2"/>
</g>
</svg>
