<svg width="61" height="40" viewBox="0 0 61 40" fill="none" xmlns="http://www.w3.org/2000/svg">
<path d="M54.0478 1.09272C54.0534 1.12198 53.8566 1.19155 53.4803 1.29827L53.1655 1.38444C53.0497 1.41765 52.9246 1.45955 52.7884 1.50145L52.3492 1.63584L52.2295 1.67221L52.1083 1.71569C52.0296 1.74415 51.9414 1.77419 51.8541 1.80581C51.6801 1.86748 51.4951 1.92993 51.3031 2.00108L50.7064 2.24221C50.4962 2.32126 50.2853 2.42324 50.0649 2.52444L49.7264 2.6786C49.6107 2.7284 49.4997 2.79402 49.3824 2.85173C48.3263 3.38326 47.3229 4.01433 46.3857 4.73644C45.2529 5.60946 44.2205 6.60674 43.308 7.70975C42.2684 8.97779 41.3978 10.3765 40.7182 11.8705C40.6726 11.9685 40.6277 12.0666 40.5821 12.1654C40.5364 12.2642 40.4994 12.3678 40.4585 12.469C40.3798 12.6721 40.2892 12.8737 40.2145 13.0824L39.9933 13.7149C39.9539 13.82 39.9224 13.9275 39.8909 14.0359L39.7941 14.36C39.5319 15.2455 39.339 16.1503 39.2171 17.0661C39.2022 17.1823 39.1786 17.2977 39.1699 17.4155C39.1612 17.5333 39.1471 17.6527 39.1361 17.7689C39.114 18.0061 39.0849 18.2432 39.0794 18.4804C39.0739 18.7176 39.0542 18.9587 39.0479 19.1998V19.9256C39.084 21.8988 39.4331 23.8536 40.0822 25.7164L40.3317 26.3971C40.4207 26.6208 40.5183 26.8398 40.6104 27.0604C40.7025 27.281 40.808 27.4944 40.9095 27.7087C40.9615 27.8154 41.0126 27.9213 41.0669 28.0249C41.1213 28.1285 41.1779 28.2328 41.2322 28.3364C41.6643 29.153 42.1593 29.9344 42.7129 30.6733L42.9152 30.9437C42.9829 31.0338 43.049 31.1239 43.1222 31.2085L43.548 31.7224C43.6905 31.8915 43.8432 32.0497 43.9896 32.2125L44.21 32.4497L44.4399 32.6789C45.5948 33.8421 46.8956 34.8493 48.3095 35.6752C49.5468 36.3908 50.8597 36.9655 52.224 37.3883C53.3532 37.738 54.5129 37.9792 55.6875 38.1085C55.8174 38.1228 55.9449 38.1449 56.0708 38.1512L56.4408 38.1781C56.6832 38.1955 56.9131 38.2176 57.1406 38.2184L57.7837 38.2358C57.9883 38.2358 58.1828 38.2287 58.3677 38.2271L58.6369 38.2224H58.7652L58.8904 38.2145L59.3485 38.1868C59.491 38.1781 59.6232 38.1742 59.7421 38.1655L60.068 38.1354C60.4616 38.1038 60.6662 38.1006 60.6717 38.1299C60.6772 38.1591 60.4781 38.2184 60.0932 38.3062L59.7697 38.3765C59.65 38.3995 59.5178 38.4169 59.3761 38.439L58.914 38.5062L58.7889 38.5244L58.6582 38.5362L58.3858 38.56C58.1985 38.575 58.0009 38.5947 57.7923 38.6074L57.1358 38.6264C56.9068 38.6374 56.6636 38.6264 56.4195 38.6216L56.0386 38.6113C55.9095 38.6113 55.7788 38.594 55.645 38.5853C54.4313 38.5029 53.2291 38.2966 52.0571 37.9694C48.9782 37.1167 46.1671 35.4884 43.8905 33.2387L43.648 33.0015C43.5693 32.9224 43.4906 32.8363 43.4119 32.7533C43.2544 32.5849 43.097 32.422 42.9459 32.2473L42.4956 31.7153C42.4169 31.6275 42.3484 31.5342 42.2776 31.4409L42.0627 31.1603C41.4789 30.3934 40.9564 29.5813 40.5002 28.7317C40.4427 28.6226 40.3782 28.5182 40.3254 28.4059L40.1625 28.0731C40.0547 27.8502 39.9397 27.6288 39.8476 27.3972C39.7555 27.1656 39.6477 26.9371 39.5532 26.7039L39.2903 25.9924C38.6051 24.0458 38.2395 22.0002 38.208 19.9358C38.208 19.6821 38.208 19.4291 38.208 19.1769C38.208 18.9247 38.2316 18.6741 38.2434 18.4243C38.2552 18.1745 38.282 17.927 38.3064 17.6796L38.3442 17.3104C38.3536 17.187 38.3788 17.0661 38.3954 16.9443C38.5284 15.9882 38.7368 15.0442 39.0188 14.1212C39.0534 14.0082 39.0888 13.8959 39.1235 13.7837C39.1581 13.6714 39.1912 13.5591 39.2329 13.45L39.469 12.7947C39.5477 12.578 39.6446 12.3685 39.7304 12.1567C39.7752 12.0515 39.8193 11.9472 39.8634 11.8405L40.009 11.5345C41.3648 8.63014 43.4367 6.12171 46.0284 4.24708C47.0132 3.53111 48.0682 2.91788 49.177 2.41692C49.2998 2.36237 49.4131 2.30071 49.5375 2.25881L49.8901 2.11651C50.1215 2.02401 50.3419 1.93072 50.5608 1.86195L51.1826 1.65007C51.3826 1.5892 51.5762 1.5386 51.7557 1.48722L52.0194 1.41449L52.1461 1.3797L52.2697 1.35282L52.7262 1.25479C52.8671 1.22554 52.997 1.19629 53.1198 1.17573L53.448 1.12909C53.8393 1.07691 54.0478 1.06426 54.0478 1.09272Z" fill="white" stroke="white" stroke-width="0.25"/>
<path d="M40.8948 10.0078C40.8948 10.0236 40.768 10.0339 40.5673 9.92873C40.3666 9.82358 40.1163 9.59274 39.8754 9.24489C39.3882 8.54761 38.9222 7.40762 38.4743 5.94903C38.2484 5.21934 38.0272 4.40664 37.7918 3.53069C37.6738 3.09351 37.5557 2.63656 37.4109 2.18673C37.399 2.15274 37.3888 2.12586 37.377 2.09819C37.3671 2.07091 37.3518 2.0459 37.3321 2.02466C37.3188 2.0128 37.3038 2.03178 37.2967 2.04364C37.2885 2.05683 37.2811 2.07056 37.2747 2.08475C37.2613 2.11242 37.2503 2.14009 37.24 2.1638C37.1975 2.26579 37.1558 2.36777 37.1133 2.47054C37.0653 2.59229 37.0181 2.71403 36.97 2.83736C36.8756 3.08402 36.7827 3.33779 36.6906 3.59473C36.5064 4.10938 36.323 4.64222 36.1396 5.1885C35.9562 5.73478 35.7712 6.29529 35.5886 6.87003C35.4968 7.15675 35.4036 7.44662 35.3092 7.73966C35.2147 8.03269 35.1197 8.33232 35.0242 8.63853C34.5086 10.075 33.9915 11.5715 33.4137 13.1179C32.8359 14.6642 32.1771 16.2359 31.4395 17.8162C31.2296 18.2378 31.0234 18.656 30.8208 19.0708L30.6634 19.376L30.4989 19.6796L30.1714 20.2843L29.8463 20.8844C29.792 20.984 29.7377 21.0836 29.6842 21.1832L29.5118 21.4733L28.8278 22.6228L28.6585 22.9066C28.6026 23.0015 28.546 23.0964 28.4853 23.1865L28.1288 23.7344L27.4251 24.8135C27.3668 24.902 27.3109 24.9922 27.2503 25.0791C27.1897 25.1661 27.1283 25.2507 27.0677 25.336L26.7048 25.8475L25.9917 26.8508L25.8161 27.0974C25.7555 27.1765 25.6933 27.2555 25.6327 27.3346L25.269 27.8089C25.0282 28.122 24.7902 28.4303 24.5551 28.7339L24.2064 29.1861C24.1489 29.2612 24.0899 29.3347 24.0293 29.4059L23.8498 29.6209C23.6121 29.9071 23.3778 30.1883 23.1469 30.4644C22.2393 31.5831 21.3262 32.565 20.5107 33.4757L20.2077 33.8117L20.0589 33.9777L19.9062 34.1358L19.3166 34.7469L18.2343 35.8624L17.7431 36.3652C17.5857 36.5273 17.4282 36.6727 17.2771 36.8182L16.4537 37.6017C15.4596 38.5385 14.8928 39.0373 14.855 38.9978C14.8173 38.9583 15.3108 38.3859 16.2357 37.385L17.0079 36.555C17.1488 36.4032 17.3007 36.2498 17.4495 36.0806L17.9147 35.5581C18.2385 35.1981 18.5833 34.8139 18.949 34.4054L19.515 33.7777L19.6622 33.6196L19.8054 33.4512L20.0975 33.1081C20.8846 32.1784 21.7654 31.1815 22.6431 30.0541L23.3248 29.2043L23.4995 28.9877C23.5578 28.9157 23.616 28.8422 23.6711 28.7663L24.0096 28.3125L24.7031 27.3828C24.8196 27.2247 24.9392 27.0666 25.0565 26.9085C25.1156 26.8294 25.1762 26.7504 25.2344 26.6713L25.4052 26.4254L26.0995 25.4246L26.4529 24.9155L26.6316 24.6593C26.6899 24.5732 26.7442 24.4838 26.8016 24.3961L27.4872 23.3249C27.6022 23.1446 27.7187 22.9636 27.8352 22.7817C27.895 22.6916 27.9501 22.5983 28.0044 22.5042L28.1666 22.222L28.8348 21.0852C28.8907 20.9895 28.9474 20.8939 29.0041 20.7982L29.1615 20.5033C29.267 20.3065 29.3733 20.108 29.4803 19.9112C29.5874 19.7143 29.6936 19.5159 29.8015 19.3143L29.9628 19.0147C30.0124 18.9127 30.0628 18.8107 30.1132 18.708L30.7216 17.4715C31.4482 15.9141 32.107 14.3654 32.684 12.8364C33.261 11.3075 33.801 9.81015 34.3292 8.38713C34.4268 8.09146 34.5233 7.79869 34.6188 7.50881L34.9116 6.63919C35.1058 6.0663 35.3 5.50605 35.4941 4.95845C35.6886 4.41217 35.8822 3.87933 36.0798 3.3623C36.1782 3.10299 36.2774 2.84843 36.3797 2.59782C36.4301 2.47212 36.482 2.348 36.5371 2.22389L36.6158 2.03968L36.6575 1.94798L36.7205 1.80963C36.8036 1.61327 36.9121 1.42879 37.0433 1.26098C37.0902 1.20352 37.1505 1.15847 37.2188 1.12974C37.2495 1.11868 37.2794 1.10998 37.314 1.10049C37.3335 1.09503 37.3536 1.09211 37.3739 1.0918C37.3934 1.09645 37.4126 1.10253 37.4313 1.10998C37.4652 1.12421 37.4951 1.13765 37.5242 1.15188C37.5528 1.17138 37.5792 1.1939 37.6029 1.21908C37.6319 1.24655 37.6583 1.27673 37.6816 1.3092C37.7068 1.34241 37.7281 1.38826 37.7509 1.42542C37.838 1.6139 37.9093 1.80931 37.9642 2.00964C38.1012 2.49189 38.2074 2.9512 38.3129 3.39392C38.5215 4.27856 38.7112 5.09126 38.9041 5.82096C39.2858 7.28034 39.6771 8.41401 40.0754 9.11287C40.2155 9.38294 40.4048 9.62427 40.6334 9.82437C40.7932 9.95166 40.9019 9.98249 40.8948 10.0078Z" fill="white" stroke="white" stroke-width="0.25"/>
<path d="M27.0418 10.0078C27.0418 10.0236 26.915 10.0339 26.7143 9.92873C26.5136 9.82358 26.2633 9.59274 26.0224 9.24489C25.5351 8.54761 25.0692 7.40762 24.6213 5.94903C24.3954 5.21934 24.1742 4.40664 23.9388 3.53069C23.8207 3.09351 23.7027 2.63656 23.5578 2.18673C23.546 2.15274 23.5358 2.12586 23.524 2.09819C23.5141 2.07091 23.4988 2.0459 23.4791 2.02466C23.4657 2.0128 23.4508 2.03178 23.4437 2.04364C23.4354 2.05683 23.4281 2.07056 23.4216 2.08475C23.4083 2.11242 23.3972 2.14009 23.387 2.1638C23.3445 2.26579 23.3028 2.36777 23.2603 2.47054C23.2123 2.59229 23.165 2.71403 23.117 2.83736C23.0226 3.08402 22.9297 3.33779 22.8376 3.59473C22.6534 4.10938 22.47 4.64222 22.2866 5.1885C22.1032 5.73478 21.9182 6.29529 21.7316 6.87003C21.6398 7.15675 21.5467 7.44662 21.4522 7.73966C21.3577 8.03269 21.2628 8.33232 21.1672 8.63853C20.6517 10.075 20.1345 11.5715 19.5567 13.1179C18.979 14.6642 18.3201 16.2359 17.5826 17.8162C17.3727 18.2378 17.1664 18.656 16.9639 19.0708L16.8104 19.376L16.6459 19.6796L16.3184 20.2843L15.9933 20.8844C15.939 20.984 15.8847 21.0836 15.8312 21.1832L15.6588 21.4733L14.9747 22.6228L14.8055 22.9066C14.7496 23.0015 14.6929 23.0964 14.6323 23.1865L14.2757 23.7344L13.572 24.8135C13.5138 24.902 13.4579 24.9922 13.3973 25.0791C13.3367 25.1661 13.2753 25.2507 13.2147 25.336L12.8518 25.8475L12.1386 26.8508L11.9631 27.0974C11.9025 27.1765 11.8403 27.2555 11.7797 27.3346L11.416 27.8089C11.1752 28.122 10.9372 28.4303 10.7021 28.7339L10.3534 29.1861C10.2959 29.2612 10.2369 29.3347 10.1763 29.4059L9.99679 29.6209C9.75907 29.9071 9.52476 30.1883 9.29387 30.4644C8.38628 31.5831 7.47319 32.565 6.6577 33.4757L6.35464 33.8117L6.20587 33.9777L6.05317 34.1358L5.46359 34.7469L4.38126 35.8624L3.89008 36.3652C3.73265 36.5273 3.57522 36.6727 3.42408 36.8182L2.60072 37.6017C1.60655 38.5385 1.0398 39.0373 1.00202 38.9978C0.964236 38.9583 1.45778 38.3859 2.38268 37.385L3.15566 36.555C3.29578 36.4032 3.4477 36.2498 3.59647 36.0806L4.06167 35.5581C4.38546 35.1981 4.73023 34.8139 5.09599 34.4054L5.66195 33.7777L5.80915 33.6196L5.95241 33.4512L6.24444 33.1081C7.03159 32.1784 7.91241 31.1815 8.79009 30.0541L9.47176 29.2043L9.64651 28.9877C9.70476 28.9157 9.76301 28.8422 9.81811 28.7663L10.1566 28.3125L10.8501 27.3828C10.9666 27.2247 11.0862 27.0666 11.2035 26.9085C11.2625 26.8294 11.3231 26.7504 11.3814 26.6713L11.5522 26.4254L12.2465 25.4246L12.5999 24.9155L12.7786 24.6593C12.8368 24.5732 12.8911 24.4838 12.9486 24.3961L13.6342 23.3249C13.7491 23.1446 13.8656 22.9636 13.9821 22.7817C14.042 22.6916 14.0971 22.5983 14.1514 22.5042L14.3135 22.222L14.9818 21.0852C15.0377 20.9895 15.0944 20.8939 15.1511 20.7982L15.3085 20.5033C15.414 20.3065 15.5202 20.108 15.6273 19.9112C15.7343 19.7143 15.8406 19.5159 15.9484 19.3143L16.1098 19.0147C16.1594 18.9127 16.2098 18.8107 16.2601 18.708L16.8686 17.4715C17.5952 15.9141 18.254 14.3654 18.831 12.8364C19.408 11.3075 19.948 9.81015 20.4761 8.38713C20.5737 8.09146 20.6703 7.79869 20.7658 7.50881L21.0586 6.63919C21.2533 6.0663 21.4475 5.50605 21.6411 4.95845C21.8355 4.41217 22.0292 3.87933 22.2268 3.3623C22.3251 3.10299 22.4243 2.84843 22.5267 2.59782C22.577 2.47212 22.629 2.348 22.6841 2.22389L22.7628 2.03968L22.8045 1.94798L22.8675 1.80963C22.9505 1.61327 23.0591 1.42879 23.1902 1.26098C23.2372 1.20352 23.2975 1.15847 23.3658 1.12974C23.3965 1.11868 23.4264 1.10998 23.461 1.10049C23.4805 1.09503 23.5006 1.09211 23.5208 1.0918C23.5404 1.09645 23.5596 1.10253 23.5783 1.10998C23.6121 1.12421 23.642 1.13765 23.6712 1.15188C23.6997 1.17138 23.7261 1.1939 23.7499 1.21908C23.7789 1.24655 23.8053 1.27673 23.8286 1.3092C23.8538 1.34241 23.875 1.38826 23.8979 1.42542C23.9849 1.6139 24.0563 1.80931 24.1112 2.00964C24.2482 2.49189 24.3544 2.9512 24.4599 3.39392C24.6685 4.27856 24.8582 5.09126 25.051 5.82096C25.4328 7.28034 25.824 8.41401 26.2223 9.11287C26.3625 9.38294 26.5518 9.62427 26.7804 9.82437C26.9402 9.95166 27.0488 9.98249 27.0418 10.0078Z" fill="white" stroke="white" stroke-width="0.25"/>
<path d="M33.9883 10.0109C33.9883 10.0243 33.9662 10.0322 33.93 10.0346C33.8769 10.0374 33.8236 10.031 33.7726 10.0156C33.5831 9.95226 33.4105 9.84626 33.268 9.7057C32.8878 9.35706 32.5076 8.73331 32.1605 7.93405C31.8134 7.13478 31.4883 6.15369 31.1789 5.05955C31.0215 4.51248 30.8727 3.93616 30.7169 3.34324C30.6382 3.04677 30.5594 2.74557 30.4736 2.44673C30.4524 2.37321 30.4304 2.2989 30.4083 2.22458L30.3886 2.16055C30.3889 2.15925 30.3889 2.1579 30.3886 2.1566V2.1566L30.3674 2.19613L30.3139 2.29811C30.1714 2.57164 30.0368 2.8515 29.9069 3.12425C29.6464 3.67764 29.4047 4.21207 29.1772 4.72593C28.7222 5.75367 28.3271 6.68733 28.002 7.47315C27.6769 8.25897 27.4242 8.89616 27.2644 9.34046C27.1857 9.56103 27.1283 9.73574 27.0999 9.84563C27.0871 9.88571 27.081 9.92765 27.0818 9.96975C27.0818 10.0006 27.0952 10.0045 27.0818 10.0109C27.0688 10.0164 27.0545 10.0181 27.0405 10.0157C27.0265 10.0133 27.0136 10.007 27.0031 9.99742C26.9649 9.95323 26.9423 9.89769 26.9386 9.83931C26.9196 9.64645 26.9281 9.45186 26.9637 9.2614C27.0377 8.776 27.2148 8.09848 27.4762 7.27788C27.7375 6.45727 28.0831 5.49436 28.5058 4.43896C28.7175 3.91165 28.9481 3.36063 29.204 2.79458C29.3331 2.51156 29.4669 2.22458 29.6157 1.93287L29.6715 1.82377L29.707 1.75736L29.7644 1.65301C29.8373 1.51581 29.9193 1.38374 30.01 1.25772C30.0501 1.20356 30.0958 1.15375 30.1462 1.1091C30.1875 1.07437 30.234 1.04636 30.2839 1.02609C30.3282 1.00909 30.3751 1.00025 30.4225 1H30.4634C30.4785 1.00117 30.4933 1.00436 30.5075 1.00949L30.5862 1.03162L30.6547 1.05218C30.6767 1.06483 30.6972 1.07906 30.7185 1.0925L30.7798 1.14705C30.8007 1.16947 30.8204 1.19295 30.8389 1.21741C30.8593 1.24375 30.8775 1.27178 30.8932 1.30121C30.9118 1.33167 30.9289 1.36307 30.9444 1.39528C30.9743 1.46564 31.0073 1.53205 31.0325 1.60874C31.0577 1.68542 31.0868 1.75736 31.1112 1.83088L31.1451 1.93603L31.1624 1.99611L31.2309 2.23328C31.3175 2.54951 31.393 2.85229 31.467 3.15192C31.6111 3.74879 31.7504 4.32433 31.8834 4.87298C32.1503 5.96475 32.4124 6.93793 32.6824 7.73245C32.9524 8.52697 33.2334 9.13887 33.4987 9.50015C33.5975 9.63936 33.7142 9.76483 33.8458 9.8733C33.9371 9.94524 33.993 9.98161 33.9883 10.0109Z" fill="white" stroke="white" stroke-width="0.25"/>
</svg>
