<svg width="80" height="80" viewBox="0 0 80 80" fill="none" xmlns="http://www.w3.org/2000/svg">
<rect x="0.631348" width="79.2105" height="79.2105" rx="39.6052" fill="#5EB939"/>
<path d="M55.4421 29.2406C50.0468 29.2406 45.8584 32.7405 44.1584 38.5099C41.5659 34.6169 39.5939 29.9419 38.4485 26.0021H32.6345V41.1002C32.6303 44.0837 30.2099 46.5041 27.2221 46.5084C24.2344 46.5041 21.8183 44.0816 21.814 41.1002V26H16V41.0981C16 47.284 21.0384 52.3564 27.2243 52.3564C33.4144 52.3564 38.4506 47.284 38.4506 41.0981V38.5715C39.5747 40.9218 40.9624 43.306 42.6454 45.4119L39.0881 62.125H45.0317L47.6094 50.0019C49.8682 51.4448 52.465 52.3585 55.4421 52.3585C61.8171 52.3585 67 47.1522 67 40.7879C67 34.4171 61.8171 29.2406 55.4421 29.2406ZM55.4421 46.5211C53.1004 46.5211 50.9053 45.5288 48.9099 43.9138L49.3944 41.6315L49.4114 41.5423C49.8512 39.1134 51.2155 35.044 55.4443 35.044C58.6148 35.044 61.1881 37.6174 61.1881 40.7815C61.186 43.9456 58.6126 46.5211 55.4421 46.5211Z" fill="white"/>
</svg>
