<svg width="80" height="80" viewBox="0 0 80 80" fill="none" xmlns="http://www.w3.org/2000/svg">
<rect x="0.262939" width="79.2105" height="79.2105" rx="39.6052" fill="white"/>
<path d="M39.978 9.00016C39.8319 9.00252 39.687 9.02757 39.5486 9.07442C37.1589 9.1097 34.81 9.36583 32.5858 9.92155C31.621 10.1563 30.6675 10.4529 29.7208 10.7989C29.494 10.8245 29.2767 10.9047 29.0878 11.0327C27.8775 11.475 26.7028 11.9873 25.5871 12.5785C23.7556 13.5291 22.0402 14.7095 20.4351 16.022C20.2202 16.1092 20.0302 16.2481 19.8819 16.4263C19.732 16.5516 19.582 16.6766 19.4361 16.8113C17.578 18.462 15.9109 20.3328 14.4795 22.3974C14.0583 23.0027 13.6724 23.6331 13.3016 24.2677C13.1531 24.4347 13.0465 24.6346 12.9906 24.8508C11.3634 27.7279 10.1893 30.8989 9.56969 34.249C9.47487 34.4472 9.42775 34.6647 9.43208 34.8843C9.35008 35.3417 9.27148 35.8027 9.22017 36.2898C9.07416 37.5083 9 38.7419 9 40.0001C9 41.2583 9.07416 42.492 9.22017 43.7104C9.27148 44.1975 9.35008 44.6585 9.43208 45.1159C9.42818 45.3346 9.47529 45.5512 9.56969 45.7485C10.1887 49.0971 11.3593 52.2677 12.9851 55.1439C13.0418 55.3626 13.1504 55.5645 13.3016 55.7325C13.6728 56.3678 14.0578 56.9997 14.4795 57.6055C15.9124 59.6721 17.5798 61.5273 19.4306 63.1861C19.5761 63.3206 19.727 63.4434 19.8764 63.5684L19.8792 63.5712C20.0284 63.7521 20.2204 63.893 20.4379 63.981C20.4379 63.981 20.4406 63.981 20.4406 63.981C22.0444 65.2919 23.7574 66.4721 25.5871 67.4218C26.7028 68.0129 27.8775 68.5252 29.0878 68.9675C29.2759 69.0951 29.4922 69.1753 29.718 69.2013C30.6656 69.5477 31.6202 69.8437 32.5858 70.0787C34.81 70.6344 37.159 70.8905 39.5486 70.9258C39.8414 71.0247 40.1586 71.0247 40.4513 70.9258C42.841 70.8905 45.19 70.6344 47.4142 70.0787C48.379 69.8439 49.3325 69.5473 50.2792 69.2013C50.506 69.1758 50.7233 69.0955 50.9122 68.9675C52.1225 68.5252 53.2972 68.0129 54.4129 67.4218C56.2444 66.4711 57.9598 65.2907 59.5649 63.9783C59.7798 63.891 59.9698 63.7522 60.1181 63.5739C60.2695 63.4474 60.422 63.3223 60.5694 63.1861C62.4202 61.5273 64.0876 59.6721 65.5205 57.6055V57.6028C65.9417 56.9976 66.3276 56.3671 66.6984 55.7325C66.8469 55.5655 66.9535 55.3657 67.0094 55.1494C68.6366 52.2723 69.8107 49.1014 70.4303 45.7512C70.5251 45.5531 70.5722 45.3355 70.5679 45.1159C70.6498 44.6585 70.7285 44.1975 70.7798 43.7104C70.9258 42.492 71 41.2583 71 40.0001C71 38.7419 70.9258 37.5083 70.7798 36.2898C70.7285 35.8027 70.6499 35.3417 70.5679 34.8843C70.5718 34.6657 70.5247 34.4491 70.4303 34.2517C69.8113 30.9031 68.6407 27.7325 67.0149 24.8563C66.9582 24.6376 66.8496 24.4357 66.6984 24.2677C66.3276 23.6331 65.9417 23.0027 65.5205 22.3974V22.3947C64.0894 20.3308 62.4215 18.4615 60.5639 16.8113C60.4199 16.6784 60.2715 16.5555 60.1236 16.4318C60.1227 16.4309 60.1217 16.43 60.1208 16.429C59.9716 16.2481 59.7796 16.1072 59.5621 16.0192C59.5612 16.0192 59.5603 16.0192 59.5594 16.0192C57.9558 14.7084 56.2426 13.5282 54.4129 12.5785C53.2972 11.9873 52.1225 11.475 50.9122 11.0327C50.7241 10.9051 50.5078 10.8249 50.282 10.7989C49.3344 10.4525 48.3798 10.1565 47.4142 9.92155C45.19 9.36583 42.841 9.1097 40.4513 9.07442C40.299 9.02284 40.1389 8.99773 39.978 9.00016ZM29.4181 10.8869C29.4083 10.8904 29.4003 10.8973 29.3905 10.9007C29.3862 10.9024 29.3813 10.9018 29.3768 10.9035L29.4181 10.8869ZM50.5819 10.8869L50.6232 10.9035C50.6189 10.9018 50.614 10.9024 50.6095 10.9007C50.5997 10.8973 50.5917 10.8904 50.5819 10.8869ZM38.5909 12.0064V17.6365C37.2393 17.7219 35.8842 17.8046 34.6086 18.115C34.6077 18.115 34.6067 18.115 34.6058 18.115C34.28 18.1949 33.9622 18.3155 33.6398 18.4093L31.7133 13.1258C32.2266 12.968 32.7201 12.7867 33.26 12.6555C33.2628 12.6546 33.2655 12.6536 33.2683 12.6527C34.9608 12.2298 36.7746 12.0987 38.5909 12.0064ZM41.4091 12.0064C43.2254 12.0987 45.0391 12.2298 46.7317 12.6527C46.7345 12.6536 46.7372 12.6546 46.74 12.6555C47.2798 12.7867 47.7734 12.968 48.2867 13.1258L46.3602 18.4093C46.0378 18.3155 45.72 18.1949 45.3942 18.115C45.3933 18.115 45.3923 18.115 45.3914 18.115C44.1158 17.8046 42.7607 17.7219 41.4091 17.6365V12.0064ZM29.074 14.1077L30.9978 19.3967C30.5043 19.6121 30.0016 19.7951 29.5226 20.0541L29.5199 20.0568C28.7639 20.4546 28.0895 21.0093 27.376 21.4926C27.0881 21.5305 26.819 21.6563 26.6054 21.8529L23.0606 17.6337C24.2905 16.7033 25.5328 15.7777 26.8971 15.0703C26.9008 15.0685 26.9045 15.0667 26.9081 15.0648C27.6127 14.6916 28.347 14.4134 29.074 14.1077ZM50.926 14.1077C51.653 14.4134 52.3873 14.6916 53.0919 15.0648C53.0955 15.0667 53.0992 15.0685 53.1029 15.0703C54.4672 15.7777 55.7095 16.7033 56.9394 17.6337L53.3946 21.8529C53.1807 21.6573 52.9116 21.5324 52.624 21.4953C51.9101 21.0118 51.2365 20.4548 50.4801 20.0568C50.0001 19.7972 49.4968 19.6126 49.0022 19.3967L50.926 14.1077ZM20.8727 19.4077L24.5083 23.7369C23.3921 24.8005 22.3212 25.9215 21.4369 27.2024C21.359 27.3142 21.2995 27.4309 21.225 27.5435L16.3399 24.7243C16.4934 24.486 16.6339 24.2338 16.794 24.0037C16.794 24.0028 16.794 24.0019 16.794 24.0009C17.9705 22.304 19.3744 20.801 20.8727 19.4077ZM59.1273 19.4077C60.6256 20.801 62.0295 22.304 63.206 24.0009C63.206 24.0019 63.206 24.0028 63.206 24.0037C63.3661 24.2338 63.5066 24.486 63.6601 24.7243L58.775 27.5435C58.7005 27.4309 58.641 27.3142 58.5631 27.2024L58.5576 27.1969C57.6743 25.9184 56.606 24.7987 55.4917 23.7369L59.1273 19.4077ZM38.5909 20.4529V25.9895C36.5345 26.195 34.6123 26.8551 32.9105 27.8515L29.6355 23.3491C30.0465 23.0951 30.4043 22.7727 30.8354 22.546C30.84 22.5432 30.8446 22.5405 30.8492 22.5377C31.5644 22.15 32.3318 21.823 33.1142 21.5311C33.2212 21.5038 33.3247 21.4642 33.4224 21.4128C34.0151 21.1954 34.6243 21.009 35.2773 20.849L35.2746 20.8517C36.3371 20.5932 37.4683 20.5338 38.5909 20.4529ZM41.4091 20.4529C42.5317 20.5338 43.6629 20.5932 44.7254 20.8517L44.7227 20.849C45.3766 21.0093 45.9869 21.195 46.5803 21.4128C46.6797 21.4655 46.785 21.5061 46.8941 21.5338C47.6736 21.825 48.4381 22.1514 49.1508 22.5377C49.1554 22.5405 49.16 22.5432 49.1646 22.546C49.5957 22.7727 49.9535 23.0951 50.3645 23.3491L47.0895 27.8515C45.3877 26.8551 43.4655 26.195 41.4091 25.9895V20.4529ZM27.3072 24.9361L30.6345 29.5128C29.1418 30.8459 27.9283 32.4837 27.109 34.337L21.7561 32.5932C22.0737 31.7909 22.4228 31.0106 22.8487 30.2801C22.914 30.1906 22.9685 30.0937 23.0111 29.9913C23.2497 29.5815 23.4919 29.1848 23.7542 28.8087C23.7551 28.8068 23.756 28.805 23.7569 28.8032C24.6634 27.4903 25.731 26.2916 26.9164 25.2386C26.9182 25.2368 26.92 25.235 26.9219 25.2331C27.0089 25.1549 27.0585 25.1139 27.12 25.0626C27.1219 25.0617 27.1237 25.0608 27.1255 25.0599C27.1892 25.0234 27.2499 24.982 27.3072 24.9361ZM52.6928 24.9361C52.7485 24.9799 52.8074 25.0194 52.869 25.0543C52.9324 25.1068 52.9866 25.1508 53.0781 25.2331C53.08 25.235 53.0818 25.2368 53.0836 25.2386C54.269 26.2916 55.3366 27.4903 56.2431 28.8032C56.244 28.805 56.2449 28.8068 56.2458 28.8087C56.5086 29.1854 56.75 29.5835 56.9889 29.9941C57.0319 30.0985 57.0874 30.1973 57.154 30.2884C57.1549 30.2893 57.1559 30.2902 57.1568 30.2911C57.5774 31.0137 57.9269 31.7909 58.2521 32.5905L52.891 34.337C52.0717 32.4837 50.8582 30.8459 49.3655 29.5128L52.6928 24.9361ZM14.9886 27.1942L19.8737 30.0106C19.5479 30.6675 19.1866 31.3095 18.9324 31.9964V31.9992C18.8587 32.1879 18.8334 32.3994 18.7646 32.5905C18.6504 32.7363 18.5661 32.9032 18.5165 33.0816C18.4669 33.26 18.453 33.4464 18.4756 33.6302C18.3662 33.989 18.2605 34.3492 18.1701 34.7166L12.6108 33.7374C13.1302 31.436 13.9309 29.2447 14.9886 27.1942ZM65.0114 27.1942C66.069 29.2447 66.8698 31.436 67.3892 33.7374L61.8354 34.7166C61.745 34.3417 61.6377 33.9727 61.5272 33.6054C61.5642 33.2516 61.4659 32.8968 61.252 32.6125C61.1808 32.4125 61.1587 32.1942 61.0813 31.9964C60.8197 31.3122 60.4595 30.6659 60.1318 30.0079L65.0114 27.1942ZM39.8349 28.7427C39.9482 28.7565 40.0628 28.7565 40.1761 28.7427C42.4674 28.7778 44.5905 29.4852 46.3519 30.6845C46.4915 30.8507 46.6676 30.9825 46.8666 31.0695C48.5674 32.3758 49.8765 34.1544 50.6095 36.2155C50.628 36.4391 50.6997 36.6551 50.8186 36.8454C51.1091 37.8469 51.2727 38.9029 51.2727 40.0001C51.2727 41.0955 51.1081 42.1493 50.8186 43.1493C50.6989 43.3413 50.6271 43.5592 50.6095 43.7847C49.8774 45.8433 48.57 47.6194 46.8721 48.9252C46.6706 49.0131 46.4924 49.1468 46.3519 49.3158C44.5877 50.517 42.4607 51.2246 40.1651 51.2576C40.0518 51.2438 39.9372 51.2438 39.8239 51.2576C34.9911 51.1834 30.9236 48.0959 29.3905 43.7847C29.372 43.5611 29.3003 43.3451 29.1814 43.1548C28.8909 42.1533 28.7273 41.0974 28.7273 40.0001C28.7273 38.9047 28.8919 37.8509 29.1814 36.8509C29.3011 36.659 29.3729 36.441 29.3905 36.2155C30.9248 31.901 34.9972 28.8122 39.8349 28.7427ZM59.0833 35.2804C59.1788 35.6674 59.3316 36.0316 59.4025 36.4301C59.4101 36.5393 59.4304 36.6473 59.4631 36.7519C59.5069 37.0473 59.5511 37.335 59.5814 37.6073C59.5814 37.6109 59.5814 37.6146 59.5814 37.6183C59.674 38.3986 59.7273 39.2027 59.7273 40.0001C59.7273 40.7976 59.6741 41.6016 59.5814 42.382C59.5814 42.3856 59.5814 42.3893 59.5814 42.393C59.5509 42.667 59.5072 42.9564 59.4631 43.2539C59.4311 43.3557 59.4107 43.4609 59.4025 43.5674C59.3315 43.9668 59.179 44.332 59.0833 44.7198L53.7634 42.9898C53.9735 42.0249 54.0909 41.0267 54.0909 40.0001C54.0909 38.9736 53.9735 37.9753 53.7634 37.0104L59.0833 35.2804ZM20.9222 35.2832L26.2366 37.0104C26.0265 37.9753 25.9091 38.9736 25.9091 40.0001C25.9091 41.0267 26.0265 42.0249 26.2366 42.9898L20.9222 44.7171C20.8249 44.3307 20.6681 43.9631 20.5975 43.5674C20.5897 43.4591 20.5694 43.352 20.5369 43.2484C20.4932 42.953 20.4489 42.6652 20.4186 42.393C20.4186 42.3893 20.4186 42.3856 20.4186 42.382C20.3259 41.6016 20.2727 40.7976 20.2727 40.0001C20.2727 39.2027 20.3259 38.3987 20.4186 37.6183C20.4186 37.6146 20.4186 37.6109 20.4186 37.6073C20.4491 37.3333 20.4928 37.0439 20.5369 36.7464C20.5687 36.6454 20.5891 36.5411 20.5975 36.4356C20.6682 36.039 20.8247 35.6704 20.9222 35.2832ZM12.0356 36.4961L17.6087 37.478C17.5174 38.3008 17.4545 39.1448 17.4545 40.0001C17.4545 40.8554 17.5174 41.6994 17.6087 42.5223L12.0356 43.5042C12.0323 43.475 12.0249 43.4453 12.0218 43.4161C12.021 43.4088 12.0201 43.4015 12.0191 43.3941C11.885 42.282 11.8182 41.1566 11.8182 40.0001C11.8182 38.8436 11.885 37.7182 12.0191 36.6061C12.0201 36.5988 12.021 36.5914 12.0218 36.5841C12.0249 36.555 12.0323 36.5252 12.0356 36.4961ZM67.9644 36.4961C67.9676 36.5252 67.9751 36.555 67.9782 36.5841C67.979 36.5914 67.9799 36.5988 67.9809 36.6061C68.1149 37.7182 68.1818 38.8436 68.1818 40.0001C68.1818 41.1566 68.115 42.282 67.9809 43.3941C67.9799 43.4015 67.979 43.4088 67.9782 43.4161C67.9751 43.4453 67.9676 43.475 67.9644 43.5042L62.3913 42.5223C62.4826 41.6994 62.5455 40.8554 62.5455 40.0001C62.5455 39.1448 62.4826 38.3008 62.3913 37.478L67.9644 36.4961ZM18.1701 45.2837C18.2607 45.6519 18.3659 46.0132 18.4756 46.3728C18.4307 46.7431 18.5347 47.116 18.7646 47.4097C18.8334 47.6009 18.8587 47.8123 18.9324 48.0011V48.0038C19.1866 48.6907 19.5479 49.3328 19.8737 49.9896L14.9886 52.8061C13.9309 50.7555 13.1302 48.5642 12.6108 46.2628L18.1701 45.2837ZM61.8354 45.2837L67.3892 46.2628C66.8698 48.5642 66.069 50.7556 65.0114 52.8061L60.1318 49.9924C60.4595 49.3344 60.8197 48.688 61.0813 48.0038C61.159 47.8052 61.1805 47.5858 61.252 47.385C61.4666 47.0999 61.5649 46.7441 61.5272 46.3893C61.6371 46.0237 61.7454 45.6569 61.8354 45.2837ZM27.109 45.6632C27.9283 47.5165 29.1418 49.1544 30.6345 50.4875L27.3072 55.0642C27.2515 55.0204 27.1926 54.9808 27.131 54.9459C27.0676 54.8934 27.0134 54.8495 26.9219 54.7671C26.92 54.7653 26.9182 54.7634 26.9164 54.7616C25.731 53.7086 24.6634 52.51 23.7569 51.1971C23.756 51.1952 23.7551 51.1934 23.7542 51.1916C23.4914 50.8148 23.25 50.4168 23.0111 50.0061C22.9681 49.9018 22.9126 49.803 22.846 49.7118C22.846 49.7109 22.846 49.71 22.846 49.7091C22.4224 48.9815 22.0723 48.2059 21.7561 47.407L27.109 45.6632ZM52.891 45.6632L58.2521 47.4097C57.9257 48.2125 57.5739 48.9923 57.1513 49.7173C57.0858 49.8078 57.0313 49.9056 56.9889 50.0089C56.7503 50.4188 56.5081 50.8155 56.2458 51.1916C56.2449 51.1934 56.244 51.1952 56.2431 51.1971C55.3366 52.51 54.269 53.7086 53.0836 54.7616C53.0818 54.7634 53.08 54.7653 53.0781 54.7671C52.9911 54.8454 52.9415 54.8864 52.88 54.9376C52.8786 54.9388 52.8759 54.9391 52.8745 54.9404C52.8108 54.9769 52.7501 55.0182 52.6928 55.0642L49.3655 50.4875C50.8582 49.1544 52.0717 47.5165 52.891 45.6632ZM32.9105 52.1487C34.6123 53.1451 36.5345 53.8052 38.5909 54.0107V59.5473C37.4683 59.4664 36.3371 59.4071 35.2746 59.1485L35.2773 59.1513C34.6234 58.991 34.0131 58.8052 33.4197 58.5874C33.3203 58.5347 33.215 58.4941 33.1059 58.4664C32.3263 58.1752 31.5619 57.8489 30.8492 57.4625C30.8446 57.4597 30.84 57.457 30.8354 57.4543C30.4043 57.2275 30.0465 56.9051 29.6355 56.6511L32.9105 52.1487ZM47.0895 52.1487L50.3645 56.6511C49.9535 56.9051 49.5957 57.2275 49.1646 57.4543C49.16 57.457 49.1554 57.4597 49.1508 57.4625C48.4356 57.8502 47.6682 58.1773 46.8858 58.4692C46.7788 58.4964 46.6753 58.5361 46.5776 58.5874C45.9849 58.8048 45.3757 58.9912 44.7227 59.1513L44.7254 59.1485C43.6629 59.4071 42.5317 59.4664 41.4091 59.5473V54.0107C43.4655 53.8052 45.3877 53.1451 47.0895 52.1487ZM21.225 52.4568C21.301 52.5714 21.363 52.6894 21.4424 52.8033C22.3257 54.0817 23.394 55.2015 24.5083 56.2633L20.8727 60.5925C19.3709 59.1878 17.9679 57.6925 16.794 55.9993C16.794 55.9984 16.794 55.9975 16.794 55.9965C16.6339 55.7665 16.4934 55.5142 16.3399 55.2759L21.225 52.4568ZM58.775 52.4568L63.6601 55.2759C63.5066 55.5142 63.3661 55.7664 63.206 55.9965C63.206 55.9975 63.206 55.9984 63.206 55.9993C62.0321 57.6925 60.6291 59.1878 59.1273 60.5925L55.4917 56.2633C56.606 55.2015 57.6743 54.0817 58.5576 52.8033L58.5631 52.7978C58.641 52.686 58.7004 52.5693 58.775 52.4568ZM26.6054 58.1474C26.819 58.3439 27.0881 58.4698 27.376 58.5077C28.0895 58.9909 28.7639 59.5456 29.5199 59.9434L29.5226 59.9461C30.0016 60.2051 30.5043 60.3881 30.9978 60.6035L29.074 65.8926C28.347 65.5869 27.6127 65.3087 26.9081 64.9354C26.9045 64.9336 26.9008 64.9317 26.8971 64.9299C25.5327 64.2224 24.2905 63.2969 23.0606 62.3665L26.6054 58.1474ZM53.3946 58.1501L56.9394 62.3665C55.7095 63.2969 54.4672 64.2225 53.1029 64.9299C53.0992 64.9317 53.0955 64.9336 53.0919 64.9354C52.3873 65.3087 51.653 65.5869 50.926 65.8926L49.0022 60.6035C49.4957 60.3881 49.9984 60.2051 50.4774 59.9461L50.4801 59.9434C51.2361 59.5456 51.9105 58.9909 52.624 58.5077C52.9116 58.4706 53.1807 58.3457 53.3946 58.1501ZM33.6398 61.5909C33.9622 61.6847 34.28 61.8053 34.6058 61.8852C34.6067 61.8852 34.6077 61.8852 34.6086 61.8852C35.8842 62.1956 37.2393 62.2783 38.5909 62.3638V67.9939C36.7746 67.9015 34.9609 67.7704 33.2683 67.3475C33.2655 67.3466 33.2628 67.3457 33.26 67.3448C32.7201 67.2135 32.2266 67.0322 31.7133 66.8745L33.6398 61.5909ZM46.3602 61.5909L48.2867 66.8745C47.7734 67.0322 47.2798 67.2135 46.74 67.3448C46.7372 67.3457 46.7345 67.3466 46.7317 67.3475C45.0392 67.7703 43.2254 67.9015 41.4091 67.9939V62.3638C42.7607 62.2783 44.1158 62.1956 45.3914 61.8852C45.3923 61.8852 45.3933 61.8852 45.3942 61.8852C45.72 61.8053 46.0378 61.6847 46.3602 61.5909ZM29.3768 69.0968C29.3811 69.0985 29.386 69.0978 29.3905 69.0995C29.4003 69.1029 29.4083 69.1098 29.4181 69.1133L29.3768 69.0968ZM50.6232 69.0968L50.5819 69.1133C50.5918 69.1099 50.5997 69.1031 50.6095 69.0995C50.6138 69.098 50.6189 69.0984 50.6232 69.0968Z" fill="black"/>
</svg>
