<svg width="526" height="101" viewBox="0 0 526 101" fill="none" xmlns="http://www.w3.org/2000/svg">
<path d="M48.6772 74.8447C37.8566 74.8447 33.889 68.8934 33.889 59.0647V35.8906H25.3228V28.5867H27.1262C32.3561 28.5867 34.6104 25.6111 34.6104 21.1025V16.9546H42.9062V28.1359H54.4481V35.8906H42.9062V59.0647C42.9062 64.0241 44.7998 66.9998 50.9314 66.9998C52.1938 66.9998 53.3661 66.9096 54.4481 66.6391V74.3037C52.5545 74.6643 50.8413 74.8447 48.6772 74.8447Z" fill="#F7F9FC"/>
<path d="M79.5496 75.1152C67.7371 75.1152 61.876 67.3605 61.876 56.6301V28.1359H70.8931V54.7365C70.8931 63.3027 75.1312 66.9096 82.0744 66.9096C89.4685 66.9096 93.5262 61.5895 93.5262 53.3839V28.1359H102.543V74.1233H93.5262V68.3523C90.28 73.4921 84.8697 75.1152 79.5496 75.1152Z" fill="#F7F9FC"/>
<path d="M113.401 74.1233V28.1359H122.418V33.9069C125.754 28.8573 131.164 27.144 136.484 27.144C148.207 27.144 154.068 35.1693 154.068 46.3505V74.1233H145.051V47.5227C145.051 39.5877 140.903 35.3496 133.869 35.3496C126.385 35.3496 122.418 40.309 122.418 48.1539V74.1233H113.401Z" fill="#F7F9FC"/>
<path d="M164.474 74.1233V28.1359H173.491V74.1233H164.474ZM162.941 14.6102C162.941 11.2738 165.466 8.74902 168.983 8.74902C172.499 8.74902 175.024 11.2738 175.024 14.6102C175.024 18.0367 172.499 20.5615 168.983 20.5615C165.466 20.5615 162.941 18.0367 162.941 14.6102Z" fill="#F7F9FC"/>
<path d="M200.789 75.1152C189.698 75.1152 181.943 69.3442 181.402 58.7942H189.698C190.419 64.475 194.927 67.9015 201.42 67.9015C207.461 67.9015 210.076 65.4669 210.076 62.1305C210.076 51.9411 182.754 58.8843 182.754 40.4894C182.754 32.1034 189.517 27.144 200.067 27.144C210.707 27.144 217.921 33.1855 218.733 42.7437H210.437C209.625 37.6039 205.568 34.3577 199.797 34.3577C194.567 34.3577 191.501 36.4317 191.501 40.1287C191.501 50.6787 218.823 43.9159 218.733 61.6797C218.733 69.3442 213.322 75.1152 200.789 75.1152Z" fill="#F7F9FC"/>
<path d="M248.362 75.1152C234.475 75.1152 224.737 65.557 224.737 51.1296C224.737 36.7022 234.475 27.144 248.362 27.144C260.535 27.144 268.831 33.8167 270.634 45.8997H261.617C260.084 38.8663 254.944 35.0791 248.362 35.0791C239.795 35.0791 233.754 41.3911 233.754 51.1296C233.754 60.8681 239.795 67.1801 248.362 67.1801C254.764 67.1801 259.994 63.5733 261.527 56.8104H270.634C268.831 68.6229 260.355 75.1152 248.362 75.1152Z" fill="#F7F9FC"/>
<path d="M299.698 75.1152C285.811 75.1152 276.073 65.1963 276.073 51.1296C276.073 37.0629 285.811 27.144 299.698 27.144C313.584 27.144 323.322 37.0629 323.322 51.1296C323.322 65.1963 313.584 75.1152 299.698 75.1152ZM285.09 51.1296C285.09 60.5976 291.131 67.1801 299.698 67.1801C308.264 67.1801 314.305 60.5976 314.305 51.1296C314.305 41.6616 308.264 35.0791 299.698 35.0791C291.131 35.0791 285.09 41.6616 285.09 51.1296Z" fill="#F7F9FC"/>
<path d="M343.188 74.1233L325.154 28.1359H334.802L348.058 63.5733L361.403 28.1359H370.871L352.837 74.1233H343.188Z" fill="#F7F9FC"/>
<path d="M396.387 75.1152C382.501 75.1152 372.762 65.8275 372.762 51.1296C372.762 36.3415 382.501 27.144 396.387 27.144C408.561 27.144 419.471 34.2675 418.75 52.3018H381.78C382.23 61.4091 387.731 67.1801 396.387 67.1801C403.24 67.1801 407.659 64.0241 409.102 58.2531H418.209C415.955 69.1639 407.749 75.1152 396.387 75.1152ZM382.501 44.9979H409.462C408.47 38.5958 403.421 35.0791 396.387 35.0791C390.526 35.0791 384.575 37.6039 382.501 44.9979Z" fill="#F7F9FC"/>
<path d="M427.151 74.1233V28.1359H436.168V34.7184C439.685 28.4966 446.087 26.7833 452.58 27.2342V36.3415C443.653 35.1693 436.168 38.8663 436.168 50.7689V74.1233H427.151Z" fill="#F7F9FC"/>
<path d="M457.119 83.9095C467.138 83.9095 471.011 81.7879 473.084 75.025L473.535 73.5823L454.058 28.1359H463.797L478.224 63.1224L491.209 28.1359H500.677L481.741 76.8285C477.323 88.0999 472.002 92.4281 457.034 91.2559L457.119 83.9095Z" fill="#F7F9FC"/>
<path d="M450.857 91.4238V83.9095H26.3V91.4238H450.857Z" fill="#F7F9FC"/>
</svg>
