<svg width="600" height="400" viewBox="0 0 600 400" fill="none" xmlns="http://www.w3.org/2000/svg">
<g clip-path="url(#clip0_2301_3094)">
<path d="M150.31 193.301H180.149C189.678 193.301 195.453 191.671 199.688 188.123C204.116 184.575 206.234 179.013 206.234 172.205C206.234 167.698 204.982 163.863 203.25 161.37C201.517 159.068 199.688 157.438 197.571 155.904C198.629 154.178 200.073 151.877 201.421 149.575C203.443 145.932 204.694 142.767 204.694 138.26C204.694 132.411 202.095 127.329 197.763 124.356C193.913 121.768 189.101 121 181.689 121H150.31V193.301ZM161.957 182.37V162.041H181.015C185.443 162.041 188.138 162.424 190.352 163.767C193.239 165.781 194.394 168.465 194.394 172.205C194.394 175.561 193.528 178.054 191.41 179.781C189.293 181.602 186.213 182.37 180.341 182.37H161.957ZM161.957 151.11V131.932H180.63C184.865 131.932 187.849 132.123 189.774 133.274C191.988 134.521 192.854 136.534 192.854 139.411C192.854 142.192 191.892 144.301 190.544 146.699C189.678 148.137 188.715 149.767 187.849 151.11H161.957Z" fill="white"/>
<path d="M225.966 193.301V138.356L243.003 178.917H253.687L270.724 138.356V193.301H282.178V121H266.778L248.49 164.63L230.105 121H214.512V193.301H225.966Z" fill="white"/>
<path d="M317.119 193.301L329.15 148.137L341.182 193.301H356.486L370.732 121H358.989L347.824 178.246L335.407 131.932H322.99L310.573 178.246L299.408 121H287.472L301.718 193.301H317.119Z" fill="white"/>
<path d="M201.999 276.603V238.631H190.448V267.11C187.849 267.398 182.844 267.973 178.128 267.973C169.946 267.973 165.23 265.959 162.631 260.781C160.513 256.562 159.84 250.329 159.84 241.891C159.84 233.452 160.61 226.932 162.727 222.617C165.422 216.96 169.561 214.754 177.935 214.754C180.534 214.754 183.422 215.138 186.405 215.713C190.929 216.576 195.646 217.631 199.592 218.59V207.275C196.608 206.508 192.47 205.549 188.042 204.686C184.48 204.015 180.534 203.439 176.78 203.439C163.401 203.439 157.241 208.426 153.198 215.234C149.348 221.658 148 230.288 148 242.083C148 253.398 149.444 261.644 152.717 267.302C156.663 274.11 162.438 279 176.395 279C184.769 279 195.069 277.754 201.999 276.603Z" fill="white"/>
<path d="M222.167 277.37V251.001H239.204L254.798 277.37H268.37L251.718 249.275C253.546 247.357 256.53 244.001 258.84 241.22C262.594 236.617 264.905 232.11 264.905 225.59C264.905 219.261 262.594 213.412 258.456 209.96C253.836 206.029 248.445 205.07 239.59 205.07H210.521V277.37H222.167ZM222.167 239.877V216.193H238.338C244.499 216.193 247.578 216.672 249.696 218.11C252.199 219.836 253.065 222.33 253.065 225.686C253.065 229.521 251.429 232.302 249.311 234.987C248.06 236.521 246.424 238.439 245.076 239.877H222.167Z" fill="white"/>
<path d="M299.941 203.439C285.696 203.439 279.054 208.042 274.53 215.713C270.776 222.042 269.621 231.727 269.621 241.412C269.621 252.631 271.354 262.028 275.108 268.069C279.535 275.165 285.792 279 299.941 279C312.262 279 318.807 275.644 323.909 268.26C328.24 262.124 330.165 252.343 330.165 241.412C330.165 231.055 328.625 220.795 323.909 214.083C318.903 206.891 312.358 203.439 299.941 203.439ZM299.941 214.562C306.487 214.562 311.588 216.193 314.668 221.563C317.46 226.261 318.326 233.644 318.326 241.412C318.326 249.466 317.46 257.617 313.706 262.411C310.337 266.726 305.717 267.877 299.941 267.877C293.396 267.877 287.909 266.822 284.733 261.356C282.231 256.849 281.46 249.083 281.46 241.412C281.46 233.644 282.134 226.069 284.637 221.563C287.813 215.809 293.396 214.562 299.941 214.562Z" fill="white"/>
<path d="M337.602 205.07V249.562C337.602 259.822 338.757 267.206 343.666 272.384C348.479 277.658 354.832 279 364.65 279C373.89 279 380.339 277.466 385.248 272.576C390.445 267.398 391.6 260.398 391.6 249.562V205.07H379.954V249.85C379.954 257.425 379.473 261.932 376.296 264.904C373.601 267.302 369.462 267.877 364.65 267.877C359.74 267.877 355.505 267.302 352.907 264.809C349.73 261.74 349.249 257.233 349.249 249.85V205.07H337.602Z" fill="white"/>
<path d="M411.729 277.37V251.48C419.334 251.48 425.783 251.48 429.825 251.193C436.563 250.809 442.05 249.37 446.093 245.247C450.327 240.836 451.964 234.603 451.964 227.699C451.964 221.083 450.135 214.946 446.285 210.919C442.242 206.796 437.044 205.07 429.055 205.07H400.083V277.37H411.729ZM411.729 240.357V216.193H427.804C432.424 216.193 435.215 216.672 437.237 218.686C439.258 220.7 440.125 223.768 440.125 227.699C440.125 231.535 439.643 234.603 437.718 236.713C435.793 239.015 433.002 239.782 428.67 240.069C424.242 240.357 418.179 240.357 411.729 240.357Z" fill="white"/>
</g>
<defs>
<clipPath id="clip0_2301_3094">
<rect width="304" height="158" fill="white" transform="translate(148 121)"/>
</clipPath>
</defs>
</svg>
