<svg width="600" height="400" viewBox="0 0 600 400" fill="none" xmlns="http://www.w3.org/2000/svg">
<path fill-rule="evenodd" clip-rule="evenodd" d="M198.211 249.049L224.743 233.108C227.779 231.291 230.293 228.723 232.042 225.647C233.781 222.586 234.69 219.124 234.678 215.603L234.56 182.17C234.545 178.652 233.615 175.198 231.859 172.15C230.093 169.086 227.567 166.53 224.525 164.727L197.901 148.925C194.656 147 190.95 145.989 187.177 146C183.403 146.007 179.701 147.035 176.464 148.975L149.935 164.927C146.899 166.743 144.385 169.313 142.636 172.388C140.897 175.449 139.988 178.912 140 182.432L140.115 215.868C140.127 219.384 141.055 222.836 142.81 225.883C144.574 228.944 147.098 231.497 150.138 233.297L176.8 249.049C180.036 250.981 183.735 252.001 187.504 252C191.274 252.001 194.974 250.981 198.211 249.049ZM175.1 180.68L174.302 185.381C174.252 185.677 174.268 185.98 174.35 186.268C174.431 186.556 174.576 186.823 174.773 187.048C174.973 187.274 175.22 187.453 175.496 187.573C175.772 187.693 176.072 187.751 176.373 187.744C176.7 187.741 177.023 187.663 177.315 187.517L199.265 176.336C199.653 176.146 199.969 175.835 200.164 175.45C200.359 175.064 200.423 174.625 200.346 174.2L199.589 169.871C199.53 169.558 199.397 169.264 199.206 169.011C198.908 168.628 198.486 168.362 198.012 168.259C197.538 168.156 197.043 168.223 196.614 168.448L176.143 179.246C175.87 179.388 175.634 179.592 175.453 179.841C175.272 180.09 175.152 180.377 175.1 180.68ZM172.296 200.918L171.743 204.983C171.682 205.418 171.718 205.861 171.846 206.282C171.976 206.704 172.195 207.093 172.488 207.423C172.78 207.754 173.14 208.018 173.542 208.199C173.97 208.388 174.433 208.481 174.9 208.472C175.367 208.463 175.827 208.352 176.246 208.146L201.25 195.646C201.828 195.359 202.301 194.899 202.605 194.329C202.905 193.764 203.02 193.116 202.932 192.483L202.366 188.392C202.298 187.9 202.113 187.431 201.818 187.028C201.374 186.417 200.726 185.986 199.991 185.812C199.256 185.638 198.483 185.733 197.813 186.079L173.931 198.606C173.491 198.829 173.111 199.156 172.826 199.559C172.541 199.962 172.36 200.429 172.296 200.918ZM169.71 221.522L169.065 226.488H169.053C168.985 227.03 169.068 227.581 169.293 228.079C169.518 228.578 169.877 229.004 170.329 229.312C170.786 229.621 171.318 229.799 171.869 229.828C172.419 229.856 172.968 229.734 173.454 229.474L204.051 213.457C204.596 213.176 205.04 212.734 205.323 212.191C205.604 211.65 205.708 211.035 205.621 210.432L204.991 206.061C204.927 205.586 204.748 205.134 204.469 204.745C204.042 204.154 203.416 203.737 202.706 203.571C201.996 203.405 201.25 203.5 200.605 203.84L171.28 219.274C170.856 219.494 170.492 219.813 170.218 220.204C169.945 220.596 169.771 221.048 169.71 221.522Z" fill="white"/>
<path d="M282.896 172C294.07 172 307.401 180.724 307.401 196.896C307.401 199.445 305.832 200.719 303.088 200.719H264.861C265.645 212.775 274.957 218.362 283.877 218.362C288.581 218.362 292.894 216.892 296.227 214.147C297.501 213.167 298.285 212.677 299.167 212.677C300.834 212.677 301.814 213.853 301.814 215.324C301.814 216.206 301.422 217.088 299.951 218.46C295.835 222.185 289.856 224.047 283.681 224.047C271.33 224.047 258 215.716 258 198.073C258 180.626 271.722 172 282.896 172ZM282.896 177.881C275.055 177.881 265.743 183.37 264.861 195.328H300.932C300.147 183.37 290.836 177.881 282.896 177.881Z" fill="white"/>
<path d="M353.931 172.294C355.695 172.294 357.067 173.764 357.067 175.431C357.067 176.019 356.871 176.411 356.773 176.803L337.562 221.205C336.778 222.773 335.993 223.753 334.229 223.753C332.465 223.753 331.583 222.773 330.897 221.205L311.587 176.803C311.489 176.411 311.293 176.019 311.293 175.431C311.293 173.764 312.665 172.294 314.43 172.294C315.704 172.294 316.978 172.98 317.566 174.45L334.229 213.755L350.794 174.45C351.382 172.98 352.656 172.294 353.931 172.294Z" fill="white"/>
<path d="M385.891 172C397.065 172 410.395 180.724 410.395 196.896C410.395 199.445 408.827 200.719 406.083 200.719H367.856C368.64 212.775 377.952 218.362 386.871 218.362C391.576 218.362 395.889 216.892 399.221 214.147C400.496 213.167 401.28 212.677 402.162 212.677C403.828 212.677 404.808 213.853 404.808 215.324C404.808 216.206 404.416 217.088 402.946 218.46C398.829 222.185 392.85 224.047 386.675 224.047C374.325 224.047 360.995 215.716 360.995 198.073C360.995 180.626 374.717 172 385.891 172ZM385.891 177.881C378.05 177.881 368.738 183.37 367.856 195.328H403.926C403.142 183.37 393.83 177.881 385.891 177.881Z" fill="white"/>
<path d="M458.566 172.294C460.233 172.294 461.703 173.764 461.703 175.431C461.703 176.019 461.507 176.411 461.311 176.803L434.062 240.514C433.474 241.984 432.2 242.67 430.925 242.67C429.161 242.67 427.985 241.2 427.985 239.534C427.985 238.946 428.181 238.554 428.279 238.162L435.238 221.891L415.635 176.803C415.537 176.411 415.341 176.019 415.341 175.431C415.341 173.764 416.713 172.294 418.477 172.294C419.751 172.294 421.026 172.98 421.614 174.45L438.473 214.245L455.43 174.45C456.018 172.98 457.194 172.294 458.566 172.294Z" fill="white"/>
</svg>
