<svg width="600" height="400" viewBox="0 0 600 400" fill="none" xmlns="http://www.w3.org/2000/svg">
<path d="M190.869 254.334V144.697H212.796V237.262H260.723V254.334H190.869ZM317.32 256.213C306.252 256.213 296.698 253.864 288.658 249.165C280.722 244.362 274.614 237.732 270.333 229.274C266.051 220.712 263.911 210.845 263.911 199.672C263.911 188.5 266.051 178.632 270.333 170.07C274.614 161.508 280.722 154.826 288.658 150.022C296.698 145.219 306.252 142.818 317.32 142.818C330.685 142.818 341.649 146.159 350.211 152.842C358.773 159.524 364.046 168.922 366.03 181.034H341.91C340.657 175.187 337.89 170.697 333.609 167.564C329.432 164.327 323.898 162.709 317.006 162.709C310.533 162.709 304.999 164.223 300.404 167.251C295.81 170.175 292.26 174.404 289.754 179.938C287.352 185.472 286.152 192.05 286.152 199.672C286.152 207.295 287.352 213.873 289.754 219.407C292.26 224.836 295.81 229.065 300.404 232.093C304.999 235.017 310.533 236.479 317.006 236.479C323.898 236.479 329.432 235.017 333.609 232.093C337.785 229.065 340.5 224.784 341.753 219.25H365.873C363.889 230.84 358.616 239.925 350.054 246.503C341.596 252.977 330.685 256.213 317.32 256.213Z" fill="white"/>
<path d="M382.077 254.693V219.77H417V254.693H382.077Z" fill="white"/>
</svg>
