<svg width="600" height="400" viewBox="0 0 600 400" fill="none" xmlns="http://www.w3.org/2000/svg">
<mask id="path-1-inside-1_310_1172" fill="white">
<path fill-rule="evenodd" clip-rule="evenodd" d="M333.142 106.88C335.305 106.33 337.324 105.979 339.141 105.765V105.761C339.893 108.992 340.637 113.607 340.435 119.149C340.361 121.168 339.94 129.365 335.656 138.953C334.035 142.582 331.466 148.19 325.904 153.682C323.137 156.414 320.452 158.309 318.441 159.552C316.866 159.338 314.531 158.843 311.971 157.56C309.344 156.247 307.516 154.633 306.397 153.479C305.653 152.591 304.682 151.223 303.934 149.368C303.267 147.715 303.006 146.226 302.897 145.143C305.516 144.238 308.802 142.671 311.943 139.912C313.588 138.466 315.899 136.392 317.564 132.85C319.629 128.453 319.45 124.458 319.357 122.833C319.232 120.631 318.628 116.273 318.156 114.223C318.148 114.186 318.139 114.141 318.128 114.089C318.083 113.866 318.009 113.499 317.848 112.956C317.848 112.956 319.497 112.243 319.684 112.161C321.343 111.427 322.344 110.919 323.191 110.489C324.771 109.688 325.812 109.16 329.584 107.944C331.326 107.381 331.668 107.262 332.015 107.166C332.248 107.102 332.483 107.049 333.142 106.88Z"/>
</mask>
<path fill-rule="evenodd" clip-rule="evenodd" d="M333.142 106.88C335.305 106.33 337.324 105.979 339.141 105.765V105.761C339.893 108.992 340.637 113.607 340.435 119.149C340.361 121.168 339.94 129.365 335.656 138.953C334.035 142.582 331.466 148.19 325.904 153.682C323.137 156.414 320.452 158.309 318.441 159.552C316.866 159.338 314.531 158.843 311.971 157.56C309.344 156.247 307.516 154.633 306.397 153.479C305.653 152.591 304.682 151.223 303.934 149.368C303.267 147.715 303.006 146.226 302.897 145.143C305.516 144.238 308.802 142.671 311.943 139.912C313.588 138.466 315.899 136.392 317.564 132.85C319.629 128.453 319.45 124.458 319.357 122.833C319.232 120.631 318.628 116.273 318.156 114.223C318.148 114.186 318.139 114.141 318.128 114.089C318.083 113.866 318.009 113.499 317.848 112.956C317.848 112.956 319.497 112.243 319.684 112.161C321.343 111.427 322.344 110.919 323.191 110.489C324.771 109.688 325.812 109.16 329.584 107.944C331.326 107.381 331.668 107.262 332.015 107.166C332.248 107.102 332.483 107.049 333.142 106.88Z" fill="white"/>
<path d="M339.141 105.765L339.323 107.313L340.7 107.151V105.765H339.141ZM333.142 106.88L332.758 105.369L332.756 105.369L333.142 106.88ZM339.141 105.761L340.659 105.408L337.582 105.761H339.141ZM340.435 119.149L341.993 119.207L341.993 119.206L340.435 119.149ZM335.656 138.953L337.08 139.589L337.08 139.589L335.656 138.953ZM325.904 153.682L327 154.792L327 154.792L325.904 153.682ZM318.441 159.552L318.23 161.097L318.785 161.172L319.26 160.878L318.441 159.552ZM311.971 157.56L312.669 156.166L312.668 156.166L311.971 157.56ZM306.397 153.479L305.202 154.481L305.238 154.524L305.278 154.565L306.397 153.479ZM303.934 149.368L302.488 149.951L302.488 149.951L303.934 149.368ZM302.897 145.143L302.388 143.669L301.222 144.071L301.346 145.299L302.897 145.143ZM311.943 139.912L312.972 141.083L312.973 141.083L311.943 139.912ZM317.564 132.85L316.153 132.187L316.153 132.187L317.564 132.85ZM319.357 122.833L317.8 122.921L317.8 122.922L319.357 122.833ZM318.156 114.223L316.633 114.558L316.635 114.565L316.637 114.572L318.156 114.223ZM318.128 114.089L316.6 114.398L316.6 114.398L318.128 114.089ZM317.848 112.956L317.229 111.525L315.96 112.074L316.353 113.399L317.848 112.956ZM319.684 112.161L320.309 113.589L320.315 113.587L319.684 112.161ZM323.191 110.489L322.485 109.099L322.485 109.099L323.191 110.489ZM329.584 107.944L330.062 109.428L330.063 109.427L329.584 107.944ZM332.015 107.166L331.602 105.663L331.602 105.663L332.015 107.166ZM338.958 104.217C337.079 104.439 334.992 104.801 332.758 105.369L333.526 108.391C335.619 107.859 337.57 107.52 339.323 107.313L338.958 104.217ZM337.582 105.761V105.765H340.7V105.761H337.582ZM341.993 119.206C342.202 113.493 341.434 108.737 340.659 105.408L337.622 106.115C338.352 109.248 339.073 113.721 338.877 119.092L341.993 119.206ZM337.08 139.589C341.479 129.742 341.915 121.32 341.993 119.207L338.877 119.092C338.806 121.017 338.4 128.988 334.233 138.317L337.08 139.589ZM327 154.792C332.777 149.088 335.441 143.257 337.08 139.589L334.233 138.317C332.629 141.907 330.156 147.293 324.809 152.573L327 154.792ZM319.26 160.878C321.346 159.589 324.13 157.625 327 154.792L324.809 152.573C322.144 155.204 319.557 157.029 317.621 158.226L319.26 160.878ZM311.272 158.954C314.029 160.335 316.541 160.867 318.23 161.097L318.651 158.007C317.191 157.808 315.033 157.35 312.669 156.166L311.272 158.954ZM305.278 154.565C306.482 155.806 308.448 157.542 311.273 158.955L312.668 156.166C310.239 154.952 308.55 153.46 307.516 152.394L305.278 154.565ZM302.488 149.951C303.312 151.993 304.38 153.5 305.202 154.481L307.592 152.478C306.925 151.682 306.052 150.452 305.38 148.784L302.488 149.951ZM301.346 145.299C301.466 146.488 301.753 148.128 302.488 149.951L305.38 148.784C304.782 147.302 304.547 145.964 304.448 144.986L301.346 145.299ZM310.914 138.741C307.959 141.336 304.864 142.814 302.388 143.669L303.406 146.616C306.168 145.663 309.644 144.006 312.972 141.083L310.914 138.741ZM316.153 132.187C314.632 135.423 312.529 137.321 310.914 138.741L312.973 141.083C314.647 139.611 317.167 137.362 318.975 133.512L316.153 132.187ZM317.8 122.922C317.889 124.476 318.049 128.15 316.153 132.187L318.975 133.512C321.21 128.756 321.011 124.44 320.913 122.743L317.8 122.922ZM316.637 114.572C317.087 116.531 317.68 120.8 317.8 122.921L320.913 122.745C320.784 120.461 320.168 116.016 319.675 113.873L316.637 114.572ZM316.6 114.398C316.61 114.446 316.622 114.505 316.633 114.558L319.679 113.888C319.674 113.867 319.668 113.837 319.656 113.78L316.6 114.398ZM316.353 113.399C316.495 113.878 316.559 114.192 316.6 114.398L319.656 113.78C319.608 113.539 319.523 113.121 319.343 112.513L316.353 113.399ZM319.059 110.733C318.969 110.772 318.514 110.969 318.077 111.159C317.859 111.253 317.647 111.345 317.49 111.413C317.411 111.447 317.346 111.475 317.3 111.495C317.278 111.504 317.26 111.512 317.248 111.517C317.242 111.52 317.237 111.522 317.234 111.523C317.232 111.524 317.231 111.524 317.23 111.525C317.23 111.525 317.23 111.525 317.229 111.525C317.229 111.525 317.229 111.525 317.229 111.525C317.229 111.525 317.229 111.525 317.229 111.525C317.229 111.525 317.229 111.525 317.848 112.956C318.467 114.387 318.467 114.387 318.467 114.387C318.467 114.387 318.467 114.387 318.467 114.387C318.467 114.387 318.467 114.387 318.467 114.387C318.468 114.387 318.468 114.387 318.468 114.387C318.469 114.386 318.47 114.386 318.472 114.385C318.475 114.384 318.48 114.382 318.486 114.379C318.498 114.374 318.516 114.366 318.538 114.356C318.584 114.337 318.649 114.308 318.728 114.274C318.885 114.206 319.097 114.114 319.315 114.02C319.748 113.833 320.212 113.632 320.309 113.589L319.059 110.733ZM322.485 109.099C321.648 109.524 320.675 110.018 319.053 110.735L320.315 113.587C322.011 112.836 323.04 112.314 323.896 111.88L322.485 109.099ZM329.105 106.46C325.253 107.702 324.136 108.262 322.485 109.099L323.896 111.88C325.406 111.114 326.371 110.617 330.062 109.428L329.105 106.46ZM331.602 105.663C331.21 105.771 330.802 105.912 329.105 106.46L330.063 109.427C331.851 108.85 332.125 108.753 332.429 108.669L331.602 105.663ZM332.756 105.369C332.144 105.526 331.848 105.595 331.602 105.663L332.429 108.669C332.648 108.609 332.822 108.571 333.529 108.39L332.756 105.369Z" fill="white" mask="url(#path-1-inside-1_310_1172)"/>
<path d="M195.171 183.16H207.85L241.132 267.531H214.078L204.116 242.099H181.362C179.476 247.723 177.379 253.129 175.079 258.309C172.776 263.493 170.231 268.073 167.44 272.048C164.645 276.028 161.574 279.239 158.214 281.691C154.858 284.139 151.179 285.487 147.176 285.729C141.969 286.13 137.386 284.766 133.422 281.632C129.458 278.499 126.5 273.798 124.535 267.531C127.93 267.531 131.516 267.27 135.289 266.747C139.061 266.225 142.947 265.04 146.95 263.193C150.953 261.345 155.007 258.594 159.119 254.938C163.23 251.282 167.342 246.34 171.458 240.111C175.57 233.887 179.628 226.131 183.627 216.85C187.626 207.57 191.476 196.341 195.171 183.164V183.16ZM202.756 238.482L190.868 207.987C189.66 212.809 188.378 217.809 187.017 222.993C185.657 228.177 184.149 233.341 182.488 238.482H202.752H202.756Z" fill="white"/>
<path d="M326.407 160.086C330.854 155.518 337.827 148.241 341.873 136.462C346.683 122.458 344.742 110.419 343.615 105.317C347.708 105.017 351.629 105.667 355.382 107.273C359.135 108.879 362.437 111.085 365.297 113.891C366.821 115.388 368.174 117.021 369.359 118.787C370.396 120.334 371.304 121.987 372.079 123.741C373.323 126.551 373.814 128.854 373.954 129.521C374.188 130.655 374.309 131.598 374.363 132.077C374.453 132.873 374.578 133.941 374.546 135.277C374.507 137.059 374.239 137.378 374.145 139.491C374.098 140.527 374.071 141.128 374.149 141.88C374.352 143.848 375.096 145.247 375.973 146.857C376.604 148.019 377.587 149.578 379.056 151.234C378.031 150.844 375.84 150.182 373.186 150.704C372.543 150.829 370.945 151.16 369.335 152.314C368.677 152.785 368.248 153.23 366.868 154.859C365.485 156.488 364.795 157.303 363.883 158.468C362.023 160.846 360.227 162.502 358.184 164.381C353.94 168.29 349.59 170.699 346.417 172.429C342.75 174.433 337.609 176.853 331.096 178.786C325.975 180.365 319.59 182.084 312.15 183.51C301.677 185.517 293.629 186.09 291.45 186.231C280.872 186.917 272.313 186.406 266.571 185.833C256.839 184.859 251.379 183.323 246.935 181.589C244.909 180.797 243.256 180.03 242.098 179.461L264.779 236.572C265.461 238.377 265.461 240.282 264.779 242.286L260.047 254.618C259.875 255.121 260.047 255.596 260.557 256.044C261.068 256.496 261.536 256.27 261.964 255.366L262.093 255.066C264.65 248.651 266.782 243.237 268.489 238.825C270.192 234.413 271.494 230.554 272.391 227.245C273.287 223.936 273.817 221.079 273.989 218.674C274.16 216.269 273.965 213.915 273.412 211.608C272.854 209.304 271.981 206.872 270.789 204.315C269.592 201.759 268.103 198.726 266.31 195.219C265.882 194.314 266.439 193.866 267.975 193.866H290.744L261.197 267.55H248.791L213.786 178.564C211.206 178.202 207.527 177.449 203.82 175.812C201.661 174.857 200.172 173.903 199.798 173.661C197.787 172.351 196.454 171.096 196.103 170.757C193.647 168.403 192.275 166.065 191.71 165.032C190.935 163.609 190.003 161.894 189.586 159.392C189.224 157.229 189.422 155.522 189.535 154.606C189.855 152.002 190.685 150.08 191.102 149.165C192.155 146.842 193.788 144.803 196.22 143.151C198.652 141.498 201.828 140.57 205.749 140.368C209.16 140.169 212.36 140.496 215.341 141.346C218.327 142.2 221.141 143.653 223.784 145.707C226.991 148.198 228.543 151.012 230.289 154.052C233.461 159.575 232.717 160.982 235.788 165.534C236.766 166.984 238.618 169.689 241.771 172.137C243.677 173.618 246.401 175.275 252.906 177.079C256.769 178.151 263.083 179.585 272.012 179.998C276.947 180.228 282.314 180.478 289.396 179.336C299.452 177.714 306.561 174.32 308.237 173.497C310.076 172.593 318.179 168.555 326.415 160.097L326.407 160.086ZM211.99 172.067C211.756 171.517 211.346 170.278 210.758 168.349C210.173 166.419 207.792 160.565 206.852 158.499C205.917 156.434 204.783 154.598 203.454 152.992C202.129 151.386 200.605 150.583 198.886 150.583C198.063 150.583 197.377 150.774 196.824 151.16C196.703 151.246 196.461 151.425 196.189 151.756C195.308 152.824 195.113 154.239 195.054 154.871C194.817 157.49 195.733 159.785 196.15 160.701C196.968 162.51 197.982 163.675 199.124 164.989C199.739 165.698 200.675 166.766 202.144 167.92C203.048 168.629 204.67 169.779 206.942 170.714C208.871 171.509 210.629 171.888 211.986 172.071L211.99 172.067Z" fill="white"/>
<path d="M312.742 197.479C315.373 197.479 318.125 197.889 320.989 198.707C323.854 199.526 326.45 200.824 328.773 202.601C331.096 204.378 333.013 206.631 334.522 209.359C336.034 212.092 336.786 215.416 336.786 219.329C336.786 222.424 336.205 225.113 335.044 227.386C333.883 229.662 332.39 231.505 330.57 232.916C328.749 234.327 326.715 235.376 324.47 236.058C322.225 236.74 319.976 237.083 317.731 237.083C314.32 237.083 311.417 236.448 309.02 235.169C309.717 234.44 310.415 233.142 311.113 231.276C311.81 229.409 312.411 227.292 312.913 224.926C313.416 222.561 313.802 220.284 314.075 218.098C314.344 215.911 314.48 214.048 314.48 212.497C314.48 211.678 314.422 210.54 314.305 209.083C314.188 207.629 313.802 206.214 313.143 204.85C312.485 203.486 311.499 202.8 310.181 202.8C309.328 202.8 308.572 203.232 307.917 204.098C307.258 204.963 306.697 206.148 306.233 207.648C305.769 209.149 305.399 210.903 305.13 212.906C304.857 214.91 304.725 217.003 304.725 219.189C304.725 222.833 305.11 226.52 305.886 230.25C306.658 233.984 307.862 237.352 309.487 240.357C311.113 243.362 313.186 245.732 315.704 247.458C318.222 249.189 321.106 250.054 324.361 250.054H325.405C328.582 249.871 331.579 248.85 334.409 246.983C337.234 245.116 339.304 242.727 340.625 239.811C340.084 244.636 338.942 248.873 337.199 252.514C335.457 256.158 333.31 259.206 330.753 261.665C328.196 264.124 325.312 265.968 322.1 267.196C318.885 268.423 315.498 269.039 311.935 269.039C307.133 269.039 302.912 268.014 299.272 265.968C295.632 263.918 292.591 261.213 290.152 257.842C287.712 254.474 285.852 250.65 284.574 246.371C283.296 242.091 282.637 238.79 282.598 236.471C282.559 234.148 282.54 232.944 282.54 232.85C282.54 228.571 283.14 224.314 284.34 220.082C285.541 215.849 287.4 212.049 289.918 208.677C292.432 205.31 295.589 202.601 299.385 200.551C303.177 198.501 307.632 197.479 312.746 197.479H312.742Z" fill="white"/>
<path d="M342.22 204.581V200.485C347.329 197.027 352.092 193.407 356.508 189.626C360.924 185.849 364.717 181.729 367.893 177.267H370.45V200.485H374.515V204.581H370.45V237.492C370.45 241.682 370.489 245.163 370.567 247.938C370.645 250.717 370.816 252.923 371.089 254.56C371.358 256.201 371.767 257.358 372.309 258.044C372.851 258.726 373.588 259.069 374.515 259.069C375.135 259.069 375.868 258.956 376.721 258.726C377.571 258.5 378.541 258.157 379.625 257.701C377.146 262.07 374.359 265.259 371.261 267.262C368.162 269.265 364.873 270.267 361.388 270.267C357.05 270.267 353.76 269.195 351.515 267.059C349.267 264.92 347.641 262.211 346.636 258.933C345.63 255.655 345.084 251.991 345.01 247.938C344.932 243.888 344.893 239.948 344.893 236.124V204.577H342.224L342.22 204.581Z" fill="white"/>
<path d="M380.439 204.581V200.485C385.549 197.027 390.312 193.407 394.728 189.626C399.144 185.849 402.936 181.729 406.113 177.267H408.67V200.485H412.735V204.581H408.67V237.492C408.67 241.682 408.709 245.163 408.787 247.938C408.865 250.717 409.036 252.923 409.309 254.56C409.578 256.201 409.987 257.358 410.529 258.044C411.071 258.726 411.807 259.069 412.735 259.069C413.355 259.069 414.087 258.956 414.941 258.726C415.791 258.5 416.761 258.157 417.845 257.701C415.366 262.07 412.579 265.259 409.48 267.262C406.382 269.265 403.092 270.267 399.608 270.267C395.27 270.267 391.98 269.195 389.735 267.059C387.486 264.92 385.861 262.211 384.855 258.933C383.85 255.655 383.304 251.991 383.23 247.938C383.152 243.888 383.113 239.948 383.113 236.124V204.577H380.443L380.439 204.581Z" fill="white"/>
<path d="M447.346 197.479C449.976 197.479 452.728 197.889 455.593 198.707C458.458 199.526 461.053 200.824 463.376 202.601C465.699 204.378 467.617 206.631 469.125 209.359C470.634 212.092 471.39 215.416 471.39 219.329C471.39 222.424 470.809 225.113 469.648 227.386C468.486 229.662 466.993 231.505 465.177 232.916C463.357 234.327 461.322 235.376 459.077 236.058C456.828 236.74 454.583 237.083 452.338 237.083C448.928 237.083 446.024 236.448 443.627 235.169C444.325 234.44 445.023 233.142 445.716 231.276C446.414 229.409 447.014 227.292 447.517 224.926C448.02 222.561 448.406 220.284 448.678 218.098C448.947 215.911 449.084 214.048 449.084 212.497C449.084 211.678 449.025 210.54 448.908 209.083C448.792 207.629 448.406 206.214 447.747 204.85C447.088 203.486 446.102 202.8 444.785 202.8C443.931 202.8 443.175 203.232 442.52 204.098C441.862 204.963 441.3 206.148 440.836 207.648C440.373 209.149 440.002 210.903 439.733 212.906C439.461 214.91 439.328 217.003 439.328 219.189C439.328 222.833 439.714 226.52 440.49 230.25C441.261 233.984 442.466 237.352 444.091 240.357C445.716 243.362 447.79 245.732 450.308 247.458C452.822 249.189 455.71 250.054 458.96 250.054H460.005C463.181 249.871 466.179 248.85 469.008 246.983C471.834 245.116 473.908 242.727 475.225 239.811C474.683 244.636 473.541 248.873 471.799 252.514C470.057 256.158 467.909 259.206 465.352 261.665C462.796 264.124 459.911 265.968 456.7 267.196C453.484 268.423 450.097 269.039 446.535 269.039C441.733 269.039 437.512 268.014 433.872 265.968C430.231 263.918 427.191 261.213 424.751 257.842C422.311 254.474 420.452 250.65 419.174 246.371C417.895 242.091 417.237 238.79 417.198 236.471C417.159 234.148 417.139 232.944 417.139 232.85C417.139 228.571 417.739 224.314 418.94 220.082C420.14 215.849 421.999 212.049 424.517 208.677C427.031 205.31 430.188 202.601 433.985 200.551C437.777 198.501 442.232 197.479 447.346 197.479Z" fill="white"/>
<path d="M304 105.804C304.066 105.461 304.175 105.036 304.354 104.51C304.974 102.694 305.878 101.373 306.292 100.815C306.713 100.242 307.106 99.7979 307.391 99.4939C307.465 99.8252 307.582 100.238 307.749 100.733C307.913 101.228 308.151 101.704 308.463 102.164C308.774 102.624 309.188 103.017 309.702 103.345C310.216 103.676 310.856 103.84 311.627 103.84C312.286 103.84 312.875 103.703 313.389 103.427C313.904 103.15 314.344 102.803 314.71 102.382C315.077 101.961 315.353 101.486 315.537 100.952C315.72 100.422 315.813 99.8797 315.813 99.3302C315.813 97.7906 315.381 96.6058 314.519 95.7834C313.658 94.9571 312.641 94.5439 311.468 94.5439C310.368 94.5439 309.406 94.7934 308.579 95.2884C308.365 95.417 308.155 95.5573 307.956 95.7054C307.574 95.9899 307.071 96.4187 306.436 97.2138C305.824 97.9738 305.457 98.6091 305.056 99.3068C304.764 99.8213 304.429 100.503 303.77 101.848C302.889 103.649 302.764 103.957 302.64 104.35C302.523 104.713 302.441 105.044 302.371 105.356C301.057 105.056 299.693 104.892 298.29 104.892C296.528 104.892 294.829 105.145 293.219 105.609C293.149 105.235 293.048 104.81 292.896 104.346C292.767 103.953 292.642 103.645 291.765 101.844C291.107 100.499 290.771 99.8135 290.479 99.3029C290.082 98.6091 289.711 97.9738 289.099 97.2099C288.46 96.4187 287.961 95.986 287.579 95.7015C287.38 95.5534 287.17 95.4131 286.956 95.2845C286.129 94.7895 285.167 94.54 284.068 94.54C282.894 94.54 281.877 94.9532 281.016 95.7795C280.154 96.6058 279.722 97.7867 279.722 99.3263C279.722 99.8758 279.815 100.418 279.998 100.948C280.182 101.482 280.458 101.957 280.825 102.378C281.191 102.799 281.632 103.15 282.146 103.423C282.661 103.699 283.245 103.836 283.908 103.836C284.679 103.836 285.319 103.672 285.833 103.341C286.348 103.01 286.761 102.616 287.073 102.16C287.384 101.7 287.622 101.224 287.786 100.729C287.95 100.234 288.07 99.8213 288.144 99.49C288.433 99.794 288.823 100.238 289.244 100.811C289.657 101.373 290.561 102.69 291.181 104.506C291.43 105.235 291.539 105.773 291.594 106.155C284.8 108.829 279.987 115.447 279.987 123.191C279.987 133.302 288.183 141.502 298.298 141.502C308.412 141.502 316.609 133.306 316.609 123.191C316.609 115.076 311.327 108.201 304.019 105.8L304 105.804Z" fill="white"/>
<path d="M315.881 285.97C316.392 285.931 316.895 285.912 317.386 285.912C317.877 285.912 318.379 285.919 318.89 285.943C319.872 285.982 320.734 286.153 321.47 286.457C322.207 286.761 322.823 287.151 323.314 287.623C323.805 288.094 324.175 288.628 324.421 289.228C324.666 289.829 324.791 290.433 324.791 291.041C324.791 291.887 324.604 292.662 324.23 293.372C323.856 294.081 323.349 294.693 322.71 295.215C322.071 295.737 321.322 296.143 320.469 296.439C319.615 296.735 318.695 296.879 317.709 296.879C315.881 296.879 314.4 296.447 313.27 295.582C312.139 294.716 311.27 293.547 310.658 292.074C309.676 292.288 308.702 292.526 307.739 292.783C306.776 293.04 305.802 293.313 304.82 293.609C306.02 294.475 307.178 295.309 308.3 296.116C309.423 296.922 310.522 297.643 311.605 298.283C312.685 298.922 313.765 299.432 314.837 299.818C315.908 300.2 317.004 300.395 318.126 300.395C319.522 300.395 320.936 300.052 322.375 299.362C322.156 301.525 321.455 303.17 320.266 304.304C319.077 305.435 317.421 306 315.297 306C313.702 306 312.214 305.68 310.83 305.041C309.442 304.402 308.102 303.579 306.804 302.578C305.506 301.576 304.243 300.446 303.015 299.187C301.787 297.928 300.544 296.669 299.285 295.41C297.909 295.862 296.526 296.291 295.142 296.692C293.755 297.094 292.355 297.448 290.94 297.753C289.526 298.057 288.099 298.294 286.665 298.462C285.23 298.629 283.765 298.684 282.268 298.626C280.577 298.567 279.201 298.216 278.141 297.577C277.081 296.938 276.321 296.155 275.868 295.231C275.416 294.307 275.272 293.317 275.44 292.265C275.607 291.212 276.083 290.234 276.87 289.33C277.657 288.426 278.753 287.673 280.16 287.073C281.567 286.473 283.282 286.173 285.305 286.173C286.661 286.173 287.955 286.266 289.183 286.453C290.41 286.64 291.587 286.898 292.706 287.221C293.825 287.545 294.904 287.931 295.937 288.371C296.97 288.815 297.956 289.291 298.903 289.801C300.653 289.271 302.411 288.745 304.184 288.223C305.954 287.701 307.735 287.252 309.524 286.882M282.565 293.313C284.373 293.352 286.279 293.157 288.286 292.725C290.293 292.292 292.386 291.762 294.569 291.131C293.096 289.989 291.537 289.061 289.896 288.344C288.255 287.627 286.458 287.268 284.513 287.268C283.235 287.268 282.144 287.416 281.239 287.708C280.335 288.005 279.622 288.367 279.1 288.8C278.577 289.232 278.254 289.704 278.125 290.215C277.997 290.725 278.071 291.208 278.347 291.661C278.624 292.113 279.111 292.495 279.809 292.81C280.507 293.126 281.426 293.294 282.568 293.313H282.565ZM322.679 293.313C322.679 292.881 322.55 292.538 322.297 292.28C322.039 292.023 321.72 291.832 321.338 291.703C320.956 291.575 320.55 291.485 320.13 291.438C319.705 291.388 319.346 291.353 319.054 291.337C318.286 291.318 317.522 291.318 316.754 291.337C317.226 292.752 317.814 293.746 318.524 294.315C319.233 294.884 319.911 295.168 320.558 295.168C321.147 295.168 321.65 294.985 322.063 294.623C322.476 294.26 322.682 293.82 322.682 293.309L322.679 293.313Z" fill="white"/>
</svg>
