<svg width="600" height="400" viewBox="0 0 600 400" fill="none" xmlns="http://www.w3.org/2000/svg">
<path d="M112.042 221.342C100.329 221.342 92.4338 213.099 92 204.423H97.6396C98.247 210.323 103.626 215.963 112.042 215.963C121.586 215.963 126.358 209.889 126.358 204.249C126.358 197.742 120.545 194.619 114.645 193.144L106.576 191.235C94.2559 188.285 92.4338 181.084 92.4338 176.312C92.4338 166.421 101.544 160 111.435 160C121.586 160 129.655 166.247 130.002 176.225H124.276C123.929 169.631 118.463 165.379 111.262 165.379C104.494 165.379 98.1602 169.631 98.1602 176.312C98.1602 179.088 99.0278 183.86 107.964 185.942L116.034 187.851C125.491 190.194 132.085 195.313 132.085 203.989C132.085 212.405 125.144 221.342 112.042 221.342Z" fill="white"/>
<path d="M171.438 179.956H177.425L152.003 240.17H146.103L154.432 219.954L137.687 179.956H143.674L157.469 213.099L171.438 179.956Z" fill="white"/>
<path d="M205.54 179.088C215.345 179.088 222.025 185.682 222.025 196.875V220.474H216.473V197.135C216.473 189.326 211.527 184.554 205.02 184.554C198.512 184.554 191.658 188.198 191.485 198.002V220.474H185.932V179.956H191.485V187.244C193.914 181.431 200.508 179.088 205.54 179.088Z" fill="white"/>
<path d="M269.254 179.956H274.807V220.474H269.254V212.579C266.217 218.132 259.883 221.342 253.116 221.342C241.837 221.342 232.553 212.492 232.553 200.172C232.553 187.851 241.75 179.088 253.116 179.088C259.97 179.088 266.217 182.298 269.254 187.764V179.956ZM253.55 216.049C261.966 216.049 269.254 209.716 269.254 200.345C269.254 190.541 261.619 184.381 253.55 184.381C245.047 184.381 238.106 191.148 238.106 200.085C238.106 209.108 245.047 216.049 253.55 216.049Z" fill="white"/>
<path d="M310.4 179.088C321.766 179.088 330.963 187.938 330.963 200.258C330.963 212.579 321.766 221.342 310.4 221.342C303.546 221.342 297.299 218.132 294.262 212.579V240.17H288.709V179.956H294.262V187.938C297.212 182.385 303.633 179.088 310.4 179.088ZM309.966 216.049C318.556 216.049 325.497 209.282 325.497 200.345C325.497 191.322 318.556 184.381 309.966 184.381C301.55 184.381 294.262 190.714 294.262 200.085C294.262 209.889 301.897 216.049 309.966 216.049Z" fill="white"/>
<path d="M353.542 221.342C346.514 221.342 339.486 217.264 338.792 209.542H343.911C344.519 212.926 347.642 216.396 353.542 216.396C359.355 216.396 362.912 213.533 362.912 209.455C362.912 206.158 360.657 203.989 356.492 202.948L350.679 201.56C344.952 200.172 340.354 197.222 340.354 190.454C340.354 183.86 345.994 179.088 353.716 179.088C360.483 179.088 366.73 182.819 366.99 190.107H361.611C361.351 186.463 357.793 184.034 353.802 184.034C349.117 184.034 345.907 186.723 345.907 190.541C345.907 194.358 349.204 196.007 352.154 196.701L358.14 198.176C366.036 200.085 368.465 204.857 368.465 209.542C368.465 216.743 361.958 221.342 353.542 221.342Z" fill="white"/>
<path d="M417.115 200.085C417.115 200.866 417.115 201.733 417.028 202.514H382.149C383.103 211.191 389.177 216.049 397.333 216.049C402.885 216.049 407.831 213.533 410.521 209.108L415.293 211.191C411.735 217.698 404.794 221.342 397.159 221.342C385.706 221.342 376.509 212.926 376.509 200.085C376.509 187.244 385.706 179.088 397.159 179.088C408.699 179.088 417.115 187.244 417.115 200.085ZM382.236 197.742H411.649C410.868 189.326 405.055 184.381 397.159 184.381C389.177 184.381 383.277 189.066 382.236 197.742Z" fill="white"/>
<path d="M430.11 221.342C427.768 221.342 425.772 219.607 425.772 217.264C425.772 214.835 427.768 213.099 430.11 213.099C432.626 213.099 434.622 214.835 434.622 217.264C434.622 219.607 432.626 221.342 430.11 221.342Z" fill="white"/>
<path d="M479.639 179.956H485.191V220.474H479.639V212.579C476.602 218.132 470.268 221.342 463.501 221.342C452.221 221.342 442.938 212.492 442.938 200.172C442.938 187.851 452.135 179.088 463.501 179.088C470.355 179.088 476.602 182.298 479.639 187.764V179.956ZM463.934 216.049C472.35 216.049 479.639 209.716 479.639 200.345C479.639 190.541 472.003 184.381 463.934 184.381C455.432 184.381 448.491 191.148 448.491 200.085C448.491 209.108 455.432 216.049 463.934 216.049Z" fill="white"/>
<path d="M501.87 168.937C499.615 168.937 497.619 167.288 497.619 165.032C497.619 162.69 499.615 161.041 501.87 161.041C504.3 161.041 506.209 162.69 506.209 165.032C506.209 167.288 504.3 168.937 501.87 168.937ZM499.094 220.474V179.956H504.647V220.474H499.094Z" fill="white"/>
</svg>
