<svg width="842" height="61" viewBox="0 0 842 61" fill="none" xmlns="http://www.w3.org/2000/svg">
<path d="M13.274 47V8.875H21.936V47H13.274ZM0.403 10.095V2.47H34.807V10.095H0.403ZM38.0004 47V2.47H46.4794V28.456H45.0154C45.0154 25.1213 45.4424 22.295 46.2964 19.977C47.1504 17.659 48.4111 15.89 50.0784 14.67C51.7864 13.45 53.9418 12.84 56.5444 12.84H56.9104C60.6924 12.84 63.5594 14.1413 65.5114 16.744C67.4634 19.3467 68.4394 23.1287 68.4394 28.09V47H59.9604V27.297C59.9604 25.1823 59.3504 23.515 58.1304 22.295C56.9511 21.075 55.3854 20.465 53.4334 20.465C51.3594 20.465 49.6718 21.1563 48.3704 22.539C47.1098 23.881 46.4794 25.65 46.4794 27.846V47H38.0004ZM89.3281 48.159C86.4815 48.159 83.9805 47.671 81.8251 46.695C79.7105 45.719 77.9415 44.4177 76.5181 42.791C75.1355 41.1237 74.0781 39.2733 73.3461 37.24C72.6548 35.2067 72.3091 33.1327 72.3091 31.018V29.859C72.3091 27.663 72.6548 25.5483 73.3461 23.515C74.0781 21.441 75.1355 19.611 76.5181 18.025C77.9415 16.3983 79.6901 15.1173 81.7641 14.182C83.8381 13.206 86.2375 12.718 88.9621 12.718C92.5408 12.718 95.5298 13.511 97.9291 15.097C100.369 16.6423 102.199 18.696 103.419 21.258C104.639 23.7793 105.249 26.504 105.249 29.432V32.482H75.9081V27.297H99.9421L97.3191 29.859C97.3191 27.7443 97.0141 25.9347 96.4041 24.43C95.7941 22.9253 94.8588 21.7663 93.5981 20.953C92.3781 20.1397 90.8328 19.733 88.9621 19.733C87.0915 19.733 85.5055 20.16 84.2041 21.014C82.9028 21.868 81.9065 23.1083 81.2151 24.735C80.5645 26.321 80.2391 28.2323 80.2391 30.469C80.2391 32.543 80.5645 34.3933 81.2151 36.02C81.8658 37.606 82.8621 38.8667 84.2041 39.802C85.5461 40.6967 87.2541 41.144 89.3281 41.144C91.4021 41.144 93.0898 40.7373 94.3911 39.924C95.6925 39.07 96.5261 38.033 96.8921 36.813H104.7C104.212 39.0903 103.277 41.083 101.894 42.791C100.511 44.499 98.7425 45.8207 96.5871 46.756C94.4725 47.6913 92.0528 48.159 89.3281 48.159ZM149.531 60.115C146.969 60.115 144.733 59.7897 142.821 59.139C140.951 58.529 139.487 57.3903 138.429 55.723C137.372 54.0963 136.843 51.7783 136.843 48.769V42.425H144.895V49.318C144.895 50.5787 145.241 51.5343 145.932 52.185C146.664 52.8763 147.64 53.222 148.86 53.222H155.814V60.115H149.531ZM140.991 48.159C136.965 48.159 133.468 47.4473 130.499 46.024C127.571 44.6007 125.131 42.7503 123.179 40.473C121.268 38.155 119.824 35.6743 118.848 33.031C117.913 30.347 117.445 27.7647 117.445 25.284V23.942C117.445 21.2173 117.933 18.513 118.909 15.829C119.885 13.1043 121.349 10.644 123.301 8.448C125.294 6.252 127.754 4.50333 130.682 3.202C133.61 1.86 137.047 1.189 140.991 1.189C144.895 1.189 148.311 1.86 151.239 3.202C154.167 4.50333 156.607 6.252 158.559 8.448C160.552 10.644 162.036 13.1043 163.012 15.829C163.988 18.513 164.476 21.2173 164.476 23.942V25.284C164.476 27.7647 163.988 30.347 163.012 33.031C162.077 35.6743 160.633 38.155 158.681 40.473C156.77 42.7503 154.33 44.6007 151.361 46.024C148.433 47.4473 144.977 48.159 140.991 48.159ZM140.991 40.107C143.269 40.107 145.302 39.7003 147.091 38.887C148.921 38.0737 150.467 36.9553 151.727 35.532C153.029 34.068 154.005 32.421 154.655 30.591C155.347 28.7203 155.692 26.748 155.692 24.674C155.692 22.4373 155.347 20.3837 154.655 18.513C154.005 16.6423 153.029 15.0157 151.727 13.633C150.467 12.2503 148.921 11.1727 147.091 10.4C145.261 9.62733 143.228 9.241 140.991 9.241C138.714 9.241 136.66 9.62733 134.83 10.4C133 11.1727 131.435 12.2503 130.133 13.633C128.873 15.0157 127.897 16.6423 127.205 18.513C126.555 20.3837 126.229 22.4373 126.229 24.674C126.229 26.748 126.555 28.7203 127.205 30.591C127.897 32.421 128.873 34.068 130.133 35.532C131.435 36.9553 133 38.0737 134.83 38.887C136.66 39.7003 138.714 40.107 140.991 40.107ZM180.412 48.037C176.589 48.037 173.62 46.7763 171.506 44.255C169.432 41.7337 168.395 37.9923 168.395 33.031V13.816H176.874V33.763C176.874 35.7963 177.443 37.423 178.582 38.643C179.72 39.8223 181.266 40.412 183.218 40.412C185.17 40.412 186.756 39.7817 187.976 38.521C189.236 37.2603 189.867 35.5523 189.867 33.397V13.816H198.346V47H191.636V32.909H192.307C192.307 36.2437 191.88 39.0293 191.026 41.266C190.172 43.5027 188.891 45.1903 187.183 46.329C185.475 47.4677 183.34 48.037 180.778 48.037H180.412ZM206.622 47V13.877H215.101V47H206.622ZM201.986 20.221V13.877H215.101V20.221H201.986ZM209.733 9.912C208.065 9.912 206.825 9.485 206.012 8.631C205.239 7.73633 204.853 6.63833 204.853 5.337C204.853 3.95433 205.239 2.836 206.012 1.982C206.825 1.128 208.065 0.700996 209.733 0.700996C211.4 0.700996 212.62 1.128 213.393 1.982C214.165 2.836 214.552 3.95433 214.552 5.337C214.552 6.63833 214.165 7.73633 213.393 8.631C212.62 9.485 211.4 9.912 209.733 9.912ZM236.524 48.159C233.636 48.159 231.135 47.671 229.021 46.695C226.947 45.719 225.198 44.4177 223.775 42.791C222.392 41.1643 221.355 39.3343 220.664 37.301C219.972 35.2677 219.627 33.1937 219.627 31.079V29.92C219.627 27.6833 219.972 25.5483 220.664 23.515C221.396 21.441 222.473 19.611 223.897 18.025C225.32 16.3983 227.069 15.1173 229.143 14.182C231.257 13.206 233.697 12.718 236.463 12.718C239.35 12.718 241.932 13.2873 244.21 14.426C246.487 15.524 248.297 17.0693 249.639 19.062C251.021 21.0547 251.794 23.3727 251.957 26.016H243.722C243.518 24.308 242.786 22.8847 241.526 21.746C240.306 20.6073 238.618 20.038 236.463 20.038C234.592 20.038 233.026 20.4853 231.766 21.38C230.546 22.2747 229.631 23.515 229.021 25.101C228.411 26.6463 228.106 28.4357 228.106 30.469C228.106 32.421 228.39 34.19 228.96 35.776C229.57 37.362 230.485 38.6023 231.705 39.497C232.965 40.3917 234.572 40.839 236.524 40.839C237.988 40.839 239.248 40.5747 240.306 40.046C241.363 39.5173 242.197 38.7853 242.807 37.85C243.457 36.9147 243.864 35.8573 244.027 34.678H252.262C252.099 37.362 251.306 39.7207 249.883 41.754C248.5 43.7467 246.65 45.3123 244.332 46.451C242.054 47.5897 239.452 48.159 236.524 48.159ZM279.184 47L268.082 31.506H263.141L277.232 13.877H286.077L273.084 30.164L273.267 25.894L288.761 47H279.184ZM256.004 47V2.47H264.483V47H256.004ZM308.647 47.305V40.351H319.81C321.844 40.351 323.389 39.802 324.446 38.704C325.504 37.5653 326.032 36.02 326.032 34.068C326.032 32.116 325.504 30.6113 324.446 29.554C323.389 28.456 321.844 27.907 319.81 27.907H308.647V22.6H319.2C322.169 22.6 324.812 22.966 327.13 23.698C329.489 24.3893 331.319 25.5687 332.62 27.236C333.962 28.9033 334.633 31.14 334.633 33.946V34.8C334.633 37.4433 334.044 39.7003 332.864 41.571C331.726 43.401 329.997 44.8243 327.679 45.841C325.402 46.817 322.576 47.305 319.2 47.305H308.647ZM301.388 47.305V2.165H309.867V47.305H301.388ZM308.647 26.504V21.197H318.163C320.237 21.197 321.762 20.648 322.738 19.55C323.714 18.452 324.202 16.988 324.202 15.158C324.202 13.328 323.714 11.864 322.738 10.766C321.762 9.668 320.237 9.119 318.163 9.119H308.647V2.165H317.37C322.413 2.165 326.236 3.22233 328.838 5.337C331.482 7.45166 332.803 10.4813 332.803 14.426V15.28C332.803 18.0453 332.132 20.2617 330.79 21.929C329.489 23.5557 327.679 24.735 325.361 25.467C323.043 26.1583 320.38 26.504 317.37 26.504H308.647ZM339.665 47V13.877H346.375V27.907H346.192C346.192 23.149 347.208 19.55 349.242 17.11C351.275 14.67 354.264 13.45 358.209 13.45H359.429V20.831H357.111C354.264 20.831 352.048 21.6037 350.462 23.149C348.916 24.6537 348.144 26.8497 348.144 29.737V47H339.665ZM377.734 48.159C374.806 48.159 372.223 47.6913 369.987 46.756C367.75 45.8207 365.859 44.56 364.314 42.974C362.768 41.3473 361.589 39.5173 360.776 37.484C360.003 35.4507 359.617 33.336 359.617 31.14V29.859C359.617 27.5817 360.023 25.4263 360.837 23.393C361.691 21.319 362.89 19.489 364.436 17.903C366.022 16.2763 367.933 15.0157 370.17 14.121C372.406 13.1857 374.928 12.718 377.734 12.718C380.54 12.718 383.061 13.1857 385.298 14.121C387.534 15.0157 389.425 16.2763 390.971 17.903C392.557 19.489 393.756 21.319 394.57 23.393C395.383 25.4263 395.79 27.5817 395.79 29.859V31.14C395.79 33.336 395.383 35.4507 394.57 37.484C393.797 39.5173 392.638 41.3473 391.093 42.974C389.547 44.56 387.656 45.8207 385.42 46.756C383.183 47.6913 380.621 48.159 377.734 48.159ZM377.734 40.9C379.808 40.9 381.556 40.4527 382.98 39.558C384.403 38.6227 385.481 37.3823 386.213 35.837C386.945 34.251 387.311 32.4617 387.311 30.469C387.311 28.4357 386.924 26.6463 386.152 25.101C385.42 23.515 384.322 22.2747 382.858 21.38C381.434 20.4447 379.726 19.977 377.734 19.977C375.741 19.977 374.013 20.4447 372.549 21.38C371.125 22.2747 370.027 23.515 369.255 25.101C368.482 26.6463 368.096 28.4357 368.096 30.469C368.096 32.4617 368.462 34.251 369.194 35.837C369.966 37.3823 371.064 38.6227 372.488 39.558C373.911 40.4527 375.66 40.9 377.734 40.9ZM410.795 47L417.078 14.975H426.838L434.097 47H427.387L420.006 15.158H423.544L417.017 47H410.795ZM408.294 47L408.233 40.046H415.004V47H408.294ZM404.878 47L395.85 13.877H404.085L412.686 47H404.878ZM429.522 47V40.046H436.293L436.232 47H429.522ZM432.206 47L439.831 13.877H447.517L439.526 47H432.206ZM451.144 47V13.877H457.854V28.09H457.244C457.244 24.7147 457.692 21.9087 458.586 19.672C459.481 17.3947 460.803 15.6867 462.551 14.548C464.341 13.4093 466.557 12.84 469.2 12.84H469.566C473.511 12.84 476.5 14.121 478.533 16.683C480.567 19.2043 481.583 22.9863 481.583 28.029V47H473.104V27.297C473.104 25.2637 472.515 23.6167 471.335 22.356C470.197 21.0953 468.611 20.465 466.577 20.465C464.503 20.465 462.816 21.1157 461.514 22.417C460.254 23.6777 459.623 25.3857 459.623 27.541V47H451.144ZM498.435 47V2.47H507.097V47H498.435ZM505.877 28.456V21.136L523.689 21.075V28.395L505.877 28.456ZM505.877 9.79V2.47H524.543V9.79H505.877ZM543.995 48.159C541.067 48.159 538.484 47.6913 536.248 46.756C534.011 45.8207 532.12 44.56 530.575 42.974C529.029 41.3473 527.85 39.5173 527.037 37.484C526.264 35.4507 525.878 33.336 525.878 31.14V29.859C525.878 27.5817 526.284 25.4263 527.098 23.393C527.952 21.319 529.151 19.489 530.697 17.903C532.283 16.2763 534.194 15.0157 536.431 14.121C538.667 13.1857 541.189 12.718 543.995 12.718C546.801 12.718 549.322 13.1857 551.559 14.121C553.795 15.0157 555.686 16.2763 557.232 17.903C558.818 19.489 560.017 21.319 560.831 23.393C561.644 25.4263 562.051 27.5817 562.051 29.859V31.14C562.051 33.336 561.644 35.4507 560.831 37.484C560.058 39.5173 558.899 41.3473 557.354 42.974C555.808 44.56 553.917 45.8207 551.681 46.756C549.444 47.6913 546.882 48.159 543.995 48.159ZM543.995 40.9C546.069 40.9 547.817 40.4527 549.241 39.558C550.664 38.6227 551.742 37.3823 552.474 35.837C553.206 34.251 553.572 32.4617 553.572 30.469C553.572 28.4357 553.185 26.6463 552.413 25.101C551.681 23.515 550.583 22.2747 549.119 21.38C547.695 20.4447 545.987 19.977 543.995 19.977C542.002 19.977 540.274 20.4447 538.81 21.38C537.386 22.2747 536.288 23.515 535.516 25.101C534.743 26.6463 534.357 28.4357 534.357 30.469C534.357 32.4617 534.723 34.251 535.455 35.837C536.227 37.3823 537.325 38.6227 538.749 39.558C540.172 40.4527 541.921 40.9 543.995 40.9ZM561.868 47L572.665 29.31L572.482 30.713L562.295 13.877H571.506L578.155 25.528H579.07L585.353 13.877H594.015L584.377 30.652L584.56 29.432L595.967 47H586.756L578.887 34.495H577.972L570.53 47H561.868ZM621.998 48.159C618.786 48.159 615.959 47.5287 613.519 46.268C611.079 45.0073 609.188 43.157 607.846 40.717C606.504 38.277 605.833 35.288 605.833 31.75V29.798H614.434V32.482C614.434 34.8407 615.126 36.7113 616.508 38.094C617.891 39.436 619.701 40.107 621.937 40.107C624.215 40.107 626.024 39.436 627.366 38.094C628.749 36.7113 629.44 34.8407 629.44 32.482V8.875H638.102V31.75C638.102 35.288 637.431 38.277 636.089 40.717C634.747 43.157 632.877 45.0073 630.477 46.268C628.078 47.5287 625.252 48.159 621.998 48.159ZM611.262 10.095V2.47H638.102V10.095H611.262ZM655.89 48.037C652.067 48.037 649.099 46.7763 646.984 44.255C644.91 41.7337 643.873 37.9923 643.873 33.031V13.816H652.352V33.763C652.352 35.7963 652.921 37.423 654.06 38.643C655.199 39.8223 656.744 40.412 658.696 40.412C660.648 40.412 662.234 39.7817 663.454 38.521C664.715 37.2603 665.345 35.5523 665.345 33.397V13.816H673.824V47H667.114V32.909H667.785C667.785 36.2437 667.358 39.0293 666.504 41.266C665.65 43.5027 664.369 45.1903 662.661 46.329C660.953 47.4677 658.818 48.037 656.256 48.037H655.89ZM680.514 47V13.877H687.224V28.09H686.614C686.614 24.7553 687.041 21.9697 687.895 19.733C688.749 17.4557 690.01 15.7477 691.677 14.609C693.385 13.4297 695.5 12.84 698.021 12.84H698.387C700.949 12.84 703.064 13.4297 704.731 14.609C706.439 15.7477 707.7 17.4557 708.513 19.733C709.367 21.9697 709.794 24.7553 709.794 28.09H707.659C707.659 24.7553 708.086 21.9697 708.94 19.733C709.835 17.4557 711.116 15.7477 712.783 14.609C714.491 13.4297 716.606 12.84 719.127 12.84H719.493C722.055 12.84 724.19 13.4297 725.898 14.609C727.606 15.7477 728.887 17.4557 729.741 19.733C730.636 21.9697 731.083 24.7553 731.083 28.09V47H722.604V27.297C722.604 25.223 722.075 23.576 721.018 22.356C719.961 21.0953 718.456 20.465 716.504 20.465C714.552 20.465 712.986 21.1157 711.807 22.417C710.628 23.6777 710.038 25.3857 710.038 27.541V47H701.559V27.297C701.559 25.223 701.03 23.576 699.973 22.356C698.916 21.0953 697.411 20.465 695.459 20.465C693.507 20.465 691.941 21.1157 690.762 22.417C689.583 23.6777 688.993 25.3857 688.993 27.541V47H680.514ZM737.094 59.2V13.877H743.804V28.151L742.767 28.09C742.929 24.7147 743.621 21.8883 744.841 19.611C746.101 17.3337 747.769 15.646 749.843 14.548C751.917 13.4093 754.235 12.84 756.797 12.84C759.155 12.84 761.27 13.267 763.141 14.121C765.052 14.975 766.679 16.1747 768.021 17.72C769.403 19.2653 770.461 21.075 771.193 23.149C771.925 25.1823 772.291 27.3783 772.291 29.737V31.018C772.291 33.4173 771.925 35.654 771.193 37.728C770.501 39.7613 769.464 41.571 768.082 43.157C766.74 44.7023 765.113 45.9223 763.202 46.817C761.29 47.671 759.155 48.098 756.797 48.098C754.316 48.098 752.039 47.5897 749.965 46.573C747.931 45.5157 746.284 43.9093 745.024 41.754C743.763 39.558 743.051 36.7317 742.889 33.275L745.573 37.362V59.2H737.094ZM754.662 40.961C756.492 40.961 758.078 40.5137 759.42 39.619C760.802 38.7243 761.88 37.484 762.653 35.898C763.425 34.2713 763.812 32.4413 763.812 30.408C763.812 28.2933 763.425 26.4633 762.653 24.918C761.88 23.3727 760.802 22.173 759.42 21.319C758.078 20.4243 756.492 19.977 754.662 19.977C752.994 19.977 751.449 20.343 750.026 21.075C748.643 21.807 747.504 22.8847 746.61 24.308C745.756 25.7313 745.329 27.4393 745.329 29.432V31.872C745.329 33.7833 745.776 35.41 746.671 36.752C747.565 38.094 748.724 39.131 750.148 39.863C751.571 40.595 753.076 40.961 754.662 40.961ZM788.713 48.037C784.158 48.037 780.58 47.0813 777.977 45.17C775.415 43.218 774.073 40.534 773.951 37.118H781.576C781.698 38.2567 782.328 39.2937 783.467 40.229C784.606 41.1643 786.395 41.632 788.835 41.632C790.868 41.632 792.475 41.266 793.654 40.534C794.874 39.802 795.484 38.8057 795.484 37.545C795.484 36.447 795.016 35.5727 794.081 34.922C793.186 34.2713 791.641 33.8443 789.445 33.641L786.517 33.336C782.816 32.9293 779.97 31.872 777.977 30.164C775.984 28.456 774.988 26.1787 774.988 23.332C774.988 21.0547 775.557 19.1433 776.696 17.598C777.835 16.0527 779.4 14.8937 781.393 14.121C783.426 13.3077 785.744 12.901 788.347 12.901C792.414 12.901 795.708 13.7957 798.229 15.585C800.75 17.3743 802.072 19.9973 802.194 23.454H794.569C794.488 22.3153 793.918 21.3393 792.861 20.526C791.804 19.7127 790.279 19.306 788.286 19.306C786.497 19.306 785.114 19.6517 784.138 20.343C783.162 21.0343 782.674 21.929 782.674 23.027C782.674 24.0843 783.06 24.8977 783.833 25.467C784.646 26.0363 785.948 26.4227 787.737 26.626L790.665 26.931C794.569 27.3377 797.619 28.4153 799.815 30.164C802.052 31.9127 803.17 34.2713 803.17 37.24C803.17 39.436 802.56 41.3473 801.34 42.974C800.161 44.56 798.493 45.8003 796.338 46.695C794.183 47.5897 791.641 48.037 788.713 48.037ZM805.247 47V37.24H814.763V47H805.247ZM818.578 47V37.24H828.094V47H818.578ZM831.91 47V37.24H841.426V47H831.91Z" fill="white"/>
</svg>
